<?xml version="1.0" encoding="UTF-8"?>
<svg width="264px" height="300px" viewBox="0 0 264 300" version="1.1" xmlns="http://www.w3.org/2000/svg" xmlns:xlink="http://www.w3.org/1999/xlink">
    <title>Group</title>
    <g id="Page-1" stroke="none" stroke-width="1" fill="none" fill-rule="evenodd">
        <g id="Group" transform="translate(1, 2)" fill="#008001" stroke="#EEFFEE" stroke-width="2">
            <g id="rec1" transform="translate(0, 31)" fill-rule="nonzero">
                <path d="M216.392814,121.253693 C216.480023,121.236805 216.834945,121.700097 217.375334,122.505022 L217.601186,122.844882 C218.660278,124.453281 220.284754,127.108513 221.99496,129.999824 L222.376222,130.645895 C224.924777,134.974542 227.583512,139.689524 228.792814,142.15464 C239.192814,163.25464 238.192814,184.25464 225.992814,197.35464 C215.592814,208.65464 199.892814,213.95464 176.992814,213.95464 L169.692814,213.95464 L169.492814,221.85464 C169.392814,229.35464 169.292814,229.95464 168.192814,231.85464 C166.392814,234.95464 164.992814,235.75464 161.592814,235.75464 C159.692814,235.75464 158.192814,235.45464 157.092814,234.95464 C156.192814,234.45464 146.392814,228.15464 135.292814,220.95464 C131.849791,218.708128 128.853969,216.7359 126.273316,215.017571 L125.547256,214.533511 C118.041665,209.523055 114.24514,206.780221 113.292814,205.75464 C109.592814,201.35464 109.692814,196.45464 113.792814,192.15464 C115.192814,190.65464 122.592814,185.55464 135.692814,177.05464 C146.692814,169.95464 156.292814,163.85464 157.192814,163.35464 C158.292814,162.85464 159.892814,162.55464 161.692814,162.55464 C165.092814,162.45464 166.492814,163.35464 168.292814,166.45464 C169.392814,168.35464 169.392814,168.95464 169.592814,176.55464 L169.692814,184.55464 L178.292814,184.35464 C184.092814,184.15464 187.692814,183.85464 189.592814,183.35464 C204.192814,179.35464 209.892814,167.65464 204.092814,153.25464 C203.572814,151.917497 202.004324,148.924844 200.24821,145.793443 L199.840014,145.06904 C199.360814,144.22264 198.872814,143.37464 198.392814,142.55464 C195.992814,138.45464 193.992814,134.95464 193.992814,134.75464 C193.992814,134.55464 198.992814,131.45464 204.992814,127.85464 C210.992814,124.25464 216.192814,121.35464 216.392814,121.253693 Z M70.7928139,70.6546398 C70.9507339,70.8633198 71.0997473,71.0589578 71.2403562,71.2472053 L71.3781823,71.4331984 C71.6257958,71.7704369 71.8457241,72.0891661 72.0410626,72.4242096 L72.1451909,72.6087878 C73.4845939,75.0658826 73.5847237,78.6910137 73.5922091,96.3837558 L73.5920849,106.931173 L73.5919566,107.231654 L73.5910859,108.686518 C73.5807455,122.241413 73.5085266,125.140852 73.0041441,126.753053 L72.9669247,126.867486 C72.9416031,126.942455 72.9152569,127.014959 72.8878449,127.086045 L72.8392429,127.208076 C72.8309619,127.228245 72.8225899,127.248347 72.8141259,127.268406 L72.7622299,127.388455 L72.7080779,127.508701 C72.6712139,127.5892 72.6328139,127.67064 72.5928139,127.75464 C70.5928139,132.05464 66.4928139,133.65464 61.6928139,132.05464 C60.2928139,131.65464 56.8928139,129.75464 53.9928139,127.85464 C51.1928139,125.95464 48.6928139,124.45464 48.4928139,124.45464 C48.2867533,124.506155 44.6572768,130.475668 40.940144,136.744338 L40.502631,137.48287 L39.9564413,138.40682 C37.5943725,142.407326 35.3162333,146.327984 33.9852694,148.714722 L33.7505149,149.137585 C33.415128,149.744722 33.1564503,150.227367 32.9928139,150.55464 C30.0928139,156.45464 28.8928139,163.15464 29.8928139,167.85464 C31.4928139,175.55464 36.9928139,180.75464 46.2928139,183.45464 C46.3428139,183.469223 46.3931178,183.483546 46.4438448,183.497615 L46.5974146,183.539065 C48.9752792,184.163147 52.5011473,184.262973 68.7928139,184.45464 L88.4928139,184.55464 L88.4928139,214.05464 L69.6038269,214.05464 C68.7884443,214.05464 67.9713309,214.050954 67.15684,214.046574 L66.1809882,214.040515 C57.4146662,213.978885 49.1573301,213.728833 46.8928139,213.55464 C12.5928139,210.05464 -5.10718605,188.85464 1.29281395,158.85464 C3.39281395,149.15464 6.09281395,143.25464 17.7928139,123.45464 C22.1928139,115.85464 25.7928139,109.65464 25.6928139,109.55464 C25.5928139,109.45464 22.0928139,107.25464 17.9928139,104.55464 C9.09281395,98.6546398 7.49281395,96.8546398 7.49281395,92.6546398 C7.49281395,90.5546398 7.69281395,89.7546398 8.79281395,88.3546398 C9.49281395,87.4546398 10.8928139,86.1546398 11.8928139,85.5546398 C12.1138139,85.4116398 12.9398339,85.0269698 14.2219173,84.4619261 L14.8454889,84.1885523 C18.5732105,82.5620607 25.2906336,79.7556694 32.2966093,76.8809131 L33.4348161,76.4143127 L34.6706133,75.9086981 L35.9060889,75.4042523 C38.6831064,74.2715685 41.4329687,73.1579299 43.9888623,72.1319809 L44.8334139,71.7933398 C50.4128139,69.5586398 54.9428139,67.7946398 56.5928139,67.2546398 C61.7928139,65.4546398 67.6928139,66.8546398 70.7928139,70.6546398 Z M123.792814,0.354639782 C132.192814,1.65463978 140.692814,5.95463978 148.292814,12.5546398 C148.452365,12.6939656 148.610855,12.833645 148.768373,12.9737969 L149.2381,13.39579 L149.702526,13.8213338 C156.092877,19.7358795 161.114162,26.8748645 171.092814,43.7546398 C174.592814,49.8546398 177.692814,54.7546398 177.892814,54.7546398 C178.092814,54.7546398 181.592814,52.5546398 185.692814,49.9546398 C193.992814,44.5546398 196.692814,43.5546398 199.992814,44.5546398 C202.492814,45.3546398 203.892814,46.5546398 205.192814,49.1546398 L206.292814,51.3546398 L206.292814,100.75464 L204.792814,103.85464 C203.092814,107.25464 201.292814,108.85464 197.992814,109.95464 C197.488814,110.13464 197.020814,110.28584 196.547342,110.397008 L196.309958,110.449204 C192.895414,111.14804 188.844814,109.69464 168.892814,101.95464 C157.192814,97.4546398 146.792814,93.2546398 145.792814,92.7546398 C142.392814,90.9546398 140.092814,87.7546398 140.092814,84.7546398 C140.092814,81.3546398 142.792814,78.3546398 150.292814,73.3546398 L155.192814,70.0546398 L147.492814,57.2546398 C140.828835,46.0739648 138.22194,41.8561211 135.693811,38.9177997 L135.467516,38.6579357 C135.354368,38.5295628 135.24114,38.403415 135.127474,38.2789822 L134.905638,38.0388682 C134.720152,37.840345 134.532907,37.6454614 134.342379,37.4520417 L134.112074,37.2205015 C133.72528,36.8353081 133.322921,36.4524892 132.892814,36.0546398 C123.492814,27.3546398 111.892814,27.3546398 102.492814,36.2546398 C99.7928139,38.7546398 96.2928139,43.4546398 92.6928139,49.4546398 C92.2928139,50.0546398 90.6928139,49.2546398 80.6928139,43.2546398 C74.3928139,39.4546398 69.1928139,36.1546398 69.2928139,35.8546398 C69.3928139,35.5546398 70.6928139,33.3546398 72.1928139,30.9546398 C83.6928139,12.8546398 97.1928139,2.65463978 112.792814,0.254639782 C115.292814,-0.145360218 120.992814,-0.0453602184 123.792814,0.354639782 Z" id="recycle-icon"></path>
            </g>
            <path d="M152.509241,146.051891 C153.333176,145.903065 153.833869,146.090828 154.547544,146.405568 C154.887154,146.555475 156.543208,146.969287 155.893061,147.605905 C155.577356,147.915237 154.556158,147.089992 154.087984,146.98205 C153.293336,146.798614 152.599473,146.712953 151.777691,146.735882 C150.942127,146.759028 150.58895,147.248335 150.311577,148.038321 C150.162123,148.464031 150.274106,149.846507 149.702132,149.669993 C149.773629,150.178985 149.903271,150.598422 150.074906,151.083835 C150.134774,151.25386 149.82919,151.428859 149.8602,151.584391 C149.883243,151.70834 150.343019,151.943908 150.443588,152.047091 C151.05411,152.675489 151.588613,153.545079 152.456264,153.818719 C153.494259,154.144708 154.075063,153.860901 154.914934,153.273386 C155.329055,152.983956 155.914166,153.224066 155.908782,153.707317 C155.901675,154.302402 155.888324,154.591617 155.619565,155.115967 C156.003106,155.05648 156.340347,154.975145 156.710536,154.856171 C156.703214,155.419675 156.470204,155.950298 156.463743,156.491953 C156.457713,157.018683 156.531364,157.407836 156.223411,157.875944 C155.737793,158.615744 155.851283,159.184872 156.003537,160.045161 C156.134471,160.784746 156.208982,161.655634 156.595323,162.304582 C157.012028,163.002851 157.448546,163.670835 157.910045,164.341415 C157.681557,164.44503 157.45393,164.548645 157.226088,164.652477 C157.938041,165.231772 158.652577,165.836375 159.566745,166.001208 C159.619291,164.873119 160.682267,164.783997 161.35481,164.031434 C161.644027,163.707176 161.592343,163.296608 161.959948,162.936225 C162.416924,162.487802 163.099158,162.140615 163.608465,161.724855 C163.350258,162.66583 164.35595,162.027049 164.650982,161.738051 C164.945152,161.449485 164.965611,161.024424 165.298114,160.698219 C165.281962,160.728287 165.270118,160.760735 165.263011,160.79448 L165.273,160.76 C165.388103,160.533542 166.295794,159.649601 166.653476,159.579914 L166.717281,159.577269 C167.195362,159.656225 167.112021,160.421984 167.144323,160.751433 C167.188901,161.203966 167.918728,160.316205 168.08864,160.213671 C168.36386,160.048406 169.42016,159.786447 168.805546,159.329804 C168.584811,159.569698 167.875658,160.05403 167.967182,159.346676 C168.06366,158.60017 168.318636,158.773872 168.872736,158.366981 C169.295686,158.055918 169.781304,157.926345 170.255293,157.695969 C170.559801,157.547792 170.614931,156.870506 171.013977,156.624988 C171.020653,157.006137 170.984905,157.382959 170.954755,157.762378 C171.596503,157.690128 171.978968,157.674553 172.045727,156.976501 C172.092889,156.474648 172.903903,156.160557 173.280553,155.954408 C173.611979,155.77227 173.972909,156.244704 173.984753,156.501255 C174.028685,157.448503 173.603581,156.476162 173.190752,156.559877 C173.340852,156.899925 173.169432,157.058918 172.823146,156.965469 C173.350758,157.646216 172.342481,157.53849 171.952049,157.774059 L172.446927,158.098965 C171.91587,158.372822 170.634528,159.672448 170.53805,158.484873 C170.174536,158.555392 170.09098,158.705299 169.942818,158.97829 C169.865722,159.119761 170.183797,159.102023 169.992349,159.289569 C169.8612,159.418493 169.755678,159.460242 169.753524,159.64065 C169.74491,160.338702 169.735434,160.621211 169.236895,161.110085 C170.150848,161.178657 170.130605,160.414196 170.650464,159.904339 C171.087843,159.475168 172.318793,159.861292 172.83176,160.015958 C172.308671,159.961879 172.303718,160.465031 172.015793,160.46157 C171.622561,160.457027 171.173122,160.682212 171.731529,161.004523 C171.608778,161.213268 171.093011,161.337866 171.09215,161.410115 C171.085689,161.945065 170.721745,161.42569 170.588658,161.8103 C170.493903,162.084805 170.086458,161.851617 169.828466,161.932302 C169.683104,161.977945 169.762784,162.660639 169.760631,162.802109 C169.890488,162.473958 170.689227,162.20724 170.988996,162.453192 C171.304487,162.712122 171.084828,163.454519 170.984474,163.757794 C170.931067,163.919598 170.885412,164.323677 170.713346,164.390735 C170.54408,164.456711 170.13082,164.458442 170.011515,164.535666 C169.612469,164.796327 169.295256,165.018916 168.825789,165.113663 C169.612038,165.162767 170.351771,165.359614 171.13522,165.369349 C170.991796,165.133564 170.766754,164.950561 170.506609,164.860573 C170.686643,164.553404 171.55171,164.53783 171.9191,164.286038 C171.277697,163.981292 171.922227,163.798574 172.607366,163.687842 L172.835541,163.653529 C173.212646,163.600556 173.559577,163.568085 173.662802,163.547535 C174.513226,163.378592 175.308304,163.236472 175.917534,162.638791 C175.451298,162.711473 174.995398,162.777233 174.522056,162.759495 C174.585369,162.650904 174.56491,162.492994 174.628655,162.384836 C174.39629,162.346331 173.953096,162.385268 173.842406,162.625595 C173.622747,163.106899 173.583768,162.841912 173.229084,162.879983 C172.981645,162.90659 171.695134,163.166386 171.69858,162.892097 C171.702241,162.621053 171.384167,162.247042 171.402472,162.072475 C171.449203,161.634868 171.959156,161.832581 172.25871,161.604367 C172.28326,161.586197 172.163955,161.395622 172.387921,161.249609 C172.514332,161.167409 172.469539,161.072013 172.471262,160.919511 C172.476,160.521922 173.131099,160.460272 173.429792,160.390185 C173.053788,160.763763 173.068863,161.287464 173.004688,161.784775 C173.125069,161.727019 173.291536,161.67467 173.416009,161.715554 C173.674001,161.799701 173.706519,161.311259 173.800197,161.148157 C174.033207,160.742131 174.374109,161.106408 174.642006,161.292656 L174.641,161.291 L174.611298,161.250179 C174.451122,161.017593 173.957368,160.188476 173.863349,160.096758 L173.849082,160.08929 C173.901272,160.034778 174.023514,159.98324 174.16368,159.925417 L174.307891,159.865155 C174.673701,159.70755 175.042935,159.491373 174.60109,159.071955 C174.220779,158.712438 173.791152,159.420224 173.49289,159.535953 C173.282061,159.617504 172.999304,159.36939 172.833268,159.240682 C172.584752,159.048809 173.021701,158.759811 173.11021,158.610553 C173.237914,158.394237 173.156941,158.168619 173.439483,158.074089 C173.737314,157.975449 173.971401,157.886327 173.97334,157.528756 C174.15122,158.315498 173.789214,158.469731 174.675171,158.527704 C174.772509,157.782711 174.45422,157.222885 175.338884,157.067138 C175.313042,157.501284 175.257697,157.923533 175.153467,158.345133 C175.036315,158.818649 175.366665,159.204341 175.579863,159.631565 C175.607859,159.198933 175.635854,158.767166 175.663419,158.334534 C176.001306,158.446585 176.162389,158.786202 176.368696,159.060274 C176.415427,158.643 176.693662,158.056135 176.384847,157.7282 C177.045115,157.614201 176.463881,158.407648 176.952083,158.623532 C177.436409,158.83855 177.719166,158.090313 177.880034,157.815375 C178.2513,158.563612 177.389893,158.561017 177.472158,159.193957 C177.505968,159.455483 176.982663,159.293679 176.905998,159.613394 C176.820719,159.96534 177.544731,160.077825 177.711413,160.113733 C177.931072,160.16089 177.991155,159.678505 178.164729,159.526003 C178.33701,159.374365 178.659822,159.302548 178.870221,159.187468 C179.461146,158.862994 179.090741,158.299923 179.612968,157.836358 C179.610384,158.259256 179.530273,158.680207 179.499478,159.101807 C179.490864,159.225539 178.964329,159.400107 178.843948,159.569049 C178.705907,159.763301 178.788172,160.132553 178.577127,160.3811 C178.458684,160.519975 178.329257,160.65236 178.234072,160.80854 C178.155253,160.937032 178.298031,161.041513 178.246993,161.133015 C178.18411,161.246797 178.304492,161.481716 178.134795,161.467656 C178.055545,161.461382 177.804876,161.396271 177.733595,161.43391 C177.678895,161.463113 177.313228,161.258694 177.564328,161.58187 C177.672219,161.721178 177.811552,161.717933 177.694401,161.861134 C177.274034,162.376183 176.950791,161.066822 176.890493,160.877545 C176.68354,161.418335 176.361159,161.686567 177.076987,161.996765 C177.474311,162.168303 177.275111,162.948988 177.23484,163.272164 C177.038009,163.217653 176.854529,163.107548 176.728979,162.958722 C176.459574,163.202943 176.469911,163.732701 176.0433,163.394383 C176.035116,163.509247 175.941654,163.62 175.937347,163.734864 C175.521503,163.231713 175.470895,163.764067 175.119441,163.895371 C174.847667,163.99639 174.516026,163.705229 174.453358,164.108658 C174.400166,164.450438 173.849728,164.071452 173.704365,164.185234 C173.422255,164.40566 173.221332,164.638633 172.836067,164.70396 C172.670893,164.732298 171.814439,165.028867 172.177953,165.292989 C172.482029,165.514713 172.882368,164.864899 173.088675,164.915734 C173.317378,164.973057 174.021148,165.313323 174.217979,165.28412 C174.443237,165.250375 174.836469,164.715425 174.975586,164.542156 C175.059207,164.939528 175.306991,164.796665 175.584828,164.609213 L175.738551,164.505524 C175.91949,164.386346 176.102726,164.285605 176.253698,164.331031 C176.735655,164.475531 176.421457,164.709152 176.98051,164.676056 C177.435548,164.649016 177.561744,164.538479 177.969405,164.407824 C178.451577,164.252725 177.903938,163.761039 178.319566,163.558134 C178.690617,163.377726 178.853854,162.996578 179.217798,162.802758 C179.789126,162.499483 180.429151,162.600503 180.415799,161.773959 C180.195064,162.200967 178.942579,162.117685 179.261945,161.589225 C179.312122,161.506376 180.171806,161.300227 180.279697,161.245715 C180.589588,161.088453 180.790942,160.731099 180.976144,160.448374 C181.098249,161.411197 180.715138,162.128717 180.649887,163.096948 C180.62146,163.515303 179.940303,163.346793 179.608231,163.53607 C179.389433,163.660235 178.890033,164.224604 178.886372,164.490456 C178.879481,165.108904 178.311383,165.249509 177.98771,165.704638 C177.866467,165.874879 177.98211,166.186374 177.682126,166.306646 C177.492616,166.381924 177.264128,166.43557 177.101322,166.562332 C176.847207,166.760477 176.249606,167.239617 176.035116,166.944995 C175.816534,166.646046 176.68634,166.171016 176.930979,165.965732 C176.397338,164.769071 174.784354,167.327225 174.968049,168.025277 C174.895906,167.949134 174.773802,167.922527 174.698213,167.85071 C174.471017,168.9576 174.217548,169.760781 174.868341,170.741774 C175.028563,170.9834 175.422441,171.024932 175.545622,171.294029 C175.745684,171.732069 176.011858,171.840227 176.377095,172.120357 C176.642839,172.324559 176.625395,173.214267 176.64047,173.529007 C176.680525,174.373938 176.606013,174.892015 177.18854,175.531229 C177.671143,176.06077 177.895108,176.117878 178.591125,176.256753 C179.168913,176.370968 178.375989,176.792568 178.26982,176.832586 C178.081172,176.903321 177.812629,177.180855 177.763098,177.377703 C177.603953,178.009778 177.386448,178.300074 177.089693,178.856007 C176.457205,180.043582 175.350944,181.071083 174.321563,181.933535 C173.574939,182.558256 172.99349,184.066195 172.98143,185.014309 C172.973893,185.670395 173.500212,186.11406 172.648065,186.360227 C172.193889,186.490882 172.197981,187.258155 171.682429,187.509515 C171.407209,187.643631 171.067169,187.816035 170.859785,188.045762 C170.637543,188.290848 170.891442,188.436645 170.535466,188.61078 C170.252924,188.747708 170.046618,188.76696 169.99924,189.094463 C169.983304,189.204351 169.986104,189.879474 169.929897,189.946315 C169.772906,190.132131 169.351247,190.057718 169.14774,190.279226 C168.895132,190.554163 168.87855,190.590505 168.85723,190.964515 C168.837203,191.304131 168.757738,191.498816 168.979335,191.750175 C169.204162,192.004995 169.368691,192.162257 169.21816,192.532807 C168.723066,192.411453 168.096608,191.985959 167.635971,192.171991 C167.20979,192.344612 166.581825,192.977552 166.30036,193.331662 C165.968073,193.750233 165.943738,194.384905 165.755305,194.87962 C165.622003,195.230701 165.529832,195.335181 165.66658,195.676961 C165.876333,196.200878 165.515188,195.79853 165.351306,196.161941 C164.841568,197.293274 164.360473,198.424824 163.929769,199.587523 C163.79216,199.960019 163.575947,201.429887 163.348751,201.604886 C162.833199,202.00161 162.627753,202.233068 162.428122,202.877041 C162.216216,203.563196 162.132445,203.748146 161.730598,204.32571 C161.365362,204.850925 161.423938,205.643507 160.747949,205.811585 C159.459069,206.132382 158.869867,206.574532 158.399108,207.826569 C158.344624,207.971717 157.694478,207.873726 157.538779,207.871346 C157.31589,207.868967 157.013967,208.199282 156.836302,208.326475 C156.398276,208.640783 155.794646,208.819027 155.288354,209.002463 C155.084631,209.076443 154.709919,209.079688 154.554005,209.200609 C154.344468,209.36436 154.386461,209.84588 154.181446,210.016337 C153.680108,210.433178 153.247682,210.137041 152.869309,209.817758 C153.233038,210.297764 152.942528,210.837256 152.718563,211.300389 C152.551234,211.645629 151.939636,211.490963 151.579568,211.486637 C152.411256,211.849615 152.537021,211.868651 152.158864,212.725912 C151.933391,213.236634 151.977107,213.849674 151.901734,214.399765 C151.710071,215.803657 151.802026,216.96138 152.111702,218.342126 C152.237467,218.902817 152.342559,219.489683 152.542405,220.029175 C152.703057,220.465917 152.695089,220.544872 153.118901,220.714032 C153.316594,220.794069 153.709396,220.960416 153.570278,221.187331 C153.453773,221.37704 152.29755,221.577349 151.993474,221.645705 C151.938523,221.658035 151.880923,221.666724 151.822966,221.674347 L151.650323,221.696595 C151.424826,221.728866 151.230339,221.785301 151.213685,222.030748 C151.193442,222.328182 151.034944,222.655036 151.398457,222.685969 C151.43076,222.50448 151.463493,222.322342 151.496011,222.140636 C151.59938,222.308497 151.70361,222.47744 151.806979,222.645518 C151.977753,222.047837 152.343635,222.239925 152.840882,222.135228 C153.178985,222.064277 153.622178,221.729203 153.950589,221.578863 C154.120502,222.061248 153.975786,222.516377 153.662449,222.896228 C154.256389,222.838255 154.2818,222.07055 154.34899,221.610013 C154.39486,221.29311 155.184124,221.716657 155.260789,221.937515 C155.387846,222.301359 155.026486,223.045703 155.153974,223.279324 C155.375367,223.684996 155.635723,222.734553 155.706437,222.411433 L155.723149,222.326668 C155.798737,221.838226 156.562374,222.119653 156.741116,222.452131 C157.102907,223.124658 157.229534,222.589492 157.790955,222.673855 C158.50743,222.781581 158.048301,223.404355 158.505923,223.525275 C159.001662,223.656579 159.160592,224.215107 158.854793,224.646009 C159.959331,224.625026 158.988741,226.083862 158.832181,226.512168 C158.771667,226.679596 158.831319,226.955832 158.734626,227.102494 C158.66959,227.200485 158.407507,227.198322 158.306077,227.298044 C158.014706,227.583365 157.774804,227.890534 157.510783,228.200947 C156.825534,229.006292 156.100014,227.539453 156.10669,226.99174 C156.108844,226.801598 156.123918,226.706203 156.180556,226.52493 C156.261097,226.266865 156.094846,226.269245 156.117888,226.06872 C156.137485,225.902156 156.376956,225.856081 156.324411,225.665506 C156.25033,225.396409 156.187878,225.151756 155.949699,224.974377 C155.782371,225.627002 155.430055,226.121068 155.529763,226.80917 C155.626887,227.481047 155.676633,228.229068 156.406029,228.486052 C155.862912,228.949617 154.12567,228.622547 153.73976,228.024433 C153.469279,227.606078 152.727607,227.679193 152.576431,227.365751 C152.295612,226.785158 152.721578,226.593719 153.125577,226.123231 C152.607657,226.316618 152.358279,226.695604 151.88386,226.892884 C151.396519,227.095356 150.946219,227.234663 150.425068,227.285498 C149.288011,227.398198 148.174428,227.7469 147.031341,227.733272 C148.042848,226.741246 149.904347,226.78213 151.263862,226.373293 C151.00501,225.939363 150.837251,225.602991 150.276475,225.541774 C149.916622,225.501755 149.506808,225.733646 149.141572,225.61835 C148.701608,225.479258 148.263583,224.501726 147.841279,224.464087 C147.397439,224.424285 147.254445,225.186583 146.796392,224.63303 C146.419312,225.257967 145.760336,225.924653 145.68367,226.668564 C146.109205,226.609942 146.212143,227.565194 146.077118,227.857005 C145.83334,228.383518 145.278379,228.07808 144.906036,228.242696 C144.225309,228.544024 144.165872,228.770075 143.621463,228.174773 C143.220909,227.735435 142.970886,227.13148 142.55418,226.721345 C141.974023,226.147242 140.846657,225.55021 140.134489,225.167547 C139.276313,224.707443 138.41706,224.248636 137.558668,223.791344 C137.7555,225.076261 139.787342,224.889797 140.466992,225.973541 C140.880467,226.632223 141.105079,227.31881 141.595219,227.938123 C141.905972,228.330737 142.344428,228.656076 142.707941,228.999802 C142.329138,229.365809 141.821123,229.535185 141.429399,229.879127 C140.866469,230.372544 140.540642,230.574583 139.834935,230.81318 C138.847979,231.146956 137.976666,232.10091 136.991647,232.545872 C135.994569,232.996674 135.117657,233.80959 134.16085,234.37093 C133.243237,234.908043 132.215794,235.33981 131.424807,236.056249 C131.228837,235.184279 130.999488,234.437772 130.264062,233.852204 C129.627482,233.346025 128.656246,232.889814 128.207238,232.19133 C127.926635,232.578319 129.493318,234.381097 129.802994,234.763977 C130.353217,235.444507 131.005733,237.160326 129.906578,237.561376 C129.337619,237.76904 129.204747,238.340763 128.743895,238.696603 C128.319652,239.024754 128.114637,239.602318 127.79484,240.018943 C127.439294,240.483157 127.169889,240.663565 127.030557,241.237884 C126.938386,241.618817 127.22545,242.227746 127.241386,242.653889 C127.275627,243.559388 126.302022,244.332069 126.170658,245.296623 C126.045538,246.209693 125.837293,247.246063 125.993208,248.168002 C126.353276,250.30607 126.392901,252.296827 125.94217,254.431001 C125.242492,255.550653 123.479839,256.923828 123.367641,258.220426 C123.33986,258.531705 122.813541,258.792366 122.625539,259.032044 C122.397697,259.323422 122.252765,259.673638 122.143797,260.021906 C121.88839,260.839798 121.555241,261.463437 121.407725,262.319399 C121.360994,262.59066 121.255687,262.972241 121.350011,263.251505 C121.448642,263.545046 121.977977,263.788402 121.974962,264.027864 C121.966348,264.71921 121.221446,265.212627 121.046581,265.982928 C120.99102,266.229529 121.385113,266.670597 121.320939,266.753446 C121.033229,267.125294 120.791174,267.550355 120.493342,267.909007 C120.130906,268.345316 120.01397,268.37971 119.897034,268.942781 C119.792157,269.447663 119.779667,269.790308 119.31623,270.102884 L119.277147,270.119653 C118.878687,270.298762 117.965881,270.761454 118.764284,270.733662 C118.675128,271.384557 118.568529,271.580756 118.1585,272.092127 C118.153331,272.109648 117.190279,273.226272 117.589971,273.160296 C118.284696,273.045864 118.236026,273.656308 118.876482,273.664312 C119.638612,273.673181 119.512846,274.122686 118.86916,274.372098 C118.520075,274.507296 117.38388,274.928463 118.166037,275.187826 C117.651347,275.162517 117.861099,275.518357 117.65953,275.819036 C117.401754,276.202349 116.819659,276.139401 116.697339,276.672187 C117.573174,276.487886 118.306662,276.318078 118.798956,275.477257 C118.881435,275.335786 118.896079,274.860107 118.980712,274.825929 C119.15687,274.754329 119.348748,274.83761 119.511339,274.758222 C119.84901,274.594688 120.071684,274.416443 120.354441,274.166814 C120.307709,274.30331 120.261193,274.439589 120.213601,274.575219 C120.124445,274.832635 119.947426,275.251207 120.020645,275.529389 C120.081159,275.75955 120.333767,275.898208 120.397295,276.167738 C120.437997,276.339709 120.071253,276.549536 119.916631,276.62092 C119.805725,276.672187 119.578529,276.644715 119.457286,276.653584 C119.285435,276.665265 119.322691,276.818633 119.188096,276.884609 C118.197694,277.36959 116.805661,277.13943 115.76422,277.647124 C115.440331,277.804818 115.140562,278.004694 114.780709,278.038007 C114.494076,278.064614 114.226394,278.047308 113.97917,278.195269 C113.356804,278.566467 113.089337,278.889427 112.643344,279.471966 C111.866571,280.486488 111.709364,281.402803 111.593505,282.620014 C111.467524,283.939325 110.072045,284.679992 109.166276,285.50394 C108.724806,285.905206 108.447002,286.34303 107.940064,286.673344 C107.42925,287.006255 107.258261,287.457057 106.814636,287.843614 C106.048846,288.511166 104.328186,288.941635 105.421311,290.228499 C106.567413,291.577662 103.885639,291.45977 103.458166,291.7187 C103.989654,291.95535 104.132862,291.873799 103.937108,292.440331 C103.825125,292.764372 103.576824,292.961652 103.304405,293.173859 C102.655981,293.680038 102.131384,293.604328 102.199435,294.571909 C101.802758,294.232077 101.680438,294.111805 101.164455,294.065297 C100.935106,294.044963 100.244688,294.166317 100.16307,294.0945 C100.230045,294.153987 100.352795,294.165451 100.436351,294.186434 C100.089635,294.326823 99.891081,294.295025 99.8865586,294.677472 C99.8833284,294.932292 99.9589168,295.100369 99.7170769,295.21307 C99.279267,295.415975 98.6015554,295.857908 98.1038777,295.889058 C97.2855414,295.938594 97.2581918,295.441716 96.6005079,296.130034 C96.331749,296.411029 95.5780182,297.067548 95.285786,296.491714 C95.3051677,296.35046 95.3839864,295.232106 95.1076902,295.329448 C94.7056287,295.472 94.7726031,295.866345 94.8337629,296.170485 C94.9455304,296.727066 93.4568045,296.79499 93.0321311,296.939489 C92.4969822,297.121627 91.5698934,296.831331 90.9617403,296.864643 C90.7709388,296.875243 89.9569096,296.966961 89.9190077,296.764922 C89.8367433,296.323421 89.7467264,296.039181 89.5421423,295.642025 C89.2507715,295.076791 88.111992,295.131303 88.2465868,294.494468 C88.3286358,294.107479 88.6357272,293.27596 87.9384186,293.403586 C87.7030392,293.447066 87.1954554,293.393852 87.0257583,293.521478 C86.8412019,293.660137 86.9180825,294.295457 86.5885945,294.515667 C86.0960852,294.844251 85.807514,294.958466 85.2165891,294.956303 C84.2070206,294.952193 84.8003144,293.826484 85.0324635,293.406182 C84.5276792,293.360972 84.0328011,293.348209 83.5258633,293.341936 C83.1457677,293.336961 83.4448911,294.06573 83.3438912,294.341533 C82.9829618,295.330313 81.5476431,294.545735 80.9416436,294.312114 C81.4354449,294.030686 81.7690246,293.725681 82.177762,293.325063 C81.5127561,293.004483 81.4197242,291.805443 81.25175,291.173368 L81.251,291.174 L81.1808993,291.900162 L81.1100486,292.626795 C81.0880827,292.850033 80.8839293,292.775837 80.8223388,292.94478 C80.7801298,293.060509 80.8350445,293.2102 80.7962812,293.334365 C80.4207079,294.538813 79.7477341,292.603866 79.515585,292.244348 C78.9554553,291.377786 78.5019248,290.75631 77.4830961,290.45801 C76.5314572,290.180044 76.2215662,290.79741 76.3055533,291.614436 C75.855253,291.398553 75.3827715,291.056341 74.8779873,291.0505 C74.2431306,291.042496 74.1035827,291.656618 73.6293784,291.718484 C73.4187645,291.746172 73.0608501,291.236315 72.8638033,291.299263 C72.7072427,291.349881 72.6945369,291.831617 72.5392684,291.887859 C72.2515586,291.991691 71.4037192,291.192403 71.2155018,291.041631 C70.9077643,290.79568 70.4811527,290.681897 70.5532955,290.215953 C70.6362059,289.680787 71.6711859,289.49562 70.7934126,288.857271 C70.3405281,288.527822 69.9104708,288.214164 69.4636162,287.868707 C69.308563,287.748651 69.8850593,286.697572 69.7056714,286.343462 C69.5058251,286.675507 69.3632623,287.033727 69.0372199,287.246366 C68.6752138,287.482583 68.6823204,287.120037 68.3328047,286.99241 C67.823498,286.805946 66.9506778,286.32659 66.4232816,286.511973 C65.7358792,286.753598 64.9851633,287.07526 64.8932082,287.896395 C64.8066368,288.670158 65.1843636,289.090893 64.1274177,289.018643 C63.7632581,288.994199 63.2149728,288.995497 62.930924,289.243396 C62.5885149,289.542128 62.4315235,289.487184 61.9607648,289.481343 C61.0907442,289.471393 60.3253844,289.366047 59.4708691,289.223494 C58.889635,289.126369 58.2409958,289.026647 57.6526551,289.019076 C57.2320734,289.014749 55.6802494,288.744354 55.8417631,289.40693 C55.303384,289.297042 54.9329792,289.076616 54.370696,289.069694 C53.7939843,289.062339 53.6223491,289.172228 53.2674495,288.623434 C53.0174263,288.236444 52.4426527,287.718367 53.1363004,287.528225 C53.5303939,287.4205 53.5312553,286.762683 53.9081207,286.455081 C54.1139969,286.287004 54.9222116,285.251499 54.8866786,285.251066 C55.2682817,285.256258 55.1323948,284.994732 54.9922009,284.728879 C54.8147511,284.392508 54.9504227,284.344918 55.0466848,283.977613 C55.1140899,283.721063 55.7123368,283.758269 55.8923708,283.7388 C56.172974,283.708733 56.1520848,283.578294 56.3232894,283.355921 C56.6094917,282.984723 56.7705748,282.423166 56.9742974,281.997672 C56.217121,282.636021 55.9485775,283.264636 54.9870324,283.548659 C54.7469154,283.61961 54.5950924,283.799585 54.5918622,284.071711 C54.5860477,284.550851 54.4884934,284.524677 54.1796791,284.827087 C53.9832784,285.019824 53.7969992,285.233977 53.5749717,285.397079 C53.3512213,285.561047 53.2670188,286.053166 53.115842,286.139909 C52.943776,286.239631 52.7090427,285.936139 52.4762476,286.095131 L51.7046426,286.623592 C51.8480668,286.182956 52.0296083,285.725447 52.0838769,285.261882 C52.1553736,284.653169 51.9346382,284.370876 52.4820621,283.995784 C52.9166417,283.697917 54.9392244,283.330396 54.6086596,282.697022 C53.9750951,283.151502 53.5131658,283.373443 52.699998,283.083579 C52.9446374,282.37536 53.1070126,281.559632 53.5420229,280.953298 C53.0329316,281.184108 52.9407611,281.194491 52.7172261,281.6719 C52.5557124,282.017141 52.5328851,282.417326 52.3655568,282.766243 C52.1521434,283.21034 51.7427599,283.66482 51.6667408,284.124492 C51.5831843,284.628941 50.9257157,284.879435 51.0999352,284.201501 C50.6933513,284.48574 49.9844137,285.185522 49.6889512,284.685183 C49.4927659,284.353571 49.6717231,283.517509 49.4886742,283.064976 C49.1746915,282.290132 48.9111011,282.138062 49.0284677,281.224126 C49.0928579,280.723571 49.2169004,279.86869 49.8153626,279.704506 C50.4017652,279.544216 50.9291614,279.455093 51.4944594,279.720946 C51.8614186,279.893782 51.8476361,279.666434 52.0507127,279.335687 C52.2031817,279.087572 52.4157338,279.064426 52.6892304,278.962542 C53.2724026,278.74536 53.6268714,278.804847 54.1706343,278.424347 C54.5380243,278.166931 55.3182433,278.458093 55.7017846,278.566251 C55.7631598,277.634145 56.3306114,277.394683 57.1237515,277.217304 C56.3913405,277.095518 55.5921706,277.114121 54.8438236,277.057879 C54.5541756,277.036031 53.1268249,277.685412 53.5962915,276.658343 C53.8740951,276.051576 55.1194737,275.785724 55.7127675,275.543233 C56.4094301,275.258994 56.7595918,275.153648 56.9316578,274.391999 C56.5222743,274.548829 56.1122448,274.704576 55.7030767,274.860973 C55.3565759,274.993142 55.4610214,275.15884 55.1970003,275.37256 C54.7163354,275.762145 54.0483146,275.873764 53.4668652,275.989061 C53.4492063,275.652689 53.1192876,274.845398 53.3951531,274.57457 C53.771157,274.206184 54.1295022,273.979701 54.5841095,273.709306 C54.9700197,273.480227 55.3415013,273.629053 55.7489466,273.475684 C56.2274579,273.295277 56.6734512,273.179548 57.1743591,273.074634 C56.6908947,273.052787 56.2080763,273.032453 55.7243965,273.011254 C56.5272274,272.498801 57.3223057,272.379178 57.3313505,271.346269 C56.9157218,271.752294 56.4705899,272.107269 55.9948781,272.439747 C55.698985,272.646761 54.949992,273.230382 54.5886319,273.225839 C54.0297944,273.218917 53.6970761,273.541661 53.2743408,273.852291 C53.0611427,274.00912 52.5744479,273.949417 52.3125803,273.971914 C52.3183948,273.488447 52.1198406,272.21348 52.8757249,272.385019 C52.6920299,271.399267 52.7559894,269.283912 54.3577749,269.807397 C54.8291797,269.962063 55.3294416,270.668767 55.9369486,270.419138 C56.1236584,270.342563 56.4266582,269.832273 56.5767583,269.664195 C56.710061,269.514505 57.1579924,269.614226 57.3522396,269.616389 C57.3108921,269.158881 56.9443636,269.32393 56.6150909,269.356161 C56.2769888,269.389907 56.1727586,269.693614 55.9763579,269.962063 C55.5127058,270.598248 54.7882629,269.362867 54.6846787,269.03796 C54.3276257,269.514505 53.7683575,269.124054 53.3251638,268.975878 C53.6105047,268.311355 53.9055365,267.655917 54.2156428,267.002426 C54.4417621,266.525882 54.48031,266.635338 54.9997382,266.729435 C55.2045376,266.766209 55.5689126,266.590777 55.5788188,266.316704 C55.5872175,266.079838 55.0516379,265.718374 54.954299,265.489511 C54.7818023,265.084351 54.7266723,265.264759 55.0533607,264.784754 C55.4076142,264.265379 55.3539916,263.384107 56.0670209,263.454194 C56.0556073,264.392573 56.0939399,264.962998 56.5188287,265.786946 C56.7096303,266.157712 56.855208,266.348719 56.8091227,266.760368 C56.7819884,267.002859 56.1122448,266.870473 55.8893558,266.867229 C56.506769,267.444792 57.2335808,267.832215 57.8593927,268.417782 C58.2909574,268.821644 58.9301211,270.291512 59.5201846,270.235702 C58.9762063,269.031903 58.604294,268.042474 57.3009859,267.587561 C57.1663911,267.541053 57.2518857,267.009564 57.3645146,266.916981 C57.6227212,266.706289 57.8876038,266.653725 58.2084777,266.556166 C58.8631467,266.357155 59.18359,266.520906 59.650903,266.958081 C59.8798218,266.550325 59.4394277,266.190376 59.2193383,265.865469 C59.0220762,265.574956 58.6712684,266.096711 58.3572857,266.158361 C57.7861731,266.26998 57.5372266,266.493867 57.2146299,265.994826 C56.9904488,265.648071 56.8496088,265.3011 56.7089842,264.909568 C56.5670675,264.514575 56.2197053,262.801784 56.5776197,262.457409 C57.189003,261.870111 57.9138767,263.945447 58.6484411,263.667049 C57.9535014,263.427803 58.0006634,262.297335 57.4429026,262.149375 C56.6801271,261.947768 57.5516552,261.210996 57.7741134,261.015014 C58.0282284,261.386428 59.2014642,263.51779 59.5204,262.813033 C59.1698075,262.632409 59.0455496,262.410469 59.1441806,262.033646 C59.179929,261.897583 59.7951887,261.935655 59.9866363,261.725179 C59.2408735,261.607287 58.8827437,261.787262 58.3323049,261.22073 C58.140642,261.02345 58.0521324,259.739398 58.3577164,259.866592 C59.2180462,260.224162 60.5286764,260.585842 61.4544731,260.331022 C61.1036653,260.022988 60.8618254,260.050893 60.4117404,260.045701 C60.0368132,260.041591 59.8776683,259.629509 59.5322443,259.624966 C58.7020637,259.615232 58.517938,258.903769 59.2740377,258.493633 C59.7305832,258.246384 59.4842209,257.982695 59.8961886,257.730903 C60.1012033,257.605872 59.846873,257.45683 59.9500265,257.308438 C60.0370286,257.183407 60.1897129,257.073086 60.2982501,256.967091 C60.68093,256.591134 60.1500882,256.445553 60.8308147,256.170615 C61.1807611,256.029144 61.2050959,256.052074 61.4656714,255.687798 C62.0658564,256.244163 62.6908069,257.156151 62.0725323,257.971879 C62.8736404,258.102318 62.872779,258.490172 62.6473059,259.163132 C62.840907,258.876729 63.5000984,258.699783 63.5631964,258.400617 C63.6062667,258.197497 62.9130498,257.432387 62.7842695,257.240514 C62.5379072,256.874291 61.9730399,255.454176 62.1089267,254.967898 C62.2756089,254.37 63.4966528,253.475533 64.0488144,253.930662 C64.6291871,254.408288 64.4491531,254.454796 64.3647352,255.070864 C64.2809634,255.684986 64.2490914,255.70056 64.7245878,256.092741 C64.6498608,255.427353 64.4532448,255.115209 64.9879629,254.695988 C65.5584294,254.248647 64.6832403,253.90968 64.4823172,253.630416 C63.9592281,252.903377 64.5992532,252.766882 65.1880246,252.77402 C65.5543377,252.778563 66.0283267,253.447845 66.2497082,253.697906 C66.5865182,252.85622 65.0135897,252.325597 65.153353,251.75993 C65.2817025,251.241421 65.2633977,251.085673 65.7147747,250.814413 C66.063429,250.60437 66.2932092,250.967565 66.5975011,251.197509 C66.8882258,250.740433 66.2873947,250.73416 66.2901943,250.373777 C66.2910557,250.251126 66.9233282,249.649551 67.0254048,249.563024 C67.1709825,249.439508 67.3570464,249.346708 67.5168373,249.243093 C67.63485,249.165868 67.8415876,249.280732 67.9363423,249.210213 C68.2027323,249.011635 68.2869348,248.630918 68.626329,248.399028 C68.8231604,249.233791 68.7846124,249.292629 69.5941193,249.574489 C70.3713234,249.845533 70.3859673,249.861324 70.6387901,250.654772 C71.0023037,249.97489 70.2022723,249.365744 69.7310829,249.053384 C69.0036251,248.570999 69.1731068,248.177736 69.1832283,247.342324 C69.1864586,247.070198 69.105271,246.647733 69.194642,246.40243 C69.2219916,246.327585 69.4801982,246.34489 69.5135778,246.270478 C69.5706459,246.142851 69.571292,245.946869 69.5958421,245.810373 C69.7201,245.112321 70.0392511,244.938836 70.4423894,244.460128 C70.6219927,244.247057 70.7264382,243.925611 70.8315298,243.671224 C70.8793379,243.554629 71.4775848,243.316465 71.6257467,243.207009 C72.1542196,242.819155 71.5419749,242.128025 72.3723709,242.138841 C73.0586966,242.146628 73.6425149,242.231856 73.6526364,241.389954 C73.6612505,240.675462 72.7070273,240.940233 72.5086885,240.410043 C73.0436219,240.206922 73.5273017,240.088597 73.8554977,239.606428 C74.1421307,239.186126 74.4897083,238.859273 74.8835864,238.539341 C75.3155818,238.188693 75.7202276,237.875034 75.9612061,237.365177 C76.0785727,237.117063 76.7997854,236.385049 76.779973,236.263263 C76.7388408,236.011039 76.7282886,235.717498 76.9242586,235.516324 C77.0513161,235.385236 77.1785889,235.254798 77.3058617,235.124143 C77.4077231,235.019662 77.2884182,234.896362 77.3592689,234.799236 C77.615322,234.44729 77.4042774,234.436258 77.9075542,234.442098 C78.105247,234.445127 78.3020784,234.44729 78.4995559,234.442098 C79.7345976,234.410084 80.5023262,233.9065 81.5037114,233.211476 C81.7690246,233.930078 82.1719475,234.23941 82.9194331,233.949979 C83.5086352,233.721333 84.3476452,233.752266 84.7245106,233.267286 C85.2023759,232.653381 85.5198042,231.966794 86.0904861,231.442011 C86.8976241,230.700479 87.2312038,231.658327 88.0689217,231.849334 C88.9137893,232.042288 88.7128403,231.649354 88.4090188,231.183323 L88.2219247,230.899035 L88.1765975,230.828106 C87.8184677,230.259411 88.4537551,229.697422 88.7957335,229.383547 C89.1988718,229.012998 89.4861509,228.511144 89.8395429,228.09041 C90.1024873,227.778914 90.4989497,226.99823 90.8374824,226.832964 C91.8395137,226.345172 92.5215323,225.61835 93.3893995,225.069988 C93.819672,224.798295 94.3589126,224.262264 94.9104281,224.26897 C95.5588519,224.277406 95.9421779,224.232629 96.4346871,223.749811 C96.7413478,223.449132 96.9831877,223.521165 97.4033388,223.525708 C97.5913408,223.528304 97.7946327,223.178521 97.9023086,223.030993 C98.021398,222.867891 98.1499629,222.441748 98.3644532,222.44456 C98.8461948,222.450833 98.8464102,222.474844 99.1009558,222.07055 C99.7750065,220.999569 99.7661771,219.731957 100.783929,218.859121 C100.967409,218.701427 101.308095,218.266632 101.556826,218.241755 C101.800173,218.217528 102.131384,218.247163 102.356211,218.147874 C103.052443,217.840273 103.331324,217.703777 103.785285,217.097227 C104.061796,216.727975 104.355751,215.877421 104.733693,215.642501 C105.146953,215.385518 105.721727,214.942503 106.029034,214.56979 C106.10656,214.474611 105.975626,214.302856 106.089763,214.199673 L106.525419,213.807708 C106.705238,213.645471 106.937602,213.496213 107.086626,213.307369 C107.433557,212.867599 107.371536,212.235523 107.71696,211.863676 C107.959015,211.603015 108.121821,211.36312 108.304654,211.056817 C108.419437,210.864079 108.86823,210.913616 109.065923,210.826873 C109.519453,210.626564 110.108871,210.180521 110.483367,209.842419 C110.807687,209.548012 111.237744,208.761487 111.735852,208.711951 C112.415287,208.644244 112.948067,208.480493 113.598429,208.257687 C114.120656,208.07901 114.462204,207.405618 114.834116,206.988993 C115.217012,206.560904 115.900322,206.334204 116.398431,206.062511 C116.81126,205.836894 117.293432,205.268199 117.619044,204.906518 C117.959946,204.527965 118.037688,204.021786 118.37902,203.540915 C118.707646,203.079729 118.961546,202.337765 119.320322,201.939311 C119.755117,201.456493 120.138443,200.982329 120.516385,200.454301 C120.838551,200.003498 121.303926,199.696762 121.627599,199.232548 C121.995851,198.706035 122.246951,198.254367 122.481684,197.657334 C122.599266,197.357088 122.84649,197.159375 123.065933,196.926835 C123.249413,196.733016 123.314664,196.330884 123.407265,196.084067 C123.592468,195.592597 123.71651,195.09507 123.833877,194.583267 C123.976655,193.960709 124.327032,193.478973 124.334785,192.829592 C124.338661,192.477646 124.943799,192.189513 125.087439,191.715997 C125.449876,190.5215 126.100022,189.654938 126.29427,188.396411 C126.483348,187.170331 126.00979,185.964153 126.603945,184.841905 C127.198316,183.719008 127.18884,182.411378 127.364352,181.148524 C127.44274,180.589131 127.908761,180.146765 127.994902,179.564658 C128.089226,178.929121 128.009976,178.409963 127.924051,177.769451 C127.819175,176.992444 128.232434,176.86114 128.865784,176.892289 C129.53402,176.924088 129.833574,176.734811 130.470584,176.619082 C131.108456,176.503569 131.646835,176.826097 132.172939,176.390003 C132.569186,176.060987 132.978139,175.748626 133.368141,175.412038 C134.309443,174.600421 135.13467,173.712659 135.777495,172.631512 C136.38694,171.607039 136.666251,170.393506 137.319628,169.395207 C137.745163,168.744528 138.138826,168.30519 138.708646,167.773269 C139.047825,167.456366 138.93455,166.50782 138.975036,166.059613 C139.028228,165.47556 139.373867,164.923737 139.414353,164.342496 C139.447948,163.857083 139.25284,163.349605 139.248317,162.859001 C139.236473,161.635084 139.307108,160.382398 139.209554,159.162592 C139.099725,157.795907 139.048902,156.642509 139.464961,155.327308 C139.639827,154.77462 140.155378,154.302618 140.512647,153.870635 C140.713139,153.628577 141.04155,152.649315 141.332275,152.611243 C141.580576,152.578579 142.117878,152.620112 142.290375,152.42997 C142.468686,152.233122 142.583468,151.828611 142.741321,151.679137 C143.116894,151.325244 143.71471,151.113254 144.123232,150.746166 C145.005743,149.953367 146.022203,149.471199 146.903638,148.679698 C146.872196,149.082263 146.711975,149.894313 147.298377,149.754789 C147.785072,149.638844 147.850969,149.100001 147.855923,148.645953 C147.86669,147.768575 148.476351,148.620644 148.905116,148.111869 C148.940864,148.07012 148.949909,147.419225 148.913945,147.383965 C148.836419,147.307822 148.354892,147.377259 148.23408,147.375745 C148.527174,145.800964 151.412886,146.24982 152.509241,146.051891 Z M156.946678,0.41252883 C156.205591,0.551689215 156.126189,0.89442013 156.073039,1.59517668 C156.052812,1.86574238 155.948448,2.14772526 155.886261,2.41204382 C155.823427,2.67959366 156.040546,2.90556772 155.781682,3.07359419 C155.568006,3.21253916 155.918538,4.32883809 155.936183,4.68535579 C155.964157,5.24565945 156.113923,5.77429657 156.396673,6.24907906 C156.757103,6.85440519 157.040068,7.29989075 157.547252,7.78242831 C157.944048,8.16048786 158.35935,8.41834387 158.678034,8.89097217 C158.847168,9.14193478 159.006833,9.39634409 159.166283,9.65355384 C159.294531,9.86078649 158.779385,10.0507856 158.655225,9.92325787 C158.423904,9.68565121 158.393779,9.40862295 158.198824,9.17984845 C158.023881,8.97369289 157.683677,8.83474793 157.480761,8.62686903 C157.659147,9.02173123 157.844849,9.39052779 158.055943,9.76751025 C158.30082,10.2048099 158.53709,10.2267826 159.046642,10.2330297 C158.954759,10.6653748 158.974555,10.8560202 159.421704,11.0582982 C159.796336,11.228048 160.181297,11.4307569 160.582182,11.5358811 C160.992104,11.6438058 161.387393,11.7648711 161.151123,12.254302 C161.093455,12.3740747 160.933789,12.5767836 160.829211,12.6584272 C160.560233,12.8684603 160.499121,12.6062959 160.537209,13.0395026 C160.576157,13.4860653 160.601333,13.8800658 161.092163,13.8858821 C161.289486,13.8884671 161.377495,13.8283654 161.541464,13.7101006 C161.614411,13.657323 161.607094,13.492097 161.680472,13.4397503 C161.758152,13.3841723 161.980866,13.4673239 162.043699,13.3990362 C162.361954,13.0528586 162.023902,12.4391311 161.882528,12.1045861 C161.715116,11.7077851 161.569222,11.4693168 161.574387,11.0352484 C162.02756,11.1401573 162.712701,10.9723462 163.073346,10.6907942 C163.440447,10.4040721 163.422371,9.62253357 163.54481,9.1548599 C163.926113,9.24296608 163.830357,10.2580183 164.024882,10.2606033 C164.380147,10.2649117 164.485156,10.2119187 164.701199,10.4891624 C164.842359,10.670114 164.971898,10.8493422 164.841068,11.0529128 C164.693668,11.2827643 164.461486,11.1244317 164.243507,11.2834106 C164.026818,11.4423895 163.770321,11.3956437 163.504141,11.4051221 C162.96597,11.4240789 163.143065,12.2112183 163.20181,12.5252985 C163.423663,13.710316 164.340769,14.0192262 165.417756,14.0812667 C166.02457,14.11638 166.243195,13.9231495 166.288168,13.3529366 C166.326901,12.8673832 166.65656,12.6202981 166.781366,12.1308672 C167.154276,12.4315915 167.278436,12.4199589 167.145884,12.8835396 C167.426697,12.9104669 167.640158,12.9091744 167.919034,12.8658753 C168.003816,12.8529502 168.478723,13.3637075 168.614718,13.4477208 C168.836355,13.584727 168.999464,13.0666454 169.281137,13.2835718 C169.547317,13.4884349 169.691059,13.8322429 169.866217,14.1155183 C169.937873,14.2311981 170.423539,14.1622641 170.589875,14.2559712 C170.874561,14.4158118 171.103085,14.3987937 171.425212,14.3813448 C171.671166,14.3679888 172.027723,14.3031479 172.257537,14.3744514 C172.593652,14.4789294 172.696724,14.7199827 173.068989,14.7245065 C173.292348,14.727307 173.745737,14.7255836 173.916377,14.8709912 C174.15071,15.0698225 174.146407,15.5176776 174.143179,15.7869508 C174.134787,16.4734898 174.505761,16.9422405 175.111499,17.1527044 C175.682162,17.3506741 176.246585,17.0312084 176.807565,17.198804 C177.116997,17.291434 177.952549,17.9904672 177.985687,18.3215655 C177.795897,18.3728351 177.609334,18.3907149 177.414809,18.4047171 C177.165198,18.4225968 177.107529,18.7134119 176.993267,18.9215062 C176.624445,18.7883775 176.900739,18.5772673 176.734188,18.3754201 C176.630255,18.248754 176.525246,18.1218725 176.420667,17.994991 C176.336531,17.893098 176.311355,18.1378135 176.225067,18.0193333 C175.843979,17.4975895 175.401564,17.8306266 175.16637,18.2868831 C175.664087,17.9835738 176.278432,18.6972555 176.413997,19.0843626 C175.796639,18.9255991 175.438576,19.044941 175.015958,19.5093834 C175.318934,19.3924111 176.374403,19.1532965 176.598408,19.5274786 C176.886967,20.0100161 177.309154,20.4477466 176.732251,20.8227903 C177.032645,20.9964177 177.288067,21.1500111 177.543273,21.3826631 C177.673243,21.5011433 177.546931,22.1178866 177.529716,22.2949607 C177.724886,22.3085321 177.946739,22.3565704 178.140834,22.3365365 C178.356661,22.3141329 178.535263,22.1426598 178.72118,22.1053924 C179.214593,22.0062998 179.530911,22.1101316 179.872405,22.4257197 C180.123522,22.0317192 179.259566,21.6017438 178.931198,21.5978663 C178.686966,21.5948504 178.442519,21.5918345 178.198718,21.5888187 C177.840439,21.5842949 177.897463,21.520531 177.815909,21.1758613 C178.114797,21.2544891 178.498036,21.2805547 178.064444,21.0015877 C177.911665,20.9033568 177.779543,20.3691188 177.691964,20.1879518 C178.020547,20.2439607 178.338371,20.6506709 178.668676,20.7971555 C179.082041,20.9804767 179.289046,21.0214062 179.721562,20.9270529 C179.584921,20.724344 179.258705,20.4395607 179.593744,20.2452532 C179.750181,20.1549928 180.29782,20.3152642 180.475991,20.3581325 C180.16828,19.6580222 180.711185,19.6761174 181.299923,19.6541447 C181.291101,19.5160614 181.250647,19.3478195 181.270874,19.211675 C181.328327,19.200904 181.384705,19.1903485 181.441513,19.179793 C181.457006,19.0860859 181.424084,18.9579119 181.416983,18.863774 C181.413109,18.8204749 182.105135,18.7293528 182.230371,18.5772673 C182.273838,18.7026409 182.31752,18.8277991 182.361417,18.9529573 C181.913838,19.0589432 181.73244,19.0436485 181.648088,19.5139072 C181.583534,19.8743024 181.389439,20.1500382 181.766654,20.4081096 C181.18308,20.4716581 181.414185,20.9716445 181.591065,21.3354865 C181.86284,21.8966518 182.14064,22.1402902 182.728088,22.3587246 C182.479552,22.8270445 181.956444,22.5099484 181.57342,22.344507 C181.706187,22.604948 181.812918,22.8923163 182.009164,23.1107507 C182.314938,23.4504658 182.273193,23.611168 182.43544,24.0215404 C182.592093,24.4153255 182.900879,24.5566401 183.174591,24.8429313 C183.357926,25.0353001 183.727609,24.892693 183.955272,24.788215 C184.079001,25.3579971 184.422432,25.7360566 184.616527,26.2588774 C184.820089,26.8060406 184.486557,27.1957327 184.825253,27.7364333 C184.941237,27.9221241 185.143293,27.8977818 185.358044,27.9003668 C185.675438,27.9042443 185.767321,28.0664545 185.882659,28.3829044 C186.067715,28.8956005 186.004452,29.484124 185.998427,30.0168541 C185.226138,29.7264699 185.346425,30.5584163 185.339324,31.0887768 C185.336957,31.2811455 185.617339,31.5939333 185.670489,31.8209844 C185.764524,32.2270484 185.513406,32.2615154 185.186114,32.5010608 C185.298224,32.4605621 186.231039,32.2509599 186.228241,32.4995529 C186.224153,32.8388371 186.219849,33.1779059 186.215546,33.5171901 C186.206723,34.2577991 186.537458,34.6341353 186.965025,35.1983165 C186.54004,35.50895 186.341857,35.4484174 185.812724,35.4124425 C185.700615,35.4049029 185.725576,34.9499389 185.655426,34.8648486 C185.551924,34.7377516 185.221834,34.6578313 185.070346,34.5856661 C185.064966,35.0335213 185.033335,35.1802213 184.804165,35.5628047 C184.650956,35.8178602 184.449545,36.1108295 184.396826,36.4035833 C184.24792,37.2355297 184.34841,37.7727836 184.768876,38.5084379 C185.042372,38.9864517 185.321679,39.882162 185.974111,39.958851 C186.535091,40.0249845 186.676035,39.9459259 186.921128,40.4525904 C187.078641,40.7785186 187.109628,41.1535623 187.26004,41.4801369 C187.895043,42.8514914 188.761796,44.115352 189.951754,45.0653478 C190.254085,45.3070474 190.549315,45.3475461 190.929111,45.4418994 C191.422524,45.564688 190.970211,46.0388242 190.836368,46.2346397 C190.688323,46.4511353 190.233643,46.3574283 190.050523,46.5877107 C189.715914,47.0075615 189.957994,47.097391 190.257313,47.5273664 C190.244617,47.31561 190.232567,47.1038536 190.219656,46.8920971 C190.44947,46.8571993 190.505633,47.0329809 190.631945,47.199284 C190.771383,47.3834668 191.001843,47.4552012 191.204975,47.5603255 C191.532267,47.7287828 191.987162,47.6486471 192.245381,47.9144736 C191.905178,48.037693 191.6121,48.1787921 191.250163,48.1744838 C190.870367,48.16996 190.576213,48.3241996 190.21234,48.3457415 C189.810164,48.3694375 189.423266,48.3093358 189.516225,48.8789024 C189.575029,49.2400418 189.844862,49.3362752 190.132321,49.4209196 L190.32445,49.4784122 C190.117229,50.0111423 189.848036,50.4878636 189.536237,50.9650157 C189.490619,50.5886795 189.360433,48.7951046 188.652699,49.1404205 C188.755771,49.6604409 188.77148,50.2362547 188.917373,50.7396879 C188.975688,50.9406734 189.226805,51.4339819 189.152352,51.6321669 C189.017003,51.9908388 188.977409,52.2120737 188.972675,52.5957341 C188.968802,52.8994743 188.967511,53.1390197 189.050356,53.4296193 C189.135998,53.7290511 189.530858,53.841715 189.791013,53.992508 C189.818341,54.0082335 190.352423,53.6702418 190.454635,53.6290969 C190.769877,53.5022154 191.069195,53.4776576 191.408537,53.4365127 C191.317731,53.6773506 191.305465,53.9005243 191.061233,53.9948776 C190.804091,54.0941855 190.47852,54.0230974 190.256667,54.1310221 C189.945298,54.2820305 189.853846,54.413005 189.650499,54.6964958 C189.597564,54.770169 189.439405,54.7143756 189.399812,54.7723231 C189.332675,54.8696923 189.360648,55.149521 189.348383,55.2705863 C189.499656,55.2572303 189.650499,55.2440898 189.801557,55.2307338 C189.849327,55.8356291 189.852125,56.4801614 190.003398,57.0706237 C190.084306,57.3877198 190.11809,57.801108 190.265059,58.0934309 C190.418054,58.3982482 190.747713,58.6819544 190.965047,58.9464884 C191.221759,59.2599224 190.695854,59.5128238 191.238543,59.5920978 C191.365286,59.6106238 192.193522,59.6698639 192.193092,59.6991608 C192.189218,59.9845904 192.258292,60.3867768 191.843205,60.2534328 C191.492028,60.1407689 191.144509,60.0464155 190.7858,59.9589556 L190.947402,60.4647584 C191.010881,60.6638051 191.439308,60.6474333 191.577886,60.7891787 C191.925405,61.1459118 191.829649,61.5364657 191.758208,61.9662257 C192.009756,61.9358516 192.450665,62.0187878 192.424843,61.7240952 C192.393642,61.36887 192.276367,61.3313872 191.995554,61.1075673 C192.474335,60.7743148 192.520599,60.3068566 192.645835,59.7551696 C192.878877,60.047708 192.994,60.2049636 193.317634,60.358557 C193.73186,60.5545879 193.664508,61.0914109 193.350987,61.3507749 C193.776849,61.3390428 193.734067,61.5266482 193.74646,61.859203 L193.751,61.944 L193.867962,61.6520108 C193.907018,61.5542377 193.946073,61.4564377 193.984914,61.3585299 C194.089062,61.4658084 194.193641,61.572656 194.297574,61.6799344 C194.455302,61.2745167 194.382786,61.1011048 194.275195,60.6743606 C194.162009,60.2275825 195.06728,60.4096112 195.192947,60.4350306 C195.448583,60.4869465 195.695827,60.5591117 195.942641,60.6424787 C196.04141,60.676084 195.950173,61.0078285 195.940274,61.1041206 C195.927364,61.2264784 196.063574,61.3025211 196.070245,61.421863 C196.081649,61.635989 196.093054,61.8505459 196.104889,62.0648874 C196.334058,62.0373138 196.604327,62.0459305 196.822737,61.9696724 C197.258265,61.8169406 197.25138,61.7602855 197.525522,62.1353292 C197.663884,62.3240359 198.073806,61.8639018 198.191511,61.8639018 C198.343429,61.8636864 198.819197,62.1402838 198.928725,62.2525169 C199.215778,62.5474249 199.871223,63.0155294 199.974941,63.4263326 C200.122556,64.0077473 200.186034,64.6012254 200.348067,65.1779008 C200.44619,65.5286022 200.439949,65.6227401 200.341611,65.9758112 C200.248868,66.3075557 200.325903,66.5404232 200.393255,66.8825078 C200.497833,67.4122221 200.499555,67.9955755 200.874402,68.426628 C201.111103,68.6989171 201.841861,69.1077815 202.213911,69.0248453 C202.508281,68.9593581 202.82632,68.9313537 203.088197,68.779699 C203.528675,68.5242126 203.709428,68.535199 204.13097,68.8292453 C204.274281,68.5287364 204.352177,68.2872522 204.615775,68.086913 C204.919397,67.8564151 205.044633,68.0645094 205.361597,68.254724 C205.164059,67.906823 205.120162,67.5541829 204.948662,67.2256696 C204.829021,66.9962488 204.328722,66.3499932 204.348088,66.1210033 C204.422972,65.2276625 204.483438,64.545432 204.258573,63.6669551 C204.150551,63.2447348 204.091591,62.8520267 203.850587,62.490339 C203.599685,62.1133565 203.347276,61.7376666 203.092715,61.3632691 C202.871508,61.0386334 202.600379,60.6698368 202.605113,60.2618341 C202.609631,59.9216882 202.601885,59.9682186 202.935632,59.9583093 C203.189332,59.9507697 203.442602,59.9434455 203.696302,59.9359058 C203.450348,59.837675 203.052692,59.7941604 203.022136,59.473833 C203.26357,59.5070075 203.504574,59.5403974 203.745793,59.5735718 C203.613456,59.5052841 202.63782,59.0158532 203.225913,59.022962 C203.702972,59.0287783 203.909762,58.8672144 204.303976,58.6108663 C204.50388,58.4811843 204.319469,57.7511309 204.085996,57.6729339 C203.760426,57.5637167 203.707061,57.9346675 203.632608,58.1496552 C203.55256,58.381661 203.349858,58.3907085 203.125423,58.4773068 C203.231938,58.0712428 203.320593,57.7384212 203.644443,57.4618238 C204.063402,57.1037981 203.505005,56.9446038 203.229787,56.6979496 C202.922076,56.4215676 203.089057,55.927182 203.170827,55.592637 C203.196648,55.4851431 203.436361,55.2615387 203.427109,55.2322417 L203.217951,54.5786619 C203.286318,54.5745997 203.348066,54.5736457 203.403711,54.5735408 L203.552845,54.5735144 C203.772595,54.5701858 203.852585,54.5316083 203.857043,54.1753983 C203.856182,54.2447631 203.22828,53.9246511 203.153612,53.8100485 C202.754234,53.193736 201.989261,53.1424664 201.52124,52.5627751 C201.27335,52.2558036 201.212669,51.8150573 201.217833,51.4266576 C201.223643,50.931195 201.204277,50.755198 201.725878,50.6151759 C202.133864,50.5059587 202.336135,50.5486116 202.656111,50.8114222 C202.946693,51.050106 203.006875,51.1907657 203.06758,51.4759385 L203.116,51.719 L203.157461,51.613984 C203.190552,51.5442043 203.23158,51.4762757 203.256254,51.4049003 C203.489296,51.6782665 203.597103,51.7827445 203.929559,51.9119956 C203.859625,51.4518616 204.059529,51.5507387 204.436959,51.5552625 C204.499792,51.5561242 204.852475,52.0838996 204.990407,52.1743754 C205.336635,52.4012111 205.192248,52.5375711 205.102517,52.9341566 C205.035595,53.2264796 205.037317,53.4020457 204.904119,53.6924299 C205.195691,53.8137106 205.965398,53.8346062 206.041142,54.1549336 C206.105266,54.4261455 206.211781,54.5902945 206.045661,54.8173456 C205.870933,55.0555985 206.035978,55.2141466 206.15067,55.476311 C205.954208,55.5041 205.757747,55.531889 205.560855,55.5598934 C205.72633,56.0346759 205.854364,55.7259811 206.191554,55.88496 C206.304525,55.9385992 206.683891,56.3562957 206.682385,56.4786535 C206.677866,56.8543434 206.439659,58.1270362 207.188709,57.711063 C207.507178,57.5337735 207.618643,57.362085 207.784978,57.0400342 C207.890848,56.8336633 208.327883,56.851543 208.571469,56.7849787 C208.877458,56.7013963 209.183447,56.6165214 209.488576,56.528846 C209.836956,56.4288918 209.893764,56.1938702 210.170703,56.4777918 C210.299167,56.609628 210.663686,56.8676994 210.707368,57.028617 C210.820554,57.4450211 210.442909,57.2657929 210.212879,57.4088308 C209.920231,57.590644 209.661367,57.7306661 209.33967,57.8545318 C209.139335,57.931867 209.233155,58.439824 209.102324,58.5960024 C208.905002,58.8321012 208.582444,58.7776003 208.376729,59.0783246 C208.226747,59.2982669 208.369844,59.745045 208.225672,59.9003618 C207.923341,60.2280134 207.791219,59.7403058 207.857495,60.3721284 C207.905265,60.8229994 208.006616,60.8290311 208.392438,61.0812863 C208.351983,60.4570033 208.294099,59.9598173 208.683794,59.4522912 C208.937709,59.6972221 209.191194,59.942153 209.444894,60.1870838 C209.447906,59.9453842 209.450489,59.7036846 209.453716,59.4617696 C209.763148,59.5098079 210.01857,59.4899894 210.23741,59.7148864 C210.374696,59.8551239 210.511122,59.9960076 210.648408,60.1364605 C210.722215,60.2122878 210.5264,60.4621733 210.52726,60.5632046 C210.531134,60.8029655 210.800757,61.1465581 210.895222,61.3740401 C211.039609,61.7236644 211.186579,62.0545473 211.36604,62.3873689 C211.096632,62.4140808 210.954827,62.3339451 210.963435,62.6182976 C210.970966,62.8490109 210.890273,63.3173308 211.018091,63.514008 C211.210033,63.8097776 211.271791,63.835197 211.172161,64.1581094 L210.880374,65.1025043 C211.073178,64.8827774 211.470404,64.167157 211.791241,64.6602501 C211.969196,64.9336162 211.822442,65.8521609 211.818138,66.175935 L211.786722,68.7413545 C211.432317,68.4684192 211.266842,68.2073319 211.027989,67.8251794 C211.065216,68.5078408 211.131707,68.9442788 211.680422,69.4057053 C211.961234,69.6418041 211.776823,69.7096609 211.816202,70.0569156 C211.844391,70.3100324 211.980601,70.5883532 212.055484,70.8309145 C212.219238,71.359767 212.360613,71.8810799 212.488216,72.4196263 C212.613021,72.9463246 212.511886,73.3536811 212.754826,73.8551755 C213.205203,74.7847066 214.124246,75.4367785 214.498663,76.408747 C214.593343,76.6556167 214.841878,76.9354454 214.561926,77.0513405 C214.291873,77.1633582 214.073248,76.8811599 213.880014,76.6827594 C213.457396,76.2489064 213.082334,75.7629222 212.657349,75.3275613 C212.654551,75.5464265 212.616895,75.7547363 212.712866,75.9527059 C212.822609,76.1804033 213.068562,76.4063774 212.815938,76.5427373 C212.435711,76.7482466 212.398269,77.3428018 212.548897,77.7607138 C212.773547,78.3837043 212.855962,78.4808581 213.383374,78.8655956 C213.889482,79.2346076 214.291227,79.7031429 214.804437,80.0738782 C215.153677,80.3257025 215.796857,80.2632311 216.220766,80.2679704 C216.723001,80.2740021 217.17639,80.147336 216.732039,79.6152521 C216.48587,79.3214212 215.785237,79.5659213 215.415985,79.3963869 C214.815626,79.121082 214.462512,78.4692255 214.256583,77.8856566 L214.814981,77.7210768 C214.897611,77.6969499 215.09192,78.1738866 215.249649,78.215247 C215.6699,78.3259721 215.846779,78.8912304 216.275853,79.0454701 C216.624878,79.1712745 217.08709,79.2231904 217.293019,79.544164 C217.441279,79.7746619 217.587388,80.0116223 217.756306,80.2281179 C217.980311,80.5137629 218.391309,80.6479687 218.662008,80.8898837 C219.406969,81.5568195 220.341505,81.8801628 221.270231,82.212769 C221.684242,82.3605462 221.897487,82.4208634 222.332801,82.4019065 C222.852251,82.3792876 222.931438,82.7642405 223.221073,83.1873226 C223.723954,83.9212536 224.617175,84.188588 225.398932,84.5920669 C226.065782,84.9363058 226.774592,85.3268596 227.481035,85.5750218 C228.264729,85.8501113 229.144824,85.9595439 229.954554,86.146958 C230.293897,86.2253704 230.696933,86.5963211 230.993239,86.7772727 C231.320531,86.9778274 231.60328,87.1014776 231.965002,87.2335292 C232.17545,87.3102182 232.975497,87.4616575 233.084164,87.6596271 C233.261474,87.9834012 233.436633,88.5706322 233.764786,88.7535225 C234.314361,89.0583398 234.237756,89.1272737 234.260565,89.7606042 C234.282944,90.407937 235.156369,90.0180294 235.22329,89.6151967 C235.237923,89.5288139 234.856835,89.2965927 235.085789,89.1854367 C235.270631,89.0956072 235.728753,89.2933614 235.819345,89.0331358 C235.840698,88.9714432 235.846729,88.9085346 235.848295,88.8494665 L235.848689,88.7379491 C235.849853,88.600082 235.870724,88.5134965 236.117157,88.5740789 C236.441222,88.6535683 236.760767,88.7849736 237.089996,88.8388283 C238.054227,88.9958684 238.94917,88.7265952 239.898984,88.548444 C241.514142,88.2455656 242.708618,87.0549472 243.525235,85.6919941 C243.705988,85.3910543 244.030913,84.6612163 244.345509,84.5117158 C244.442556,84.4656162 244.54154,84.6379511 244.708306,84.5162396 C244.826011,84.4300722 244.918109,84.2932814 245.002245,84.1773862 C245.152658,83.9710152 245.26778,83.7801544 245.370207,83.5490103 C245.493506,83.2711204 245.532885,83.2648732 245.439711,83.023389 C245.316196,82.7026308 245.954211,82.4540378 246.127218,82.2737325 C246.326907,82.0662844 246.204468,81.60335 246.375753,81.4534186 C246.487863,81.3554032 246.93867,81.3762988 247.087146,81.3554032 C247.581204,81.2879772 248.143905,81.2205512 248.611712,81.051663 C248.847982,80.9663573 249.297712,80.8577863 249.46577,80.6753268 C249.633397,80.4926519 249.703331,80.0523364 249.793062,79.8177456 C250.579553,80.2679704 251.432965,79.8211923 251.525924,78.8867066 C251.534962,78.794292 251.477078,78.4332506 251.575201,78.4338968 C251.789737,78.4364818 252.004704,78.4446677 252.219456,78.4371281 C252.663162,78.421618 253.103425,78.4074003 253.547561,78.4132166 C253.975988,78.4179558 254.383759,78.4629783 254.809174,78.5164021 C254.984978,78.537944 255.163149,78.5508691 255.340028,78.5678871 C255.527237,78.5857669 255.698737,78.3694867 255.881642,78.3511761 C256.233034,78.3160629 256.707296,78.5889982 257.070739,78.6301431 C257.530798,78.6816281 257.921354,78.7884757 258.365705,78.9254819 C258.09393,79.0659348 257.504331,79.2167278 257.586961,79.6413178 C257.5861,79.6365786 258.142131,80.5833431 258.049818,80.5596471 C259.098185,80.8353828 260.086948,81.0038401 260.98684,81.6589279 C261.183301,81.8019659 261.934072,82.2558527 261.99174,82.4622237 C262.077813,82.7767348 261.466481,83.6166517 261.304448,83.8527505 C260.847186,84.516455 260.435328,85.2036402 259.937826,85.8389095 C259.683481,86.1633298 259.379429,86.4020136 259.063971,86.6689172 C258.87375,86.8300503 258.94433,87.61482 258.964772,87.872676 C258.983278,88.1061898 258.875041,88.1830942 258.730869,88.3709392 C258.63662,88.4928661 258.697516,88.8041459 258.695795,88.9536463 C258.691276,89.3362297 258.233153,89.6802531 257.914683,89.8209214 C257.078055,90.1931647 257.850344,91.5309139 258.055413,92.1289158 C258.090487,92.2321013 257.445156,92.7844344 257.33778,92.7949899 C257.094409,92.818686 256.973261,92.7488904 256.969818,93.0063155 C256.96616,93.2598632 256.963793,93.5131954 256.96035,93.7658814 C256.955831,94.1644057 257.442574,93.9356312 257.270858,94.3992119 C257.173166,94.663315 256.963578,94.9562843 256.935604,95.2266346 C256.905264,95.5183113 256.460267,95.7335144 256.63521,96.0344541 C256.85986,96.4196225 256.984881,96.5150529 257.376513,96.7354261 C256.986387,97.0471367 256.878796,97.0882817 256.827368,97.5837443 C256.797457,97.8704664 256.858569,98.3661445 256.562048,98.4510194 C256.157721,98.56713 256.085635,99.0184319 256.555808,99.0604385 C256.743877,99.0774566 256.850392,99.0177856 256.84781,99.2127394 C256.846734,99.3215258 256.903112,99.6709347 256.816393,99.7426691 C256.526973,99.9819991 256.244439,100.216374 255.975677,100.478754 C255.664093,100.782925 255.759418,101.550031 255.693358,101.969451 C255.584691,102.66159 254.817566,103.138096 254.216993,103.429773 C253.615128,103.72145 253.307633,104.638056 252.746007,105.022578 C252.27153,105.346783 251.992224,105.34786 251.655248,105.879728 C251.386056,106.304534 251.183569,106.382946 250.868973,105.966973 C250.71813,105.767711 250.221705,105.590206 249.976827,105.578142 C249.463618,105.552938 249.344622,105.788175 249.142781,106.179806 C249.010444,106.43637 248.761693,106.903828 248.824527,107.196582 C248.918776,107.640775 249.360976,107.498168 249.681382,107.479426 C249.440809,107.701307 248.983762,107.976182 248.843032,108.269366 L248.545435,108.887402 C248.465603,109.05349 248.581371,109.28765 248.524993,109.460415 C248.478944,109.600222 248.305292,109.632319 248.273015,109.797115 C248.231054,110.007794 248.170588,110.221274 248.147994,110.434538 C248.103451,110.849219 248.061491,111.263684 248.005974,111.677288 C247.890206,112.541547 247.703643,113.44889 247.74754,114.325859 C247.769919,114.768113 247.745388,115.102443 248.204372,115.310106 C248.69262,115.531126 249.048962,115.616216 249.581322,115.685581 C249.468782,116.164671 249.292978,116.230159 248.886499,116.520974 C248.636673,116.699771 248.183714,116.992956 248.138956,117.299066 C248.018024,118.124765 247.535585,118.788254 246.864647,119.279839 C246.670768,118.630783 246.267947,117.644166 246.349071,116.960643 C246.388664,116.628468 246.675072,116.239206 246.77341,115.899922 C246.905747,115.444958 246.97439,115.003135 247.044324,114.533522 C247.075956,114.319181 246.439017,114.334691 246.22448,114.309702 C245.691044,114.247877 245.222807,114.057447 244.704648,113.967187 C243.786036,113.806915 242.897333,113.789682 241.968392,113.778049 C241.206647,113.768571 240.43694,113.727857 239.675625,113.755 C238.899678,113.782573 237.847437,113.672925 237.309697,114.273081 C236.794121,114.848464 235.987187,114.968237 235.332603,115.318507 C234.746016,115.632157 234.002347,116.344761 233.365838,116.423389 C232.840793,116.489092 232.581283,116.52162 232.144248,116.805973 C231.856119,116.993171 231.730453,117.498328 231.581977,117.800991 C231.428122,118.114425 231.398212,118.527382 231.26028,118.860419 C231.138057,119.15662 230.741906,119.450881 230.484763,119.645835 C230.005122,120.010108 229.428434,120.725944 229.228315,121.301758 C228.990753,121.988081 229.044119,122.769404 229.055738,123.505705 C229.176886,123.476839 229.297818,123.447973 229.418966,123.419968 C229.462002,124.151099 229.422409,125.002648 229.721297,125.684233 C229.859874,125.998313 229.893658,126.37271 230.109701,126.631213 C230.455499,127.045678 230.565887,127.122798 231.094159,127.204011 C231.394554,127.25011 232.02224,127.132276 232.238713,127.310427 C232.611624,127.617183 232.286484,128.054914 232.007393,128.328495 C231.435653,128.88686 231.199599,129.869815 231.065755,130.619041 C231.025301,130.846738 230.938798,131.042123 230.884142,131.264866 C230.825397,131.508504 230.910179,131.776054 230.839384,132.012583 C230.727489,132.388058 230.375236,132.517309 230.163927,132.861763 C229.938416,133.229267 229.981883,133.648041 229.523329,133.708358 C229.191518,133.751873 229.0807,134.561631 229.007538,134.79773 C228.88639,135.188284 228.693372,135.540708 228.507454,135.902396 C228.324549,136.257406 228.335093,136.628357 228.30131,137.01094 C228.270108,137.364442 227.930551,137.677445 227.927108,137.99411 C227.924741,138.159983 227.979612,138.440242 227.920007,138.593189 C227.844693,138.784696 227.569475,138.910501 227.461023,139.086498 C227.234221,139.453571 227.13201,139.759465 226.846893,140.113829 C226.640533,140.369962 226.239649,140.529802 225.928496,140.635142 C225.592166,140.749529 225.050767,140.855084 224.795776,141.122634 C224.506787,141.426805 224.397905,142.210498 224.172394,142.601482 C224.00283,142.895313 224.006488,143.306116 223.862962,143.625798 C223.668867,144.055342 223.527493,144.477778 223.386548,144.928434 C223.27078,145.298307 223.104014,145.517603 223.18815,145.90471 C223.275084,146.305389 223.345018,146.720285 223.065927,147.038458 C222.946393,147.175034 222.765963,147.188713 222.574585,147.17945 L222.342874,147.163719 C222.227588,147.156745 222.115553,147.155904 222.017559,147.182789 C221.682951,147.274342 221.340596,147.569034 221.071833,147.785099 L220.96268,147.869539 L220.742445,148.031418 C220.526179,148.193461 220.332324,148.365652 220.255432,148.634925 C220.139449,149.040558 220.097058,149.46881 219.677022,149.602801 C218.916138,149.846439 218.910328,151.03081 218.234011,151.300083 C217.666575,151.525627 217.646778,151.563971 217.423634,152.137415 C217.290006,152.4823 216.990258,152.758682 216.802188,153.07901 C216.599917,153.42411 216.386887,153.737544 216.134263,154.04904 C215.760061,154.511543 215.673127,154.606543 215.629015,155.199159 C215.562308,156.0897 215.051036,156.472283 214.530725,157.133402 C214.274013,157.459546 214.141891,157.706416 214.137157,158.108818 C214.136419,158.168458 214.082443,158.206653 214.015324,158.238952 L213.875438,158.300298 C213.830887,158.321198 213.792373,158.344085 213.771777,158.373567 C213.665262,158.526299 213.755639,158.798157 213.645681,158.958859 C213.378855,159.349413 213.166685,159.744275 212.951718,160.164772 C212.704259,160.649464 212.340601,160.988533 212.22806,161.519109 C212.13295,161.96998 212.123482,162.504002 211.614576,162.549025 C211.295246,162.576383 211.101151,163.175031 210.876716,163.425347 C210.537159,163.804484 210.114326,163.809439 209.946053,164.326659 C209.794565,164.792394 209.598749,165.067268 209.278128,165.436926 C209.153752,165.580825 208.973645,165.592673 208.791601,165.644805 C208.657973,165.68358 208.558774,165.960393 208.487979,166.075211 C208.399969,166.217818 208.118941,166.166979 208.011996,166.284382 C207.874709,166.43496 207.860507,166.951103 207.766258,167.166952 C207.582492,167.588957 207.183329,167.678571 206.780938,167.873525 C206.44009,168.039613 206.105697,168.36231 205.769797,168.56308 C205.446163,168.756957 205.083796,168.80241 204.725733,168.917659 C204.394568,169.024076 204.109236,169.367884 203.894054,169.635864 C203.612811,169.985919 203.588065,170.154377 203.162219,170.260793 C202.731209,170.369364 202.415967,170.525758 202.024766,170.740315 C201.371688,171.097695 201.103571,171.74115 200.531832,172.219379 C200.390673,172.337536 200.217128,172.312709 200.03772,172.265371 L199.821313,172.20547 C199.7134,172.177827 199.607194,172.159428 199.508426,172.176295 C198.997368,172.262247 198.773363,172.488221 198.407338,172.845385 C198.026251,173.217844 196.458003,172.867573 196.287148,172.324072 C195.988906,171.3786 196.116293,170.407494 196.067447,169.426047 C196.031942,168.719905 195.137215,168.112424 194.581614,167.809115 C194.185248,167.593266 193.957155,167.544366 193.50183,167.512484 C193.293964,167.498912 192.970545,167.413176 192.791729,167.551259 C192.59247,167.704422 192.44507,168.003422 192.223863,168.110701 C192.039667,168.200315 191.331717,168.701809 191.182166,168.65054 C191.054993,168.606379 190.700373,168.556833 190.66745,168.419611 C190.606338,168.161755 190.576858,168.094329 190.393308,167.906269 C190.191897,167.699251 189.918401,167.046318 190.022549,166.744947 C190.11809,166.468134 190.436129,166.245607 190.439572,165.933466 C190.4428,165.692843 190.445167,165.45179 190.448394,165.210952 C190.452913,164.817167 190.33069,164.632553 189.971551,164.411534 C189.887845,164.359833 189.589387,164.110378 189.526769,164.191591 C189.401103,164.35574 189.322131,164.493177 189.137505,164.582145 C188.319167,164.979377 187.954218,165.445973 187.942813,166.363226 C187.940016,166.583168 187.94561,166.779414 187.889878,166.990955 C187.822741,167.246442 187.770237,167.149934 187.52579,167.167599 C187.084451,167.19905 186.840435,167.1271 186.5338,166.79277 C185.936024,166.14156 185.713956,165.082993 186.167345,164.326874 C186.550799,163.686866 187.522132,163.633873 187.930548,163.007435 C188.15778,162.660612 188.36457,162.304309 188.571791,161.944991 C188.636991,161.832327 188.97827,161.766194 189.094468,161.68175 C189.346877,161.498644 189.438114,161.147727 189.685143,160.935755 C189.688156,161.198135 189.662764,161.446082 189.630487,161.706092 C189.727964,161.687566 190.079357,161.678303 190.088825,161.577272 C190.107761,161.361853 190.194695,161.11326 190.066446,160.931878 C189.740015,160.471097 189.66922,160.278944 190.090762,159.867495 C190.355005,159.609854 190.65583,159.437519 190.974515,159.561169 C191.226924,159.658754 191.413702,159.501283 191.503648,159.267769 C191.538938,159.176217 191.775423,158.476537 191.684616,158.383476 C191.680958,158.38046 191.660731,158.417943 191.663313,158.420959 C191.844281,157.358515 192.099057,156.263758 192.905775,155.518194 C193.332266,155.123547 193.906588,154.838979 194.2044,154.325206 C194.467137,153.871966 194.582905,153.324372 194.8252,152.853897 C195.396509,151.743846 195.679689,150.5291 196.327172,149.454377 C196.490711,149.183381 196.53181,148.815661 196.549375,148.435744 L196.565484,147.979397 C196.574221,147.753706 196.588726,147.535795 196.630364,147.343922 C196.746562,146.809684 196.86814,146.046025 197.515623,146.520807 C197.722629,146.1826 197.314428,146.112158 197.071272,146.054211 C196.799927,145.990232 196.858027,145.838577 196.811978,145.566503 C196.753018,145.215802 196.90967,144.763638 196.954643,144.409921 C197.078373,143.430844 197.13346,142.731811 196.964972,141.766305 C196.829192,140.990152 196.942593,140.224339 196.716867,139.463696 C196.474141,138.645751 196.292097,137.854735 195.955122,137.069749 C195.648487,136.356068 195.307854,135.689778 194.875768,135.040076 C194.396127,134.319501 193.796845,133.892326 193.20036,133.279675 C192.681555,132.747592 192.092817,131.928786 191.443827,131.594241 C190.612363,131.165558 189.795962,131.099424 188.874337,131.088007 C188.538007,131.083914 188.205766,131.160388 187.873524,131.211657 C188.252675,130.905763 186.479359,130.253476 186.143244,130.189065 C185.78432,130.120347 185.215594,130.127456 184.899276,129.951028 C184.583604,129.775462 184.41361,129.324591 184.118165,129.110249 C183.405266,128.593676 182.697101,128.07107 181.988722,127.548249 C181.713504,127.344894 181.523713,126.900917 181.33091,126.618503 C181.10712,126.29042 180.768208,126.029764 180.511281,125.725593 C180.040677,125.168951 179.565125,124.390213 178.785304,124.202799 C178.422077,124.115555 178.047014,124.04899 177.694331,123.92534 C177.123667,123.725216 176.572586,123.777348 176.003644,123.656498 C175.169813,123.478778 174.475205,123.143586 173.706144,122.779314 C173.320537,122.596854 172.944399,122.411594 172.570842,122.206085 C172.17211,121.987004 171.925941,121.557244 171.641901,121.20762 C171.036593,120.462487 170.238698,119.483194 170.156713,118.494854 C170.10593,117.878111 170.151979,117.252966 170.159296,116.647424 C170.16403,116.236406 170.12917,115.274562 170.467006,114.977931 C171.344089,114.206732 172.264638,113.5105 173.044674,112.640209 C173.151189,112.52022 173.479772,112.839686 173.673866,112.650118 C173.885821,112.442885 174.1208,112.259564 174.348247,112.069349 C174.569024,111.885167 174.733424,111.623864 174.913316,111.400475 C174.994655,111.299632 175.388852,111.332217 175.58848,111.337033 L175.621,111.337 L175.637279,111.302286 C175.779121,111.091412 176.333368,110.784098 176.46564,110.680761 C176.698898,110.498517 176.93237,110.316704 177.166058,110.134029 C177.497654,109.875311 178.090266,109.765879 178.489644,109.647829 C178.412824,109.212038 180.10846,109.434781 180.233696,109.627796 C180.232189,109.625426 180.172799,109.622625 180.165698,109.623272 C180.665566,109.696299 181.784514,109.839121 182.148602,109.41927 C182.625876,108.868661 182.986952,108.232745 183.540616,107.759901 C184.040054,107.332942 184.694638,106.880132 185.069485,106.347833 C185.501571,105.739706 185.92548,105.133303 186.348958,104.526038 C186.481511,103.132711 186.766197,101.732059 186.855928,100.338732 C186.91209,99.4701646 186.969329,98.6121525 186.949962,97.7416461 C186.937912,97.2427368 186.927583,97.1966372 187.258318,96.8274098 C187.517613,96.5383181 187.671899,96.2968339 187.855449,95.9523797 C188.29313,95.1312041 188.412771,94.4720234 188.455807,93.5528324 C188.49454,92.730149 188.303243,91.9539959 188.201892,91.137775 C188.15778,90.7819036 187.848778,90.549467 188.247296,90.401259 C188.414923,90.3387876 189.122442,90.0376325 189.224223,90.1772237 C189.652005,90.7633776 190.452483,90.8909054 191.133104,91.070349 C190.609351,90.3172458 191.544963,90.3799326 191.714957,89.7847311 C191.785967,89.5357073 191.705919,89.2162416 191.42898,89.0785891 C190.962465,88.8459371 190.581807,89.2907764 190.423218,89.6593575 C190.18953,90.2011352 190.060206,89.8685289 190.065155,89.4850839 C190.07075,89.023442 190.221377,88.8763111 190.504987,88.538104 C190.708335,88.2955427 190.945896,88.1981735 191.227784,88.0501809 C191.344628,87.9887866 191.348286,87.7992183 191.445549,87.7177901 C191.546254,87.6335615 191.733893,87.593709 191.855256,87.5420086 C191.739918,87.328098 191.583481,87.2040169 191.725501,86.996138 C191.853965,86.8089392 191.820396,86.6342348 191.823194,86.4078299 C191.309338,86.4289409 190.965908,86.4412198 190.498532,86.6467291 C190.3776,86.7001529 190.359739,87.18506 190.336069,87.308064 C190.273021,87.6324844 190.232997,87.693017 189.993069,87.9273924 C189.997803,87.5120654 190.208466,86.2572523 190.003398,85.909136 C189.814468,85.5873006 189.476416,85.1820983 189.561413,84.7934833 C189.656309,84.357907 189.721509,84.0369333 189.999309,83.6980799 C190.541999,83.0356679 191.103194,82.9977542 191.923684,83.0083097 C192.340707,83.0128335 192.471968,83.0061556 192.709529,82.6851819 C192.925357,82.3935052 193.133008,82.1059214 193.328608,81.8008888 C193.060491,81.9247544 192.723301,82.0208311 192.483372,82.1914426 C192.148334,82.4292647 192.213319,82.5623933 191.763588,82.5341735 C191.239619,82.5016453 191.223911,82.5081079 190.95106,82.0514205 C190.750725,81.7168755 190.690905,81.3648816 190.575998,80.9952234 C190.367701,80.3252717 190.195555,79.6551046 190.028574,78.9724432 C189.888706,78.3998607 189.962943,77.7803169 189.846745,77.2027798 C189.694611,76.4477378 189.600146,75.9593839 189.186996,75.3223913 C189.030344,75.0809071 188.682825,74.7254664 188.617194,74.4428373 C188.585777,74.3075545 188.647104,73.6893032 188.747594,73.601197 C188.998066,73.3840551 189.247678,73.1660516 189.496428,72.9478326 C189.654157,72.8086722 189.976715,73.1425709 190.220086,73.1766071 C190.509937,73.2168903 190.650881,73.3254613 190.8269,73.1020722 C190.984844,72.9006559 191.390677,72.2615091 191.540444,72.3476765 C191.437372,72.1755571 191.30482,71.765831 191.095017,71.7449354 C190.778054,71.7134843 190.461736,71.6820332 190.145203,71.650582 C190.253224,71.4403335 190.361676,71.2298696 190.469698,71.0196211 C190.183505,71.2572278 189.882896,71.6079292 189.554528,71.7794023 C189.36818,71.8767715 189.115771,71.9123156 188.914576,71.973279 C188.626877,72.0603081 188.667977,72.0008526 188.519071,71.7356724 C188.133895,71.050426 187.715796,70.382413 187.359239,69.6814411 C186.532939,68.0541693 185.78389,66.3749817 185.338033,64.6083342 C185.774852,64.6425857 186.280531,65.330848 186.589963,65.6750869 C186.819562,65.9310041 186.967177,66.2515469 187.210978,66.4869994 C187.406579,66.6759214 187.681797,66.8215444 187.816716,67.059151 C187.955509,67.3036511 188.065036,67.497097 188.133895,67.7670164 C188.247511,68.2161641 188.393835,68.3395989 188.73038,68.6857765 C188.944056,68.9050726 188.640218,67.5061445 188.586638,67.3549207 C188.406746,66.8469638 188.964498,66.5369765 189.308144,66.1683953 C189.67589,65.7733177 189.909363,65.5042599 190.446027,65.4870265 C190.780851,65.476471 190.909745,65.4926273 191.107282,65.235633 C191.365716,64.8989338 191.37669,64.9088431 191.804903,64.9142285 C192.069577,64.9174598 192.33834,64.9667907 192.601508,64.9950105 C192.895877,65.026677 193.056833,64.8618818 193.308596,64.7059188 L192.856068,64.6775913 L192.442,64.651 L192.41508,64.6629932 C192.101672,64.7385781 190.401915,64.0580783 191.325692,63.9105935 C191.018412,63.4052216 191.119548,63.7266261 190.658412,63.7208098 C190.227833,63.7156397 189.936691,63.6831115 189.748407,63.210914 C189.603159,62.8472875 189.838353,62.5851232 190.013296,62.2921539 C190.117444,62.1178803 190.876392,62.2607028 191.028095,62.2742742 C190.931048,61.6437441 190.912112,61.7268956 190.273236,61.6872586 C189.856213,61.661193 189.438544,61.6652859 189.021737,61.6601159 C188.249663,61.6506375 187.630584,62.2333447 187.111779,62.7404399 C186.708313,63.1344405 185.560531,63.905208 184.972653,63.5422278 C184.469772,63.2318096 184.409737,63.2180229 184.285792,62.6540571 C184.197137,62.251009 184.111709,61.8548543 183.990777,61.4608537 C183.478643,59.8034234 182.975117,58.2459473 182.115249,56.7347861 C181.350276,55.3920823 180.665997,53.9095718 179.725866,52.6814707 C179.425256,52.2885472 178.477163,51.3900365 178.424444,50.8896192 C178.354725,50.2278534 178.188174,49.3390364 178.915059,48.9754099 C178.908604,49.4990924 178.938299,50.0070494 179.213732,50.4755847 C179.277856,50.1149741 179.482925,48.7746398 180.041968,49.4202492 C180.367324,49.7955084 180.416816,50.3291001 180.659541,50.7655381 C180.7766,50.9755712 180.972416,51.1168857 180.969404,51.3639708 C180.962948,51.9012247 180.951974,51.6129947 181.326821,51.7715427 C181.987215,52.0507252 182.087921,52.5031041 182.080174,53.1411739 C182.174424,53.1004598 182.30009,53.1327725 182.397783,53.0995981 C182.396492,53.2092461 182.331292,53.6310357 182.438237,53.65387 C182.690216,53.7075092 182.829008,53.7294819 183.027191,53.8856604 C183.381166,54.1650582 183.739659,54.436701 184.099013,54.7076976 C183.973777,54.4226988 183.616575,54.0663965 183.595702,53.8003546 C183.561058,53.3591774 183.018368,53.1980444 183.79367,53.2075228 C183.92364,53.2090307 183.930956,52.9460047 183.774088,52.9067985 C183.6637,52.8794403 183.116276,52.8068443 183.133491,52.6963346 C183.18452,52.3675135 183.477739,52.3488513 183.79475,52.3530183 L183.986064,52.3559594 C184.049623,52.3563206 184.112385,52.3552962 184.172606,52.3505878 C184.024991,52.2814384 183.75257,52.2174591 183.654017,52.0873463 C183.565146,51.970374 183.476922,51.8534018 183.388697,51.7364295 C183.321991,51.6489696 183.542122,51.568403 183.549438,51.4813739 C183.591399,50.9581223 183.24431,50.5044508 183.249904,50.0223441 C183.256145,49.5113713 183.638954,49.2257263 183.550299,48.6494817 C183.525768,48.4896411 183.722014,48.1245067 183.76419,47.9442013 C183.809163,47.7522634 183.411291,47.8134423 183.688876,47.4472307 C183.29165,47.2712338 183.020951,47.1342276 182.699468,46.8457821 C182.845362,47.0861892 182.887968,47.3550316 182.951662,47.6247356 C183.034077,47.9726366 182.611244,47.8875462 182.414998,47.8851766 C182.478691,48.1167516 182.43544,48.3323856 182.406605,48.565253 C181.80345,48.4295393 181.42021,47.945063 181.106475,47.4610175 C181.103892,47.6667422 181.147144,48.1320463 180.87042,48.2289846 C180.49837,48.3593129 180.366463,47.9030564 180.301908,47.6798828 C180.232189,47.4343056 180.312668,47.164817 180.385399,46.9315187 C180.477067,46.6391957 180.414664,46.4011582 180.53366,46.0935405 C181.015022,46.4086979 181.298848,46.7833108 181.877472,46.7902041 C182.005291,46.7917121 182.010455,46.6077446 182.113097,46.5663843 C182.208853,46.5278243 182.327634,46.5435499 182.428339,46.514253 C182.662887,46.4457499 182.565625,46.2514423 182.711519,46.1392093 C182.823629,46.0534727 182.934663,46.1669983 183.026761,46.0769533 C183.237424,45.8712286 183.579994,46.059289 183.751925,45.9061264 C183.981954,45.7012634 183.750633,45.5054479 184.099013,45.3208342 C184.289234,45.2198029 184.857315,45.0810734 184.849999,44.8389429 C184.83881,44.5041825 184.504417,44.3570516 184.271159,44.1892406 L184.155606,44.7331724 C184.107621,44.9593619 183.936121,44.9136931 183.762253,45.0446676 C183.372128,45.3384985 183.458201,45.4944616 182.941764,45.4882144 C182.975978,45.1409597 183.010192,44.793705 183.044836,44.4466657 C182.914651,44.7988751 182.781238,45.1426831 182.6248,45.4843369 C182.566486,45.3324668 182.507526,45.1805967 182.449427,45.0287267 C182.467717,45.1383747 182.591877,45.497262 182.490957,45.5515475 C182.281154,45.6648576 182.144729,45.6988938 182.054352,45.9173282 C181.988076,46.0760916 181.707694,46.1758304 181.565458,46.264152 C181.469057,46.3240384 181.286582,45.9632123 181.185447,45.9026797 C181.084096,45.8417163 180.717856,45.7012634 180.675895,45.59657 C180.653731,45.5414228 180.815979,45.000076 180.864825,44.9641011 C181.252799,44.6754402 181.424084,45.4158338 181.859612,45.112309 C181.643139,44.6978438 181.524574,44.5916424 181.675847,44.154989 C181.634962,44.272823 182.426187,44.0011802 182.507526,43.9412938 C182.812459,43.7176306 182.834626,43.537806 182.835435,43.2432459 L182.835679,43.0281346 C182.841919,42.5195314 183.240867,42.6718323 183.56407,42.7299953 C183.412582,42.3207 183.478858,42.0895559 183.03795,42.2489657 C183.06786,42.2379793 182.514412,41.6244673 182.401441,41.5367919 C182.431997,42.2922648 182.428554,42.9684636 182.284167,43.7120885 C182.055428,43.6272136 181.775906,43.4415228 181.535548,43.51218 C181.056983,43.6530638 181.075488,43.6679277 180.749272,43.2853443 L181.247419,43.2915915 C181.197282,42.7179319 181.128423,42.8400742 180.561418,42.859031 C180.147623,42.8726024 179.803762,42.8094847 179.808926,42.3452578 C179.812369,42.1009731 180.519027,41.7784915 180.316971,41.5568259 C180.258872,41.4932774 179.81323,41.5505787 179.717904,41.5495016 C179.624515,41.5484245 179.533278,41.9118356 179.496697,42.0003727 C179.437952,41.8993414 179.331652,41.8263145 179.273338,41.725714 C178.942172,42.1871405 178.772178,42.7603693 179.153481,43.2831901 C179.430851,43.662973 179.502291,43.7321224 179.945997,43.8745141 C180.211532,43.9600352 180.474915,44.0552502 180.738728,44.1470185 C180.547216,44.3607137 180.115776,44.9279108 179.801825,44.825587 C179.237187,44.6411887 179.08785,44.4781168 178.65598,44.0761458 C178.294689,43.7394466 177.969118,43.5272593 177.708317,43.1054698 C177.633004,42.9839738 177.440846,42.6377962 177.31518,42.6087146 C177.149274,42.5701547 176.74882,42.8202557 176.570649,42.8598927 C176.445198,42.8878971 175.708414,42.113252 175.56166,41.9926176 C175.198002,41.6940475 175.102891,41.2817364 174.867482,40.8782574 C174.403549,40.081855 174.022892,39.2384914 173.561541,38.4360573 C172.97517,38.6142085 173.285893,39.6318457 173.451153,40.0219687 C173.732181,40.682442 174.164912,41.1027236 174.677261,41.5759981 C175.094499,41.9613819 175.418564,42.4589988 175.794057,42.8870354 C176.134044,43.2745734 176.970242,43.9382779 176.522664,44.4580829 C177.137439,44.4656226 177.308079,44.6504517 177.704659,45.1148941 C178.057988,45.5291439 178.211198,45.6538713 177.726178,46.0599353 C178.051748,46.2279617 178.468986,46.3507503 178.578299,46.7505671 C178.605197,46.8483672 178.618753,47.8089185 178.537845,47.8539409 C177.716494,48.3108437 177.135933,48.2746534 176.221193,48.2634516 C175.588773,48.2556965 175.583178,46.6038671 175.509801,46.147826 C175.387577,45.3893373 174.84166,44.5815177 174.481015,43.9072577 C173.701195,42.4505974 172.677358,41.1376214 171.710759,39.8052576 C170.734478,38.4595379 169.839105,37.057594 168.857659,35.7133822 C167.979715,34.5115621 167.048622,33.3504562 166.156476,32.1596224 C165.621749,31.4459407 165.040111,30.7494926 164.545623,30.0071602 C164.104929,29.3447482 163.714374,28.6261119 163.179216,28.0378038 C163.092928,27.9432351 162.865265,27.7782245 162.866986,27.6418645 C162.869568,27.4249381 163.235163,26.6882066 163.072916,26.5399987 C162.736586,26.2336735 164.804487,26.453185 164.538952,26.0818034 C164.516143,26.0494906 164.433082,25.0184974 163.941176,24.9861846 C163.78472,24.9757727 163.80269,24.9190608 163.851473,24.8546478 L163.915613,24.776126 C163.96607,24.7117279 163.989897,24.6550684 163.843483,24.6447462 C163.722766,24.6363449 162.92444,24.8836454 162.649652,25.0383159 C162.38089,25.1895398 162.164201,24.618896 161.904907,24.7912309 C161.818188,24.8487476 161.978714,25.3360244 161.964297,25.4721689 C161.948589,25.6261932 161.765899,25.4357632 161.79667,25.6052976 C161.847023,25.88448 162.024978,26.4303506 162.02089,26.425396 C161.90878,26.2715871 161.331661,25.6152068 161.21783,25.4631213 C161.099049,25.3050041 161.343927,25.1440864 161.223209,24.9870463 C161.073873,24.7918771 160.337304,23.8765637 160.186246,23.6820407 C160.104908,23.5769165 160.582397,23.0424631 160.501058,22.9373388 C160.360974,22.7568181 160.217663,22.9250599 160.096085,22.7283828 C160.014531,22.5974083 159.597938,22.9547877 159.517245,22.8233824 C159.417831,22.6616031 159.460867,22.5659572 159.3522,22.4132255 C159.267203,22.2943144 159.761477,21.9128082 159.665506,21.8048835 C159.58223,21.7122535 159.450323,21.6616301 159.464525,21.5302248 C159.489056,21.3128675 158.915165,21.4373794 158.761525,21.2796931 C158.486737,20.9977102 158.282745,20.5449004 157.98816,20.3096633 C157.683462,20.0664558 157.534771,19.7588381 157.257617,19.5078755 C157.118824,19.3818556 156.297259,19.1130133 156.706105,18.7504638 C156.804228,18.6630039 157.055991,18.3420303 157.181442,18.3280281 C157.318728,18.3129488 157.472153,18.5580951 157.621705,18.5600338 C158.070575,18.5656347 158.491041,18.5682197 158.769487,18.12058 C158.936253,17.8517376 158.96853,17.3713543 159.076982,17.0583511 C159.243103,16.578614 159.229116,16.244069 159.211256,15.7307266 C159.182421,14.9201066 158.643175,14.1200421 158.238848,13.4543988 C157.401789,12.0770125 156.567743,10.7435717 155.624169,9.43425776 C155.13549,8.75633558 154.678873,8.07152 154.161791,7.41449342 C154.062161,7.28782731 153.899914,7.14263521 153.831701,6.99528892 C153.777045,6.8765933 153.820942,6.66268268 153.728629,6.56789851 C153.415969,6.24735571 153.092335,5.93736841 152.809586,5.58946745 C152.216974,4.85984482 151.615109,4.07335169 150.838301,3.55742426 C150.57664,3.38336607 150.651739,3.32757267 150.295827,3.28341186 C150.15768,3.2663938 149.995648,2.9146153 149.916676,2.80281307 C149.812958,2.65589762 149.802845,2.39610285 149.676963,2.27352969 C149.546993,2.14707901 149.175158,2.09925609 149,2.03872347 C149.488679,1.72098111 149.491691,1.47863524 149.647914,0.912730706 C150.263119,1.11716291 150.894679,1.36080129 151.544314,1.43447444 C151.984147,1.48466696 152.346083,1.37157222 152.752347,1.21991756 C152.964947,1.14042812 153.027996,0.494818717 153.171952,0.503866296 C153.913255,0.550181285 154.64552,0.625577778 155.383165,0.708944757 C155.496135,0.721654452 155.858717,0.129253436 156.04528,0.0387776441 C156.364826,-0.116108294 156.663929,0.230930992 156.946678,0.41252883 Z" id="NZ" fill-rule="nonzero"></path>
            <path d="M172.75,110.6 C174.45623,110.597631 176.088277,111.04155 177.646139,111.931757 C179.205448,112.825455 180.41237,114.015379 181.266906,115.501529 C182.122302,116.974124 182.55,118.706948 182.55,120.7 C182.528339,122.746975 182.063532,124.377824 181.155579,125.592549 L151.306372,166.9 L174.25,166.9 C177.069547,166.927285 179.111911,167.284334 180.377092,167.971147 C181.76856,168.730856 182.723047,169.827259 183.240554,171.260356 C183.713518,172.547362 183.95,174.19391 183.95,176.2 C183.943812,178.183713 183.7636,179.777769 183.409365,180.982166 C183.023024,182.25911 182.566353,183.236368 182.039352,183.913941 C181.474496,184.6684 180.617187,185.213523 179.467424,185.549308 C178.328917,185.983103 176.523109,186.2 174.05,186.2 L132.45,186.2 C130.74377,186.202369 129.112433,185.758855 127.555991,184.869457 C125.952169,183.951693 124.741144,182.776577 123.922916,181.34411 C123.074305,179.875408 122.65,178.127371 122.65,176.1 C122.669009,174.123073 123.13382,172.525552 124.044432,171.307436 L153.893683,129.999925 L132.483157,129.9991 C131.01012,129.990008 129.905954,129.937508 129.170661,129.8416 C128.327897,129.737194 127.320737,129.428713 126.149181,128.916157 C125.145847,128.444606 124.355371,127.650525 123.777752,126.533915 C123.025917,125.122422 122.65,123.111117 122.65,120.5 C122.668158,117.724662 123.031883,115.606075 123.741174,114.144238 C124.289981,113.047704 125.006175,112.270365 125.889758,111.81222 C127.015965,111.221985 128.009599,110.870712 128.870661,110.7584 C129.665088,110.6528 130.891535,110.6 132.55,110.6 Z M108.1,110.8 C110.113472,110.805743 111.738379,110.985235 112.974721,111.338476 C114.302104,111.732371 115.2891,112.195569 115.935707,112.72807 C116.644878,113.288839 117.166025,114.1402 117.499148,115.282155 C117.933049,116.420638 118.15,118.226586 118.15,120.7 L118.15,176.2 C118.147747,177.861766 118.094691,179.07347 117.99083,179.835113 C117.88704,180.663064 117.534759,181.640642 116.933986,182.767849 C116.48687,183.658999 115.710795,184.372658 114.605762,184.908826 C113.149263,185.636275 111.030675,186 108.25,186 C105.471182,185.979828 103.547385,185.755987 102.478609,185.328477 C101.310004,184.861848 100.33381,184.119035 99.5500283,183.100038 L98.5684849,181.791442 C85.7844683,164.749419 76.8449734,152.900019 71.75,146.24324 L71.75,176.2 C71.7477472,177.861766 71.6946905,179.07347 71.5908302,179.835113 C71.4870405,180.663064 71.134759,181.640642 70.5339858,182.767849 C70.0868697,183.658999 69.3107951,184.372658 68.205762,184.908826 C66.7492628,185.636275 64.6306755,186 61.85,186 C59.1729475,185.982049 57.1191264,185.622505 55.6885368,184.92137 C54.6001439,184.372571 53.8247035,183.652196 53.3622157,182.760246 C52.7715118,181.63444 52.4200139,180.622369 52.3077221,179.724035 C52.202574,178.895815 52.15,177.687803 52.15,176.1 L52.15,120.3 C52.1763215,117.548895 52.5333703,115.539864 53.2211466,114.272908 C53.9828224,112.869677 55.1253965,111.927514 56.6488686,111.446417 C57.9921944,111.015472 59.7259049,110.8 61.85,110.8 C63.9762428,110.807526 65.6595183,111.006195 66.8998266,111.396006 C68.2133928,111.832701 69.1472902,112.313585 69.7015185,112.838657 C70.0327147,113.103353 70.8391958,114.011507 72.1209617,115.563119 C84.6075921,132.545645 93.4172715,144.407919 98.55,151.149938 L98.55,120.3 C98.5764324,117.551155 98.9151698,115.561859 99.5662121,114.332112 C100.373015,112.886727 101.533901,111.924828 103.048869,111.446417 C104.394819,111.015472 106.07853,110.8 108.1,110.8 Z" id="Combined-Shape"></path>
        </g>
    </g>
</svg>