<?xml version="1.0" encoding="UTF-8"?>
<svg width="247px" height="207px" viewBox="0 0 247 207" version="1.1" xmlns="http://www.w3.org/2000/svg" xmlns:xlink="http://www.w3.org/1999/xlink">
    <title>Group 5</title>
    <g id="Page-1" stroke="none" stroke-width="1" fill="none" fill-rule="evenodd">
        <g id="Group-5" transform="translate(1.3207, 1.6681)" fill="#EEFFEE" stroke="#008001" stroke-width="2">
            <path d="M85.0782395,69.3329255 C85.1906663,69.4828127 85.2967522,69.6233323 85.3968548,69.7585436 L85.4949763,69.8921356 C85.6712579,70.1343617 85.8278297,70.3632932 85.9668955,70.6039426 L86.0410268,70.7365184 C86.9945775,72.5013595 87.0658621,75.1051583 87.0711912,87.8132065 L87.0711027,95.3890297 L87.0710114,95.6048541 L87.0703915,96.6498296 C87.06303,106.385814 87.0116157,108.468375 86.6525346,109.62636 L86.6260373,109.708553 C86.6080103,109.7624 86.5892539,109.814477 86.5697386,109.865535 L86.5351378,109.953186 C86.5292424,109.967673 86.5232822,109.982111 86.5172565,109.996519 L86.4803105,110.082745 L86.4417585,110.169114 C86.4155142,110.226933 86.3881764,110.285429 86.3596995,110.345763 C84.9358551,113.434295 82.016974,114.583516 78.5997474,113.434295 C77.6030563,113.14699 75.1825208,111.782289 73.1179463,110.417589 C71.1245641,109.052889 69.3447586,107.975494 69.2023742,107.975494 C69.055675,108.012495 66.4717701,112.300177 63.8254607,116.802733 L63.5139855,117.333194 L63.1251409,117.996833 C61.4435316,120.87025 59.8216737,123.686315 58.874131,125.400621 L58.707004,125.704348 C58.4682346,126.140433 58.2840762,126.487099 58.1675798,126.722167 C56.1030054,130.959921 55.2486988,135.772285 55.960621,139.148123 C57.0996965,144.678751 61.0152687,148.41372 67.6361453,150.353031 C67.6717414,150.363506 67.7075539,150.373793 67.7436675,150.383899 L67.8529973,150.413671 C69.5458519,150.861926 72.0559958,150.933627 83.6543951,151.071294 L97.6792627,151.143121 L97.6792627,172.33189 L84.2317733,172.33189 C83.6512843,172.33189 83.0695631,172.329242 82.489709,172.326096 L81.7949784,172.321744 C75.554039,172.277478 69.675458,172.097874 68.0632986,171.972758 C43.6443667,169.458836 31.0433435,154.231653 35.5996457,132.683753 C37.0946823,125.716598 39.0168723,121.478845 47.3463622,107.25723 C50.4788199,101.798429 53.0417399,97.3451962 52.9705477,97.2733698 C52.8993555,97.2015435 50.4076277,95.6213641 47.4887466,93.6820531 C41.152639,89.4442992 40.0135634,88.1514252 40.0135634,85.1347191 C40.0135634,83.6263661 40.1559479,83.0517554 40.9390623,82.0461867 C41.4374079,81.3997497 42.4340989,80.4660074 43.1460211,80.0350494 C43.3033559,79.9323377 43.8914179,79.6560434 44.8041616,79.2501932 L45.2480961,79.0538388 C47.9019439,77.8855895 52.6842266,75.8698615 57.6719363,73.8050294 L58.482251,73.4698874 L59.3620425,73.106723 L60.241605,72.7443981 C62.2186255,71.9308328 64.1763135,71.130947 65.995911,70.3940455 L66.597166,70.150812 C70.5692648,68.5457089 73.7942724,67.2786923 74.9689441,66.8908301 C78.6709396,65.5979561 82.8712807,66.6035248 85.0782395,69.3329255 Z M123.665275,18.5883989 C129.673972,19.5286829 135.754201,22.638853 141.190641,27.4126025 C141.304771,27.5133762 141.418143,27.6144057 141.530819,27.7157769 L141.866824,28.0210025 L142.199038,28.3287964 C146.770191,32.60676 150.362022,37.7703548 157.499961,49.9794183 C160.003585,54.3915201 162.22108,57.9356674 162.364145,57.9356674 C162.507209,57.9356674 165.010833,56.3444176 167.943649,54.4638496 C173.880814,50.5580546 175.812181,49.8347592 178.17274,50.5580546 C179.961043,51.1366909 180.962492,52.0046453 181.89241,53.8852133 L182.679263,55.4764632 L182.679263,91.207255 L181.606281,93.4494706 C180.390235,95.9086749 179.102657,97.0659475 176.742098,97.8615724 C176.381576,97.9917656 176.046806,98.1011279 175.708121,98.1815352 L175.538316,98.2192883 C173.09582,98.7247531 170.198341,97.6735156 155.926255,92.0752094 C147.556999,88.8203801 140.11766,85.7825395 139.402339,85.4208918 C136.970247,84.1189601 135.325009,81.8044149 135.325009,79.6345288 C135.325009,77.1753245 137.256375,75.0054384 142.621283,71.3889615 L146.126357,69.0020867 L140.618384,59.7439059 C135.8515,51.6569753 133.986733,48.6062285 132.178309,46.4809542 L132.016436,46.2929958 C131.935498,46.2001442 131.854504,46.1089021 131.773196,46.0189004 L131.614512,45.8452271 C131.48183,45.7016362 131.34789,45.5606778 131.211601,45.4207782 L131.046859,45.2533062 C130.770177,44.9746976 130.482362,44.6978065 130.174697,44.4100439 C123.450679,38.1173741 115.152955,38.1173741 108.428937,44.5547029 C106.49757,46.3629414 103.993946,49.7624297 101.41879,54.1022019 C101.132662,54.5361792 99.9881482,53.9575429 92.8349376,49.6177706 C88.3284149,46.8692482 84.6087454,44.4823734 84.6802775,44.2653848 C84.7518096,44.0483962 85.681727,42.4571463 86.7547086,40.7212374 C94.9809008,27.6295911 104.637735,20.2519782 115.796744,18.5160693 C117.585046,18.2267512 121.662376,18.2990807 123.665275,18.5883989 Z" id="recycle-icon" fill-rule="nonzero"></path>
            <path d="M65.7896917,104.1653 L52.2236711,116.265909 C46.921928,120.994955 38.7903673,120.530691 34.0613221,115.228948 C32.1781915,113.117766 31.0435348,110.444682 30.8330101,107.623521 L29.4802213,89.4953215 C29.1128297,84.5720483 26.3463792,80.1448021 22.0824244,77.6563718 L6.38192987,68.4936135 C0.246011875,64.9127115 -1.82523778,57.0356724 1.75566428,50.8997544 C3.18159827,48.4563997 5.37322374,46.5512488 7.99125156,45.4792411 L24.8141595,38.5907407 C29.3829403,36.7199554 32.7386214,32.7208104 33.7876248,27.8965811 L37.6502061,10.1330755 C39.1597434,3.19091107 46.0112014,-1.21310333 52.9533658,0.296433971 C55.717772,0.897539644 58.2069278,2.39317531 60.0354827,4.55179915 L71.7854004,18.4226717 C74.9764538,22.189736 79.8168293,24.1453746 84.7291038,23.6522673 L102.816805,21.8365753 C109.885668,21.1269838 116.191352,26.2821922 116.900943,33.3510556 C117.183506,36.1659141 116.530264,38.9954187 115.042345,41.4015292 L105.481286,56.8627003 C102.884684,61.0616594 102.52052,66.2694556 104.507469,70.7889277 L111.823702,87.430274 C114.682962,93.9338868 111.728631,101.523995 105.225018,104.383256 C102.635245,105.521828 99.7423636,105.774923 96.9942243,105.103357 L79.335247,100.788014 C74.5394056,99.6160487 69.4739641,100.879005 65.7896917,104.1653 Z M206.171877,203.791789 C210.270388,203.791789 213.832634,203.647909 216.858615,203.360149 C219.884595,203.072388 222.270897,202.705079 224.01752,202.25822 C226.601829,201.603842 228.909447,200.433951 230.940371,198.748546 C232.971296,197.063142 233.986758,194.705201 233.986758,191.674724 C233.986758,190.479412 233.856021,189.423656 233.594546,188.507457 C233.333071,187.591258 233.007266,186.794902 232.617129,186.118389 C232.116315,185.324281 232.218691,184.756369 232.924258,184.414653 C234.935814,183.545146 236.646812,182.211488 238.057253,180.413677 C239.467695,178.615866 240.172915,176.466655 240.172915,173.966045 C240.172915,171.071839 239.426536,168.664958 237.933779,166.745403 C237.232363,165.831625 237.398725,165.059652 238.432864,164.429485 C239.875125,163.585572 241.044324,162.310019 241.940463,160.602825 C242.836601,158.895631 243.28467,157.002361 243.28467,154.923015 C243.28467,153.41919 243.061241,151.958426 242.614382,150.540721 C242.167524,149.123017 241.543582,148.018494 240.742556,147.227153 C239.960899,146.508444 240.02523,145.738546 240.935549,144.917461 C241.93026,144.046571 242.715375,142.902446 243.290896,141.485088 C243.866417,140.067729 244.154177,138.464987 244.154177,136.67686 C244.154177,133.538473 243.070061,130.84608 240.901827,128.599681 C238.733594,126.353282 236.046735,125.230083 232.84125,125.230083 L210.359622,125.230083 C207.636274,125.230083 205.427401,124.57899 203.733004,123.276805 C202.038607,121.97462 201.191409,120.17802 201.191409,117.887004 C201.191409,115.797974 201.731132,113.32071 202.81058,110.455211 C203.890027,107.589712 205.126671,104.540732 206.52051,101.308269 C207.91435,98.0758064 209.149956,94.8492235 210.227328,91.6285204 C211.3047,88.4078173 211.843386,85.3749193 211.843386,82.5298266 C211.843386,79.513876 210.97803,77.1552436 209.247317,75.4539293 C207.516604,73.7526151 205.37189,72.9019579 202.813174,72.9019579 C200.500023,72.9019579 198.65846,73.6210131 197.288485,75.0591234 C195.91851,76.4972338 194.599205,78.4555264 193.330569,80.9340014 C188.582522,90.1167406 183.318789,98.4870409 177.53937,106.044902 C171.759951,113.602764 166.465436,120.571961 161.655825,126.952495 C158.887515,130.628358 156.60186,134.220175 154.798861,137.727947 C152.995862,141.235718 151.657361,144.957408 150.783358,148.893016 C149.909355,152.828624 149.468203,157.299114 149.459902,162.304485 C149.45091,168.156536 150.547824,173.602021 152.750643,178.640941 C154.953463,183.679861 158.148399,188.070801 162.335452,191.813762 C166.522504,195.556723 171.574394,198.485515 177.491122,200.600139 C183.40785,202.714763 190.076317,203.776571 197.496523,203.785564 L206.171877,203.791789 Z M156.640078,197.672038 C150.992088,193.435181 146.88545,188.256531 144.320162,182.136089 C141.754875,176.015646 140.478457,169.360841 140.490908,162.171672 C140.535179,156.890992 141.131106,152.104208 142.278689,147.811321 C143.426272,143.518433 144.886518,139.695924 146.659426,136.343791 C148.432335,132.991659 150.271304,130.092611 152.176333,127.646648 L143.324587,127.646648 C138.52051,127.646648 134.206352,129.204947 130.382113,132.321544 C126.557874,135.438142 123.526532,139.653036 121.288088,144.966228 C119.049644,150.27942 117.930422,156.220358 117.930422,162.789043 C117.930422,169.149517 119.141472,174.975109 121.563571,180.265819 C123.985669,185.556529 127.287997,189.780244 131.470553,192.936962 C135.653109,196.09368 140.389915,197.672038 145.680972,197.672038 L156.640078,197.672038 Z" id="Combined-Shape"></path>
        </g>
    </g>
</svg>