<?xml version="1.0" encoding="UTF-8"?>
<svg width="225px" height="186px" viewBox="0 0 225 186" version="1.1" xmlns="http://www.w3.org/2000/svg" xmlns:xlink="http://www.w3.org/1999/xlink">
    <title>changesrr</title>
    <g id="Page-1" stroke="none" stroke-width="1" fill="none" fill-rule="evenodd">
        <g id="changesrr" transform="translate(1, 1)" fill="#EEFFEE" fill-rule="nonzero" stroke="#008001" stroke-width="2">
            <path d="M155.126037,86.9996805 C155.187974,86.987906 155.440045,87.319693 155.823837,87.896141 L155.98424,88.139532 C156.736423,89.291389 157.89015,91.192937 159.104763,93.263553 L159.375541,93.726238 C161.185562,96.826204 163.073835,100.202844 163.932699,101.96824 C171.318932,117.079032 170.608718,132.118209 161.944098,141.499791 C154.557865,149.5923 143.407494,153.387902 127.143576,153.387902 L121.959009,153.387902 L121.816966,159.045497 C121.745945,164.416632 121.674923,164.846323 120.893687,166.20701 C119.6153,168.427079 118.621,169 116.20627,169 C114.856862,169 113.79154,168.785155 113.010303,168.427079 C112.37111,168.069003 105.411006,163.55725 97.527622,158.400961 C95.082337,156.792119 92.95466,155.379705 91.121842,154.149121 L90.606184,153.802461 C85.275602,150.214217 82.579254,148.249933 81.902898,147.515462 C79.275104,144.364396 79.346125,140.855255 82.258006,137.775804 C83.252306,136.701577 88.507895,133.049206 97.811708,126.96192 C105.62407,121.877246 112.442132,117.508723 113.081325,117.150647 C113.862561,116.792572 114.998905,116.577726 116.277291,116.577726 C118.692021,116.506111 119.686322,117.150647 120.964708,119.370716 C121.745945,120.731404 121.745945,121.161094 121.887987,126.603844 L121.959009,132.333054 L128.066856,132.189824 C132.186101,132.046594 134.742874,131.831748 136.092282,131.473673 C146.461417,128.609068 150.509641,120.230098 146.390395,109.917519 C146.021084,108.959923 144.907119,106.81673 143.659901,104.574173 L143.369994,104.055391 C143.029659,103.449241 142.683075,102.841945 142.342172,102.254701 C140.637656,99.31848 139.217227,96.811951 139.217227,96.668721 C139.217227,96.52549 142.7683,94.305421 147.029589,91.727277 C151.290877,89.149132 154.983994,87.072293 155.126037,86.9996805 Z M50.3989768,51.001036 C50.5114036,51.1509232 50.6174895,51.2914428 50.7175921,51.426654 L50.8157136,51.5602461 C50.9919951,51.8024721 51.148567,52.0314036 51.2876328,52.2720531 L51.361764,52.4046288 C52.3153148,54.16947 52.3865994,56.7732688 52.3919284,69.481317 L52.39184,77.05714 L52.3917487,77.272965 L52.3911288,78.31794 C52.3837672,88.053924 52.332353,90.136485 51.9732719,91.29447 L51.9467746,91.376663 C51.9287476,91.43051 51.9099911,91.482587 51.8904759,91.533646 L51.8558751,91.621296 C51.8499796,91.635783 51.8440194,91.650221 51.8379937,91.664629 L51.8010478,91.750856 L51.7624958,91.837224 C51.7362515,91.895044 51.7089137,91.953539 51.6804368,92.013873 C50.2565924,95.102406 47.3377113,96.251627 43.9204847,95.102406 C42.9237936,94.8151 40.503258,93.4504 38.4386836,92.0857 C36.4453014,90.720999 34.6654959,89.643604 34.5231114,89.643604 C34.3764123,89.680605 31.7925074,93.968288 29.146198,98.470844 L28.8347227,99.001304 L28.4458782,99.664944 C26.7642689,102.53836 25.142411,105.354425 24.1948682,107.068732 L24.0277413,107.372459 C23.7889719,107.808543 23.6048135,108.155209 23.4883171,108.390277 C21.4237427,112.628031 20.569436,117.440396 21.2813583,120.816233 C22.4204338,126.346861 26.336006,130.081831 32.9568826,132.021142 C32.9924787,132.031616 33.0282911,132.041904 33.0644048,132.052009 L33.1737346,132.081781 C34.8665892,132.530036 37.376733,132.601738 48.9751324,132.739405 L63,132.811231 L63,154 L49.5525106,154 C48.9720216,154 48.3903004,153.997352 47.8104462,153.994206 L47.1157156,153.989855 C40.8747763,153.945588 34.9961953,153.765985 33.3840359,153.640868 C8.96510398,151.126947 -3.63591922,135.899764 0.920382976,114.351863 C2.41541958,107.384709 4.33760958,103.146955 12.6670995,88.925341 C15.7995572,83.466539 18.3624772,79.013307 18.291285,78.94148 C18.2200927,78.869654 15.728365,77.289475 12.8094839,75.350164 C6.47337618,71.11241 5.33430068,69.819536 5.33430068,66.80283 C5.33430068,65.294477 5.47668508,64.719866 6.25979958,63.714297 C6.75814508,63.06786 7.75483618,62.1341178 8.46675838,61.7031598 C8.62409318,61.6004482 9.21215518,61.3241538 10.1248989,60.9183036 L10.5688333,60.7219492 C13.2226811,59.5536999 18.0049639,57.5379719 22.9926736,55.4731399 L23.8029883,55.1379979 L24.6827798,54.7748335 L25.5623423,54.4125085 C27.5393628,53.5989433 29.4970508,52.7990575 31.3166482,52.0621559 L31.9179033,51.8189224 C35.8900021,50.2138193 39.1150097,48.9468028 40.2896814,48.5589406 C43.9916769,47.2660666 48.1920179,48.2716352 50.3989768,51.001036 Z M88.986013,0.256509296 C94.994709,1.1967933 101.074938,4.3069634 106.511379,9.0807129 C106.625509,9.1814866 106.73888,9.2825161 106.851556,9.3838873 L107.187562,9.689113 L107.519775,9.9969069 C112.090928,14.2748704 115.682759,19.4384653 122.820699,31.6475287 C125.324322,36.0596305 127.541818,39.6037779 127.684882,39.6037779 C127.827946,39.6037779 130.33157,38.0125281 133.264386,36.1319601 C139.201551,32.226165 141.132918,31.5028697 143.493477,32.226165 C145.28178,32.8048013 146.283229,33.6727558 147.213147,35.5533238 L148,37.1445736 L148,72.875365 L146.927018,75.117581 C145.710973,77.576785 144.423395,78.734058 142.062835,79.529683 C141.702313,79.659876 141.367543,79.769238 141.028859,79.849646 L140.859053,79.887399 C138.416558,80.392864 135.519078,79.341626 121.246992,73.74332 C112.877736,70.488491 105.438397,67.45065 104.723076,67.089002 C102.290984,65.787071 100.645746,63.472525 100.645746,61.3026392 C100.645746,58.8434349 102.577113,56.6735488 107.942021,53.0570719 L111.447094,50.6701972 L105.939122,41.4120163 C101.172237,33.3250858 99.30747,30.2743389 97.499046,28.1490646 L97.337173,27.9611062 C97.256236,27.8682547 97.175241,27.7770126 97.093934,27.6870109 L96.93525,27.5133375 C96.802568,27.3697466 96.668627,27.2287882 96.532339,27.0888887 L96.367597,26.9214167 C96.090915,26.6428081 95.803099,26.3659169 95.495434,26.0781543 C88.771416,19.7854845 80.473692,19.7854845 73.749674,26.2228134 C71.818307,28.0310518 69.314683,31.4305401 66.739528,35.7703124 C66.453399,36.2042896 65.308885,35.6256533 58.155675,31.285881 C53.6491522,28.5373586 49.9294827,26.1504839 50.0010148,25.9334952 C50.0725469,25.7165066 51.0024643,24.1252568 52.0754459,22.3893479 C60.301638,9.2977016 69.958472,1.9200887 81.117481,0.184179796 C82.905784,-0.105138404 86.983114,-0.0328088037 88.986013,0.256509296 Z" id="recycle-icon"></path>
            <path d="M208.004333,68.4863892 C212.054423,68.4863892 215.430939,69.7889201 218.133881,72.3939819 C220.836822,74.9990438 222.188293,78.2664388 222.188293,82.196167 C222.188293,83.5858561 221.95639,85.0466207 221.492584,86.5784607 C221.028778,88.1103007 220.288798,89.641276 219.272644,91.1713867 L161.468079,177.520264 C158.596008,181.745361 154.329753,183.85791 148.669311,183.85791 C143.666016,183.85791 139.571309,182.041768 136.385193,178.409485 L104.086853,140.931458 C102.545675,139.213196 101.479889,137.57604 100.889496,136.019989 C100.299103,134.463938 100.003906,132.788737 100.003906,130.994385 C100.003906,127.064657 101.33964,123.785156 104.011108,121.155884 C106.682576,118.526611 110.04543,117.211975 114.09967,117.211975 C118.468648,117.211975 122.064616,118.833394 124.887573,122.076233 L148.403686,149.634827 L195.647583,75.6468506 C197.325724,73.0493978 199.124227,71.2066243 201.043091,70.1185303 C202.961955,69.0304362 205.282369,68.4863892 208.004333,68.4863892 Z" id="Combined-Shape"></path>
        </g>
    </g>
</svg>