<?xml version="1.0" encoding="UTF-8"?>
<svg width="130px" height="150px" viewBox="0 0 130 150" version="1.1" xmlns="http://www.w3.org/2000/svg" xmlns:xlink="http://www.w3.org/1999/xlink">
    <title>Group 5</title>
    <g id="Page-1" stroke="none" stroke-width="1" fill="none" fill-rule="evenodd">
        <g id="Group-5" transform="translate(3, 0)">
            <g id="Group-2" transform="translate(0, 4)" stroke="#1D90FF" stroke-width="5">
                <path d="M46.001,14.82 L58.9075774,34.6955339 C59.0794607,34.960211 59.2231032,35.2350853 59.3392578,35.5166139 L59.3843183,35.5943649 C59.4255072,35.6692731 59.4648323,35.7453509 59.502231,35.8225357 C59.5074125,35.8332257 59.5128433,35.8445389 59.5182327,35.8558757 C59.5503923,35.9235441 59.5808521,35.991517 59.6098186,36.0602733 C59.6154586,36.0736582 59.6211663,36.0873753 59.6268145,36.1011231 C59.6907161,36.2566844 59.7469221,36.4159155 59.7950739,36.5786057 C59.8011688,36.5991874 59.8073309,36.6205203 59.8133542,36.6419113 C59.8304174,36.7025339 59.8462381,36.763093 59.8609407,36.8240879 C59.8676696,36.8520106 59.8741009,36.8797407 59.8803005,36.9075581 C59.9152114,37.0641094 59.9428617,37.2240694 59.9627289,37.3864347 C59.9667261,37.4191094 59.9703936,37.4517404 59.9737456,37.4844649 C59.9802067,37.5475202 59.9855086,37.6111166 59.9896093,37.67504 C59.9965037,37.7825545 60,37.8908689 60,38 L59.9928874,37.7310007 C59.9976092,37.8200688 60,37.9097552 60,38 L60,136 C60,138.688755 57.8776933,140.881818 55.2168896,140.99538 L55,141 L5,141 C2.23857625,141 1.8189894e-12,138.761424 1.8189894e-12,136 L1.8189894e-12,38 L0.00461951385,37.7831104 L1.8189894e-12,38 C1.8189894e-12,37.8908689 0.0034962503,37.7825545 0.0103828512,37.6751625 C0.0144914104,37.6111166 0.0197933239,37.5475202 0.0262741173,37.4842729 C0.0296063671,37.4517404 0.0332738871,37.4191094 0.0372539087,37.386575 C0.057138293,37.2240694 0.0847886135,37.0641094 0.119837533,36.9069391 C0.125899077,36.8797407 0.132330382,36.8520106 0.138991312,36.8243701 C0.153761886,36.763093 0.169582647,36.7025339 0.186498699,36.6424336 C0.19266908,36.6205203 0.198831151,36.5991874 0.205130944,36.5779137 C0.253077872,36.4159155 0.309283914,36.2566844 0.373082295,36.1013743 C0.378833706,36.0873753 0.384541424,36.0736582 0.390308312,36.0599721 C0.419147867,35.991517 0.449607718,35.9235441 0.481520314,35.8563953 C0.487156725,35.8445389 0.492587539,35.8332257 0.498059569,35.8219362 C0.535167713,35.7453509 0.574492775,35.6692731 0.61568174,35.5943649 L0.660742153,35.5166139 C0.776896798,35.2350853 0.920539267,34.960211 1.0924226,34.6955339 L13.998,14.821 L13.9988136,9.89974091 C13.9084073,9.88136649 13.8188873,9.8605527 13.7303253,9.83737123 C13.6317496,9.81156729 13.5344228,9.78285037 13.43838,9.75130256 C13.3283314,9.71515736 13.2198494,9.67524674 13.1132058,9.63176007 C13.0221351,9.59462578 12.9323156,9.55484072 12.8439326,9.51253554 C12.7227711,9.45453882 12.6043648,9.39183847 12.4888949,9.32464601 C12.3063612,9.21840921 12.1314863,9.1011917 11.9648628,8.97373146 C11.6505779,8.7333216 11.3656131,8.45642769 11.116325,8.14939595 C10.9327458,7.92322094 10.7689171,7.68140037 10.6268429,7.42582263 C10.2275428,6.70764879 10,5.88039712 10,5 C10,2.23857625 12.2385763,-8.8817842e-16 15,0 L45,0 C47.7614237,-8.8817842e-16 50,2.23857625 50,5 C50,5.88039712 49.7724572,6.70764879 49.3729731,7.42615365 C49.2310829,7.68140037 49.0672542,7.92322094 48.8841732,8.14878226 C48.6343869,8.45642769 48.3494221,8.7333216 48.0350937,8.97376473 C47.8685137,9.1011917 47.6936388,9.21840921 47.5114529,9.32444362 C47.3956352,9.39183847 47.2772289,9.45453882 47.1561256,9.51250769 C47.0676844,9.55484072 46.9778649,9.59462578 46.886702,9.63179767 C46.7801506,9.67524674 46.6716686,9.71515736 46.561497,9.75134295 C46.4655772,9.78285037 46.3682504,9.81156729 46.2697382,9.83735462 C46.1811127,9.8605527 46.0915927,9.88136649 46.0011864,9.89974091 L46.001,14.82 Z" id="Combined-Shape"></path>
                <rect id="Rectangle" fill="#1D90FF" x="0" y="70" width="60" height="20"></rect>
                <rect id="Rectangle" x="15" y="10" width="30" height="3"></rect>
            </g>
            <g id="Group-4" transform="translate(71, 53)" stroke="#1D90FF" stroke-width="5">
                <g id="Group" transform="translate(1, 0)">
                    <path d="M40,-2.5 C42.0710678,-2.5 43.9460678,-1.66053391 45.3033009,-0.303300859 C46.6605339,1.05393219 47.5,2.92893219 47.5,5 C47.5,6.68865564 46.9399671,8.2463926 46.0012583,9.5005324 L3.99874168,9.5005324 C3.06003286,8.2463926 2.5,6.68865564 2.5,5 C2.5,2.92893219 3.33946609,1.05393219 4.69669914,-0.303300859 C6.05393219,-1.66053391 7.92893219,-2.5 10,-2.5 L40,-2.5 Z" id="Combined-Shape"></path>
                    <rect id="Rectangle" x="-2.5" y="9.5" width="55" height="85" rx="5"></rect>
                </g>
                <line x1="1.5" y1="57.5" x2="52.5" y2="32.5" id="Line" stroke-linecap="square"></line>
                <line x1="1" y1="67" x2="52" y2="42" id="Line" stroke-linecap="square"></line>
                <line x1="1.5" y1="65.5" x2="52.5" y2="40.5" id="Line" stroke-linecap="square"></line>
                <line x1="1" y1="64" x2="52" y2="39" id="Line" stroke-linecap="square"></line>
                <line x1="0.5" y1="63.5" x2="51.5" y2="38.5" id="Line" stroke-linecap="square"></line>
            </g>
            <path d="M116.258707,23 C116.275409,22.9966974 116.343383,23.0897593 116.446877,23.2514453 L116.490132,23.3197132 C116.692968,23.6427938 117.004085,24.1761527 117.331621,24.756933 L117.40464,24.88671 C117.892736,25.7562093 118.401933,26.7033119 118.633537,27.198482 C120.62533,31.4368584 120.433812,35.6551477 118.097285,38.2865568 C116.105492,40.556398 113.09865,41.621014 108.712874,41.621014 L107.314789,41.621014 L107.276485,43.2078942 C107.257334,44.7144262 107.238182,44.8349488 107.027511,45.2166034 C106.682778,45.8393033 106.414652,46 105.763489,46 C105.399603,46 105.112325,45.9397388 104.901655,45.8393033 C104.729288,45.7388677 102.852406,44.4733809 100.72655,43.0271104 C100.067147,42.5758516 99.4933915,42.1796882 98.9991484,41.8345258 L98.8600946,41.7372923 C97.4226343,40.7308375 96.6955292,40.1798819 96.5131411,39.9738726 C95.8045225,39.0900404 95.8236742,38.105773 96.6089005,37.2420279 C96.8770264,36.9407215 98.2942639,35.91628 100.803157,34.2088772 C102.909862,32.7826937 104.74844,31.557381 104.920807,31.4569455 C105.131477,31.3565102 105.437907,31.2962487 105.78264,31.2962487 C106.433803,31.2761617 106.70193,31.4569455 107.046663,32.0796453 C107.257334,32.4613002 107.257334,32.5818226 107.295637,34.1084416 L107.314789,35.7154089 L108.961849,35.6752348 C110.072656,35.6350607 110.762123,35.5747992 111.126009,35.4743639 C113.92218,34.6708803 115.013836,32.3206906 113.903028,29.4281492 C113.803438,29.1595562 113.503043,28.5584191 113.166715,27.9294116 L113.088538,27.7839002 C112.996762,27.6138831 112.903301,27.4435447 112.811372,27.2788306 C112.351727,26.4552596 111.96869,25.7522115 111.96869,25.7120374 C111.96869,25.671863 112.926283,25.0491631 114.075395,24.326028 C115.224506,23.6028926 116.220403,23.0203669 116.258707,23 Z M87.5997239,13.8210381 C87.6300613,13.862045 87.6586876,13.9004891 87.6856995,13.9374808 L87.7121767,13.9740296 C87.7597447,14.040299 87.8019943,14.1029312 87.83952,14.1687692 L87.8595236,14.20504 C88.116831,14.6878739 88.1360665,15.4002339 88.1375045,18.8769641 L88.1374806,20.9495949 L88.137456,21.0086414 L88.1372887,21.2945308 C88.1353023,23.958149 88.1214286,24.5279063 88.0245337,24.8447135 L88.0173836,24.8672003 C88.0125192,24.881932 88.0074579,24.8961795 88.0021919,24.9101484 L87.9928552,24.9341281 C87.9912643,24.9380916 87.989656,24.9420416 87.98803,24.9459834 L87.9780605,24.9695738 L87.9676576,24.9932028 C87.9605758,25.0090215 87.9531989,25.0250248 87.9455147,25.0415313 C87.5613027,25.8865073 86.7736681,26.2009168 85.8515594,25.8865073 C85.582611,25.8079047 84.9294506,25.4345434 84.3723432,25.0611821 C83.8344464,24.6878205 83.3541814,24.3930615 83.3157602,24.3930615 C83.2761747,24.4031844 82.5789306,25.5762297 81.8648471,26.8080611 L81.7807982,26.9531869 L81.6758719,27.1347488 C81.2221043,27.9208721 80.7844601,28.691305 80.528774,29.1603135 L80.4836762,29.2434086 C80.4192464,29.3627146 80.3695528,29.4575572 80.3381173,29.5218682 C79.7810099,30.6812538 79.5504827,31.9978442 79.7425887,32.9214222 C80.0499583,34.4345186 81.1065413,35.45635 82.893127,35.9869162 C82.9027323,35.9897817 82.912396,35.9925964 82.922141,35.995361 L82.9516427,36.0035061 C83.4084447,36.1261419 84.0857851,36.1457585 87.2155119,36.1834221 L91,36.2030726 L91,42 L87.3713124,42 C87.2146725,42 87.0577001,41.9992755 86.9012315,41.9984148 L86.7137645,41.9972245 C85.0297015,41.9851137 83.4434178,41.935977 83.0083906,41.9017469 C76.419155,41.2139761 73.0188789,37.0480486 74.2483573,31.1528682 C74.6517799,29.24676 75.1704661,28.0873745 77.4181062,24.1965556 C78.2633726,22.7031097 78.9549542,21.4847727 78.9357436,21.4651219 C78.9165329,21.4454714 78.244162,21.0131583 77.4565274,20.482592 C75.746784,19.3232065 75.4394145,18.9694957 75.4394145,18.1441705 C75.4394145,17.7315079 75.4778357,17.574303 75.6891523,17.2991945 C75.8236264,17.1223391 76.0925748,16.8668813 76.2846808,16.7489777 C76.3271363,16.7208773 76.4858197,16.6452874 76.7321156,16.5342529 L76.8519074,16.4805333 C77.5680251,16.1609179 78.8584823,15.6094451 80.2043722,15.0445383 L80.4230286,14.9528485 L80.6604326,14.8534922 L80.8977749,14.7543655 C81.4312566,14.5317864 81.9595216,14.3129497 82.4505241,14.1113445 L82.6127676,14.0447995 C83.6846037,13.6056675 84.5548439,13.259031 84.8718188,13.1529177 C85.87077,12.7992069 87.0041953,13.0743153 87.5997239,13.8210381 Z M98.7410444,0.0705400562 C100.396501,0.329118155 102.071667,1.18441493 103.569462,2.49719604 C103.600906,2.52490881 103.63214,2.55269192 103.663184,2.580569 L103.755757,2.66450606 L103.847285,2.74914939 C105.106684,3.92558935 106.09627,5.34557794 108.062846,8.70307036 C108.752619,9.91639835 109.363562,10.8910389 109.402978,10.8910389 C109.442393,10.8910389 110.132167,10.4534452 110.940188,9.93628899 C112.575938,8.86219534 113.108049,8.66328914 113.758407,8.86219534 C114.251103,9.02132032 114.527012,9.26000781 114.783214,9.77716401 L115,10.2147577 L115,20.0407253 L114.704383,20.6573347 C114.36935,21.3336158 114.014609,21.6518659 113.36425,21.8706627 C113.264923,21.9064658 113.17269,21.9365404 113.07938,21.9586526 L113.032596,21.9690346 C112.359664,22.1080375 111.561379,21.8189471 107.629273,20.2794129 C105.323458,19.384335 103.273844,18.5489287 103.076766,18.4494755 C102.4067,18.0914445 101.95342,17.4549443 101.95342,16.8582257 C101.95342,16.1819445 102.485531,15.5852259 103.963618,14.5906947 L104.929301,13.9343042 L103.411799,11.3883044 C102.098473,9.16439856 101.584711,8.32544317 101.086472,7.74099274 L101.041874,7.68930418 C101.019575,7.66377001 100.99726,7.63867844 100.974859,7.61392797 L100.93114,7.56616778 C100.894585,7.52668029 100.857683,7.48791673 100.820134,7.44944437 L100.774746,7.40338957 C100.698517,7.3267722 100.619221,7.25062712 100.534456,7.17149241 C98.6819207,5.44100822 96.3958131,5.44100822 94.5432775,7.21127366 C94.0111662,7.70853922 93.3213923,8.6433985 92.6119108,9.83683587 C92.5330793,9.9561796 92.217754,9.79705462 90.2469717,8.60361724 C89.0053787,7.84777359 87.9805718,7.19138305 88.0002796,7.13171115 C88.0199874,7.07203929 88.2761891,6.6344456 88.5718065,6.15707065 C90.8382064,2.55686793 93.4987627,0.52802439 96.5731835,0.0506494438 C97.0658793,-0.0289130609 98.1892253,-0.00902242099 98.7410444,0.0705400562 Z" id="recycle-icon" fill="#1D90FF" fill-rule="nonzero"></path>
        </g>
    </g>
</svg>