<?xml version="1.0" encoding="UTF-8"?>
<svg width="180px" height="175px" viewBox="0 0 180 175" version="1.1" xmlns="http://www.w3.org/2000/svg" xmlns:xlink="http://www.w3.org/1999/xlink">
    <title>Group 4</title>
    <g id="Page-1" stroke="none" stroke-width="1" fill="none" fill-rule="evenodd">
        <g id="Group-4" transform="translate(0.9956, 1)" fill="#EEFFEE" stroke="#008001" stroke-width="2">
            <g id="Group-3">
                <path d="M159.130431,87 C159.192368,86.9879057 159.444439,87.3196928 159.828231,87.8961409 L159.988635,88.1395321 C160.740817,89.2913891 161.894544,91.1929369 163.109158,93.2635529 L163.379936,93.7262375 C165.189957,96.8262036 167.07823,100.202844 167.937094,101.96824 C175.323327,117.079032 174.613112,132.118209 165.948492,141.499791 C158.562259,149.5923 147.411888,153.387902 131.147971,153.387902 L125.963403,153.387902 L125.821361,159.045497 C125.750339,164.416632 125.679318,164.846323 124.898081,166.20701 C123.619695,168.427079 122.625394,169 120.210664,169 C118.861256,169 117.795934,168.785155 117.014698,168.427079 C116.375505,168.069003 109.4154,163.55725 101.532017,158.400961 C99.0867313,156.792119 96.9590544,155.379705 95.1262366,154.149121 L94.6105781,153.802461 C89.2799969,150.214217 86.5836489,148.249933 85.907293,147.515462 C83.2794985,144.364396 83.35052,140.855255 86.2624003,137.775804 C87.256701,136.701577 92.5122899,133.049206 101.816103,126.96192 C109.628465,121.877246 116.446526,117.508723 117.085719,117.150647 C117.866956,116.792572 119.003299,116.577726 120.281686,116.577726 C122.696416,116.506111 123.690716,117.150647 124.969103,119.370716 C125.750339,120.731404 125.750339,121.161094 125.892382,126.603844 L125.963403,132.333054 L132.07125,132.189824 C136.190496,132.046594 138.747269,131.831748 140.096676,131.473673 C150.465811,128.609068 154.514035,120.230098 150.39479,109.917519 C150.025478,108.959923 148.911514,106.81673 147.664296,104.574173 L147.374389,104.055391 C147.034054,103.449241 146.687469,102.841945 146.346566,102.254701 C144.642051,99.3184803 143.221621,96.8119508 143.221621,96.6687205 C143.221621,96.5254903 146.772695,94.3054213 151.033983,91.7272767 C155.295272,89.1491321 158.988388,87.0722933 159.130431,87 Z M92.9904071,0.256509315 C98.999104,1.1967933 105.079333,4.30696343 110.515773,9.08071294 C110.629903,9.18148665 110.743275,9.28251611 110.85595,9.38388733 L111.191956,9.68911299 L111.52417,9.99690685 C116.095322,14.2748704 119.687153,19.4384653 126.825093,31.6475287 C129.328717,36.0596305 131.546212,39.6037779 131.689276,39.6037779 C131.832341,39.6037779 134.335964,38.0125281 137.268781,36.1319601 C143.205945,32.226165 145.137312,31.5028697 147.497872,32.226165 C149.286175,32.8048013 150.287624,33.6727558 151.217541,35.5533238 L152.004395,37.1445736 L152.004395,72.8753654 L150.931413,75.1175811 C149.715367,77.5767854 148.427789,78.734058 146.06723,79.5296829 C145.706708,79.6598761 145.371938,79.7692383 145.033253,79.8496456 L144.863447,79.8873987 C142.420952,80.3928636 139.523473,79.3416261 125.251387,73.7433199 C116.882131,70.4884905 109.442791,67.4506499 108.72747,67.0890022 C106.295379,65.7870706 104.65014,63.4725254 104.65014,61.3026392 C104.65014,58.8434349 106.581507,56.6735488 111.946415,53.0570719 L115.451488,50.6701972 L109.943516,41.4120163 C105.176632,33.3250858 103.311865,30.2743389 101.503441,28.1490646 L101.341567,27.9611062 C101.26063,27.8682547 101.179636,27.7770126 101.098328,27.6870109 L100.939644,27.5133375 C100.806962,27.3697466 100.673022,27.2287882 100.536733,27.0888887 L100.371991,26.9214167 C100.095309,26.6428081 99.8074934,26.3659169 99.4998288,26.0781543 C92.7758108,19.7854845 84.4780865,19.7854845 77.7540686,26.2228134 C75.8227016,28.0310518 73.3190779,31.4305401 70.7439221,35.7703124 C70.4577937,36.2042896 69.31328,35.6256533 62.1600694,31.285881 C57.6535467,28.5373586 53.9338772,26.1504839 54.0054093,25.9334952 C54.0769414,25.7165066 55.0068588,24.1252568 56.0798404,22.3893479 C64.3060326,9.29770155 73.9628669,1.92008868 85.1218755,0.184179777 C86.9101781,-0.105138374 90.9875082,-0.0328088363 92.9904071,0.256509315 Z" id="recycle-icon" fill-rule="nonzero"></path>
                <path d="M165.092395,66.096 C167.993728,66.096 170.305728,65.8693333 172.028395,65.416 C173.751061,64.9626667 174.975061,64.1693333 175.700395,63.036 C176.425728,61.9026667 176.856395,60.8826667 176.992395,59.976 C177.128395,59.0693333 177.196395,57.664 177.196395,55.76 L177.196395,12.648 C177.196395,10.744 177.128395,9.316 176.992395,8.364 C176.856395,7.412 176.448395,6.324 175.768395,5.1 C175.088395,3.876 173.887061,3.01466667 172.164395,2.516 C170.441728,2.01733333 168.129728,1.768 165.228395,1.768 C162.327061,1.768 160.015061,2.01733333 158.292395,2.516 C156.569728,3.01466667 155.345728,3.85333333 154.620395,5.032 C153.895061,6.21066667 153.464395,7.276 153.328395,8.228 C153.192395,9.18 153.124395,10.608 153.124395,12.512 L153.125301,55.9981511 C153.133763,57.7131615 153.201461,58.9937778 153.328395,59.84 C153.464395,60.7466667 153.872395,61.7893333 154.552395,62.968 C155.232395,64.1466667 156.433728,64.9626667 158.156395,65.416 C159.879061,65.8693333 162.191061,66.096 165.092395,66.096 Z M165.976395,102.136 C171.461728,102.136 174.929728,100.821333 176.380395,98.192 C177.105728,96.7413333 177.536395,95.4946667 177.672395,94.452 C177.808395,93.4093333 177.876395,91.8 177.876395,89.624 L177.876395,87.448 C177.876395,83.7306667 176.992395,81.0106667 175.224395,79.288 C173.456395,77.5653333 170.600395,76.704 166.656395,76.704 C162.712395,76.704 159.811061,77.0213333 157.952395,77.656 C156.093728,78.2906667 154.711061,79.5146667 153.804395,81.328 C152.897728,83.0506667 152.444395,85.68 152.444395,89.216 C152.444395,94.2933333 153.328395,97.716 155.096395,99.484 C156.864395,101.252 160.491061,102.136 165.976395,102.136 Z M85.866394,172.823792 C92.2095744,172.823792 96.9628092,171.222778 100.126099,168.020752 C103.289388,164.818726 104.871033,160.029521 104.871033,153.653137 L104.871033,95.7790527 L59.7033691,95.7790527 C52.0535075,95.7790527 48.2285767,91.951355 48.2285767,84.2959595 L48.2285767,38.5638428 L19.0046387,38.5638428 C12.7167969,38.5638428 7.97739665,40.1745402 4.78643799,43.3959351 C1.59547933,46.6173299 0,51.4162191 0,57.7926025 L0,153.653137 C0,160.029521 1.5927124,164.818726 4.77813721,168.020752 C7.96356201,171.222778 12.7057292,172.823792 19.0046387,172.823792 L85.866394,172.823792 Z M104.09906,87.7314453 C103.938578,86.5077718 103.442952,85.2949931 102.612183,84.0931091 C101.781413,82.8912252 100.682251,81.6061605 99.3146973,80.237915 L63.7697144,44.1782837 C62.4402059,42.8100382 61.1649984,41.7024028 59.9440918,40.8553772 C58.7231852,40.0083516 57.5005493,39.4821167 56.2761841,39.2766724 L56.2761841,84.0967407 C56.2761841,86.5198771 57.4905192,87.7314453 59.9191895,87.7314453 L104.09906,87.7314453 Z M77.456665,123.089661 L27.6550903,123.089661 C26.5192668,123.089661 25.5845642,122.72408 24.8509827,121.99292 C24.1174011,121.261759 23.7506104,120.370117 23.7506104,119.317993 C23.7506104,118.260335 24.1174011,117.365926 24.8509827,116.634766 C25.5845642,115.903605 26.5192668,115.538025 27.6550903,115.538025 L77.456665,115.538025 C78.5585938,115.538025 79.4846497,115.903605 80.2348328,116.634766 C80.9850159,117.365926 81.3601074,118.260335 81.3601074,119.317993 C81.3601074,120.370117 80.9850159,121.261759 80.2348328,121.99292 C79.4846497,122.72408 78.5585938,123.089661 77.456665,123.089661 Z M77.456665,146.648315 L27.6550903,146.648315 C26.5192668,146.648315 25.5845642,146.292592 24.8509827,145.581146 C24.1174011,144.8697 23.7506104,143.96578 23.7506104,142.869385 C23.7506104,141.816569 24.1174011,140.924754 24.8509827,140.193939 C25.5845642,139.463125 26.5192668,139.097717 27.6550903,139.097717 L77.456665,139.097717 C78.5585938,139.097717 79.4846497,139.463125 80.2348328,140.193939 C80.9850159,140.924754 81.3601074,141.816569 81.3601074,142.869385 C81.3601074,143.96578 80.9850159,144.8697 80.2348328,145.581146 C79.4846497,146.292592 78.5585938,146.648315 77.456665,146.648315 Z" id="Combined-Shape"></path>
            </g>
        </g>
    </g>
</svg>