<svg xmlns="http://www.w3.org/2000/svg" width="171" height="171" fill="#008001" stroke="#efe" stroke-width="2" xmlns:v="https://vecta.io/nano"><path d="M89.986 1.257c6.009.94 12.089 4.05 17.525 8.824l.34.303.336.305.332.308c4.571 4.278 8.163 9.442 15.301 21.651 2.504 4.412 4.721 7.956 4.864 7.956s2.647-1.591 5.58-3.472c5.937-3.906 7.869-4.629 10.229-3.906 1.788.579 2.79 1.447 3.72 3.327l.787 1.591v35.731l-1.073 2.242c-1.216 2.459-2.504 3.616-4.864 4.412-.361.13-.695.24-1.034.32l-.17.038a5.35 5.35 0 0 1-1.027.112h-.187a6.94 6.94 0 0 1-.593-.037 54.37 54.37 0 0 1 .492 7.358c0 7.337-1.397 14.238-4.192 20.703s-6.664 12.16-11.606 17.084a56.25 56.25 0 0 1-1.854 1.765l.068 5.461 6.108-.143c4.119-.143 6.676-.358 8.025-.716 10.369-2.865 14.417-11.244 10.298-21.556-.369-.958-1.483-3.101-2.73-5.343l-.29-.519-1.028-1.801c-1.705-2.936-3.125-5.443-3.125-5.586s3.551-2.363 7.812-4.941l7.023-4.123.259-.147.815-.457c.062-.012.314.32.698.896l.16.243c.752 1.152 1.906 3.053 3.121 5.124l.271.463.653 1.125.433.753c1.438 2.508 2.784 4.952 3.471 6.364 7.386 15.111 6.676 30.15-1.989 39.532-7.386 8.093-18.537 11.888-34.801 11.888h-5.185l-.142 5.658c-.071 5.371-.142 5.801-.923 7.162-1.278 2.22-2.273 2.793-4.687 2.793-1.349 0-2.415-.215-3.196-.573-.639-.358-7.599-4.87-15.483-10.026l-6.406-4.252-.516-.347c-5.331-3.588-8.027-5.553-8.703-6.287-1.837-2.203-2.355-4.581-1.506-6.865-5.298-.534-10.353-1.847-15.165-3.941-.755-.328-1.499-.671-2.232-1.028V155H50.553a321.34 321.34 0 0 1-1.742-.006l-.695-.004c-6.241-.044-12.12-.224-13.732-.349C9.965 152.127-2.636 136.9 1.92 115.352c1.495-6.967 3.417-11.205 11.747-25.427l5.624-9.984c-.071-.072-2.563-1.652-5.482-3.591-6.336-4.238-7.475-5.531-7.475-8.547 0-1.508.142-2.083.925-3.089.498-.646 1.495-1.58 2.207-2.011.157-.103.745-.379 1.658-.785l.444-.196 12.424-5.249.81-.335.88-.363.88-.362 5.754-2.35.601-.243 8.372-3.26c2.761-.964 5.8-.65 8.082.705 4.885-4.823 10.505-8.609 16.861-11.358 6.463-2.795 13.346-4.192 20.65-4.192 6.016 0 11.737.939 17.164 2.816-2.739-4.575-4.159-6.75-5.547-8.381l-.162-.188-.243-.274-.159-.174-.403-.424-.165-.167c-.277-.279-.564-.555-.872-.843-6.724-6.293-15.022-6.293-21.746.145-1.931 1.808-4.435 5.208-7.01 9.547-.286.434-1.431-.145-8.584-4.484-4.507-2.749-8.226-5.135-8.155-5.352s1.001-1.808 2.074-3.544C61.302 10.298 70.958 2.92 82.117 1.184c1.788-.289 5.866-.217 7.869.072zM65.008 112.048l.032.361c.255 2.644.654 5.258 1.198 7.842.68 3.23 1.584 6.407 2.711 9.53l.278.753.027.012c5.534 2.392 11.428 3.588 17.682 3.588.913 0 1.819-.026 2.717-.077l3.882-2.616c-1.808-3.052-3.421-6.198-4.84-9.438l-.211-.486-.264-.014c-2.065-.142-3.835-.957-5.31-2.447-.931-.941-1.596-1.99-1.996-3.148l-.009-.029-.188-.027c-5.249-.773-10.392-2.01-15.429-3.708l-.282-.096zM33.583 93.692l-.126.21-.4.664-.279.465-2.633 4.44-.311.53-.389.664-4.251 7.404-.167.304-.539 1.018c-2.065 4.238-2.919 9.05-2.207 12.426 1.139 5.531 5.055 9.266 11.676 11.205l.108.031.109.03c1.693.448 4.203.52 15.801.658l8.8.046c-3.482-2.184-6.691-4.744-9.627-7.679-4.926-4.924-8.795-10.619-11.606-17.084a50.53 50.53 0 0 1-3.959-15.331zm86.903 18.92l-.8.255a84.54 84.54 0 0 1-10.281 2.523c-4.278.77-8.56 1.226-12.847 1.368l-.119.003-.136.269c-.384.724-.887 1.399-1.508 2.026l-.018.019.201.463c1.239 2.81 2.633 5.542 4.181 8.196l-.347.227 15.27-9.811c.781-.358 1.918-.573 3.196-.573 1.741-.052 2.744.269 3.647 1.284.946-1.047 1.841-2.132 2.683-3.255l.321-.436-.588-.412c-.909-.644-1.798-1.31-2.667-1.998l-.187-.149zm-77.663-11.88l.017.056A43.31 43.31 0 0 0 44.709 106c2.393 5.535 5.699 10.412 9.917 14.631 1.758 1.758 3.629 3.357 5.615 4.797l.373.266-.06-.224a82.96 82.96 0 0 1-1.37-6.251c-.562-3.143-.933-6.302-1.111-9.478l-.02-.386-.174-.077a84.49 84.49 0 0 1-14.656-8.261l-.402-.285zm54.565-13.081l-.539.037a68.38 68.38 0 0 1-4.367.139c-1.226.006-2.446-.019-3.659-.076l-.736-.039.001.122a80.13 80.13 0 0 0 1.93 16.685l.073.32.072.009c1.764.251 3.307 1.037 4.627 2.356.855.854 1.485 1.801 1.892 2.843l.006.019.448-.018c4.226-.186 8.443-.708 12.65-1.567 1.503-.307 2.992-.657 4.469-1.05l.392-.107-.122-.125c-1.155-1.194-2.266-2.436-3.332-3.727-2.956-3.58-5.484-7.407-7.583-11.48l-.241-.472-.186-.024c-1.765-.251-3.301-1.037-4.607-2.356a8.78 8.78 0 0 1-1.19-1.489zm-26.686-3.262l-.133.148-.229.237c-1.173 1.175-2.516 1.93-4.029 2.266l-.281.057-.075.384c-1.066 5.586-1.507 11.283-1.323 17.092l.007.183.52.198c5.055 1.893 10.227 3.268 15.518 4.124l.739.116.138-.247a8.62 8.62 0 0 1 1.358-1.744 9.23 9.23 0 0 1 .475-.443l.205-.171-.173-.77a87.47 87.47 0 0 1-2.035-17.965l-.005-.863-.643-.104a66.85 66.85 0 0 1-7.021-1.575c-.911-.256-1.814-.53-2.709-.822l-.304-.101zm57.903-7.165l-.221.142c-4.31 2.755-8.909 4.991-13.797 6.708l-1.647.555-.339.108-.012.081c-.293 1.639-1.053 3.08-2.282 4.321a9.54 9.54 0 0 1-.233.227l-.177.161.115.22c1.917 3.592 4.205 6.955 6.866 10.087 1.533 1.804 3.169 3.502 4.91 5.092l.06.056.258-.097c2.861-1.098 5.67-2.37 8.428-3.815l.488-.259.007-.024c1.146-3.985 1.719-8.141 1.719-12.468 0-3.415-.357-6.723-1.071-9.924l-3.074-1.172zm-75.215-1.447v3.541c-.007 9.736-.059 11.819-.418 12.977l-.026.082a3.96 3.96 0 0 1-.056.157l-.035.088-.018.043-.037.086-.039.086-.082.177c-.886 1.922-2.352 3.094-4.156 3.427 2.835 1.9 5.773 3.606 8.812 5.118l.535.263.002-.163c.048-5.203.552-10.329 1.511-15.378l.122-.626-.041-.03c-.337-.254-.663-.537-.976-.85-1.646-1.645-2.469-3.637-2.469-5.978 0-.329.017-.651.05-.967l.034-.276-.319-.199a68.54 68.54 0 0 1-2.394-1.578zm45.097-28.462l-.287.505a79.66 79.66 0 0 0-6.631 15.569 79.16 79.16 0 0 0-3.213 16.77l-.065.847.141.009c1.339.079 2.689.117 4.05.112a62.41 62.41 0 0 0 3.264-.1l.708-.045c.311-1.118.865-2.142 1.664-3.073l.174-.196c-1.095-4.587-1.664-9.308-1.708-14.161-.033-4.023.288-7.967.963-11.83a60.14 60.14 0 0 1 .727-3.537l.213-.87zm-7.247-4.609l-.345.311c-5.091 4.641-9.506 9.836-13.246 15.585-2.89 4.442-5.316 9.094-7.279 13.955l-.107.268.077.072c1.408 1.395 2.213 3.039 2.414 4.931l.013.163.137.047a59.52 59.52 0 0 0 8.408 2.137l.318.056.024-.325a86.54 86.54 0 0 1 3.244-17.553c1.971-6.716 4.691-13.078 8.159-19.086l.195-.333-.676-.088-.7-.08-.635-.062zM103.43 66.33l.001.023c.162 2.831.526 5.606 1.092 8.324l.062.292.208.003c2.14.074 3.978.887 5.514 2.439a9.56 9.56 0 0 1 .46.498l.202.247.535-.178 1.524-.538c2.598-.957 5.103-2.077 7.514-3.361l-6.253-2.473-.675-.27-7.889-3.247c-.881-.472-1.659-1.076-2.293-1.759zM81.512 42.814l-.296.033a43.12 43.12 0 0 0-11.986 3.248c-5.517 2.392-10.385 5.696-14.603 9.915-.484.484-.956.977-1.416 1.478.131 2.019.168 5.022.178 9.763a59.66 59.66 0 0 0 5.735 4.185l.644.409.213-.141c1.135-.72 2.397-1.128 3.785-1.224l.206-.01.098-.248a87.3 87.3 0 0 1 6.677-13.311c3.021-4.93 6.497-9.509 10.429-13.738l.337-.359zm24.151 3.764l-.234.808c-.489 1.737-.895 3.501-1.22 5.293-.344 1.899-.587 3.805-.73 5.717 1.161-1.246 2.929-2.631 5.463-4.339l3.505-2.387-1.231-2.069a47.55 47.55 0 0 0-5.262-2.889l-.292-.134z"/><path d="M156.126 88c.062-.012.314.32.698.896l.16.243 3.121 5.124.271.463 4.557 8.242c7.386 15.111 6.676 30.15-1.989 39.532-7.386 8.093-18.537 11.888-34.801 11.888h-5.185l-.142 5.658c-.071 5.371-.142 5.801-.923 7.162-1.278 2.22-2.273 2.793-4.687 2.793-1.349 0-2.415-.215-3.196-.573-.639-.358-7.599-4.87-15.483-10.026l-6.406-4.252-.516-.347c-5.331-3.588-8.027-5.553-8.703-6.287-2.628-3.151-2.557-6.66.355-9.74.994-1.074 6.25-4.727 15.554-10.814l15.27-9.811c.781-.358 1.918-.573 3.196-.573 2.415-.072 3.409.573 4.687 2.793.781 1.361.781 1.79.923 7.233l.071 5.729 6.108-.143c4.119-.143 6.676-.358 8.025-.716 10.369-2.865 14.417-11.244 10.298-21.556-.369-.958-1.483-3.101-2.73-5.343l-.29-.519-1.028-1.801c-1.705-2.936-3.125-5.443-3.125-5.586s3.551-2.363 7.812-4.941 7.954-4.655 8.096-4.727zM51.399 52.001l.319.426.098.134c.176.242.333.471.472.712l.074.133c.954 1.765 1.025 4.369 1.03 17.077v7.576.216l-.001 1.045c-.007 9.736-.059 11.819-.418 12.977l-.026.082a3.96 3.96 0 0 1-.056.157l-.035.088-.018.043-.037.086-.039.086-.082.177c-1.424 3.089-4.343 4.238-7.76 3.089-.997-.287-3.417-1.652-5.482-3.017-1.993-1.365-3.773-2.442-3.916-2.442-.147.037-2.731 4.325-5.377 8.827l-.311.53-.389.664-4.251 7.404-.167.304-.539 1.018c-2.065 4.238-2.919 9.05-2.207 12.426 1.139 5.531 5.055 9.266 11.676 11.205l.108.031.109.03c1.693.448 4.203.52 15.801.658l14.025.072V155H50.553a321.34 321.34 0 0 1-1.742-.006l-.695-.004c-6.241-.044-12.12-.224-13.732-.349C9.965 152.127-2.636 136.9 1.92 115.352c1.495-6.967 3.417-11.205 11.747-25.427l5.624-9.984c-.071-.072-2.563-1.652-5.482-3.591-6.336-4.238-7.475-5.531-7.475-8.547 0-1.508.142-2.083.925-3.089.498-.646 1.495-1.58 2.207-2.011.157-.103.745-.379 1.658-.785l.444-.196 12.424-5.249.81-.335.88-.363.88-.362 5.754-2.35.601-.243 8.372-3.26c3.702-1.293 7.902-.287 10.109 2.442zM89.986 1.257c6.009.94 12.089 4.05 17.525 8.824l.34.303.336.305.332.308c4.571 4.278 8.163 9.442 15.301 21.651 2.504 4.412 4.721 7.956 4.864 7.956s2.647-1.591 5.58-3.472c5.937-3.906 7.869-4.629 10.229-3.906 1.788.579 2.79 1.447 3.72 3.327l.787 1.591v35.731l-1.073 2.242c-1.216 2.459-2.504 3.616-4.864 4.412-.361.13-.695.24-1.034.32l-.17.038c-2.442.505-5.34-.546-19.612-6.144l-16.524-6.654c-2.432-1.302-4.077-3.616-4.077-5.786 0-2.459 1.931-4.629 7.296-8.246l3.505-2.387-5.508-9.258c-4.767-8.087-6.632-11.138-8.44-13.263l-.162-.188-.243-.274-.159-.174-.403-.424-.165-.167c-.277-.279-.564-.555-.872-.843-6.724-6.293-15.022-6.293-21.746.145-1.931 1.808-4.435 5.208-7.01 9.547-.286.434-1.431-.145-8.584-4.484-4.507-2.749-8.226-5.135-8.155-5.352s1.001-1.808 2.074-3.544C61.302 10.298 70.958 2.92 82.117 1.184c1.788-.289 5.866-.217 7.869.072z"/><path d="M100.186 89.025c.399-.072.642.019.988.171.165.072.968.273.652.58-.153.15-.648-.249-.875-.302-.385-.089-.722-.13-1.12-.119-.405.011-.576.248-.711.63-.072.206-.018.874-.295.789.035.246.098.449.181.684.029.082-.119.167-.104.242.011.06.234.174.283.224.296.304.555.724.976.856.503.158.785.02 1.192-.264.201-.14.484-.024.482.21-.003.288-.01.428-.14.681a3.35 3.35 0 0 0 .529-.126c-.004.272-.117.529-.12.791-.003.255.033.443-.117.669-.235.358-.18.633-.107 1.049.063.358.1.779.287 1.092l.637.985-.332.15c.345.28.692.572 1.135.652.025-.545.541-.588.867-.952.14-.157.115-.355.293-.529.222-.217.552-.385.799-.586-.125.455.362.146.505.006s.153-.345.314-.503c-.008.015-.014.03-.017.047v-.003l.013-.027c.076-.122.463-.495.641-.552l.051-.006c.232.038.191.408.207.568.022.219.375-.21.458-.26.133-.08.646-.207.348-.427-.107.116-.451.35-.406.008.047-.361.17-.277.439-.474.205-.15.441-.213.67-.324.148-.072.174-.399.368-.518.003.184-.014.366-.029.55.311-.035.497-.042.529-.38.023-.243.416-.394.599-.494.161-.088.336.14.341.264.021.458-.185-.012-.385.028.073.164-.01.241-.178.196.256.329-.233.277-.422.391l.24.157c-.257.132-.879.761-.926.187-.176.034-.217.107-.289.239-.037.068.117.06.024.15-.064.062-.115.083-.116.17-.004.337-.009.474-.25.71.443.033.433-.336.685-.583.212-.207.809-.021 1.058.054-.254-.026-.256.217-.396.215-.191-.002-.409.107-.138.262-.06.101-.31.161-.31.196-.003.259-.18.008-.244.193-.046.133-.243.02-.369.059-.07.022-.032.352-.033.421.063-.159.45-.288.596-.169.153.125.046.484-.002.631-.026.078-.048.274-.131.306s-.282.033-.34.07c-.193.126-.347.234-.575.279l1.12.124c-.07-.114-.179-.202-.305-.246.087-.148.507-.156.685-.278-.518-.246.695-.327.845-.357.412-.082.798-.15 1.093-.439-.226.035-.447.067-.677.058.031-.052.021-.129.052-.181-.113-.019-.328 0-.381.116-.107.233-.125.105-.297.123-.12.013-.744.138-.742.006s-.152-.312-.144-.396c.023-.212.27-.116.415-.226.012-.009-.046-.101.063-.172.061-.04.04-.086.04-.16.002-.192.32-.222.465-.256-.182.181-.175.434-.206.674.058-.028.139-.053.199-.033.125.041.141-.195.186-.274.113-.196.278-.02.408.07-.058-.074-.369-.598-.384-.582.097-.101.693-.181.365-.492-.184-.174-.393.168-.537.224-.102.039-.239-.081-.32-.143-.12-.093.091-.232.134-.305.062-.105.023-.214.16-.259.144-.048.258-.091.259-.264v.001l.016.081c.043.283-.053.362.236.393l.089.007c.047-.36-.107-.631.322-.706-.013.21-.039.414-.09.618-.057.229.103.415.207.622l.041-.627c.164.054.242.218.342.351.023-.202.158-.485.008-.644.32-.055.038.328.275.433s.372-.258.45-.391c.18.362-.238.36-.198.666.016.126-.237.048-.275.203-.041.17.31.225.391.242.107.023.136-.21.22-.284s.24-.108.342-.164c.287-.157.107-.429.36-.653-.001.204-.04.408-.055.612-.004.06-.259.144-.318.226-.067.094-.027.272-.129.393-.057.067-.12.131-.166.207-.038.062.031.113.006.157-.03.055.028.169-.054.162-.038-.003-.16-.035-.195-.016-.027.014-.204-.085-.082.072.052.067.12.066.063.135-.204.249-.361-.384-.39-.476-.1.261-.257.391.09.541.193.083.096.46.077.617-.095-.026-.184-.08-.245-.152-.131.118-.126.374-.332.211-.004.056-.049.109-.051.165-.202-.243-.226.014-.397.078-.132.049-.293-.092-.323.103-.013.083-.086.078-.165.06l-.115-.029c-.035-.007-.065-.008-.083.006-.137.107-.234.219-.421.251-.08.014-.495.157-.319.285.147.107.342-.207.442-.182.111.028.452.192.548.178.109-.016.3-.275.367-.359.074.349.411-.165.62-.102.234.07.081.183.352.167.221-.013.282-.067.479-.13.234-.075-.032-.313.17-.411.18-.087.259-.271.436-.365.277-.147.587-.098.581-.497-.107.206-.714.166-.559-.089.024-.04.441-.14.493-.166.15-.076.248-.249.338-.385.059.465-.127.812-.158 1.28-.014.202-.344.121-.505.212-.106.06-.348.333-.35.461-.003.299-.279.367-.436.587-.059.082-.003.233-.148.291-.092.036-.203.062-.282.124-.123.096-.413.327-.517.185s.316-.374.434-.473c-.259-.579-1.041.658-.952.996-.035-.037-.094-.05-.131-.084-.11.535-.233.923.082 1.398.078.117.269.137.328.267.097.212.226.264.403.399.129.099.12.529.128.681.019.408-.017.659.266.968.234.256.343.284.68.351.28.055-.104.259-.156.278-.091.034-.222.168-.246.264-.077.306-.183.446-.326.715-.307.574-.843 1.071-1.342 1.488-.362.302-.644 1.031-.65 1.489-.004.317.252.532-.162.651-.22.063-.218.434-.468.556-.133.065-.298.148-.399.259-.108.118.015.189-.157.273-.137.066-.237.076-.26.234-.008.053-.006.38-.034.412-.076.09-.281.054-.379.161-.122.133-.131.15-.141.331-.01.164-.048.258.059.38s.189.199.116.378c-.24-.059-.544-.264-.767-.174-.207.083-.511.389-.648.561-.161.202-.173.509-.264.748-.065.17-.109.22-.043.385.102.253-.073.059-.153.234l-.689 1.656c-.067.18-.172.891-.282.975-.25.192-.35.304-.446.615-.103.332-.143.421-.338.7-.177.254-.149.637-.476.718-.625.155-.911.369-1.139.974-.026.07-.342.023-.417.022-.108-.001-.254.159-.341.22-.212.152-.505.238-.751.327-.099.036-.28.037-.356.096-.102.079-.081.312-.181.394-.243.202-.453.058-.636-.096.176.232.036.493-.073.717-.081.167-.378.092-.552.09.403.175.464.185.281.599-.109.247-.088.543-.125.809-.093.679-.048 1.238.102 1.906.061.271.112.555.209.816.078.211.074.249.28.331.096.039.286.119.219.229-.056.092-.617.189-.765.222-.16.036-.366.008-.378.186-.01.144-.087.302.09.317l.047-.264.151.244c.083-.289.26-.196.501-.247.164-.034.379-.196.538-.269.082.233.012.453-.14.637.288-.028.3-.399.333-.622.022-.153.405.052.442.158.062.176-.114.536-.052.649.12.219.264-.381.276-.461.037-.236.407-.1.494.061.175.325.237.066.509.107.347.052.125.353.347.412.24.063.317.333.169.542.536-.01.065.695-.011.902-.029.081 0 .214-.047.285-.032.047-.159.046-.208.095-.141.138-.258.286-.386.437-.332.389-.684-.32-.681-.585.001-.092.008-.138.036-.226.039-.125-.042-.124-.03-.221.01-.081.126-.103.1-.195-.036-.13-.066-.248-.182-.334-.081.316-.252.554-.204.887.047.325.071.686.425.811-.263.224-1.106.066-1.293-.223-.131-.202-.491-.167-.564-.318-.136-.281.07-.373.266-.601-.251.093-.372.277-.602.372-.236.098-.455.165-.707.19l-.33.044-.656.115a3.89 3.89 0 0 1-.66.058c.49-.48 1.393-.46 2.052-.657-.126-.21-.207-.372-.479-.402-.174-.019-.373.093-.55.037-.213-.067-.426-.54-.63-.558-.215-.019-.285.349-.507.082-.183.302-.502.624-.54.984.206-.028.256.433.191.575-.118.255-.387.107-.568.186l-.083.039-.131.065c-.15.072-.217.073-.409-.137s-.315-.504-.517-.703c-.281-.278-.828-.566-1.173-.751l-1.249-.665c.048.311.318.443.617.564l.259.104c.215.091.416.2.534.387.2.318.309.65.547.95.151.19.363.347.54.513-.184.177-.43.259-.62.425-.273.239-.431.336-.773.452-.479.161-.901.623-1.379.838-.483.218-.909.611-1.373.882-.445.26-.943.468-1.327.815-.095-.422-.206-.782-.563-1.066-.309-.245-.78-.465-.997-.803-.136.187.624 1.059.774 1.244.267.329.583 1.159.05 1.352-.276.1-.34.377-.564.549-.206.159-.305.438-.46.639-.172.224-.303.312-.371.589-.045.184.094.479.102.685.017.438-.455.811-.519 1.278-.061.441-.162.942-.086 1.388.175 1.034.194 1.996-.025 3.028-.339.541-1.194 1.205-1.248 1.832-.013.15-.269.277-.36.392-.11.141-.181.31-.234.479-.124.395-.285.697-.357 1.111-.023.131-.074.316-.028.451.048.142.304.26.303.375-.004.334-.365.573-.45.945-.027.119.164.332.133.373l-.401.559c-.176.211-.232.228-.289.5-.051.244-.057.41-.282.561l-.022.01c-.195.088-.63.309-.245.295-.043.315-.095.41-.294.657-.003.008-.469.548-.276.516.337-.055.313.24.624.244.37.004.309.222-.004.342-.169.065-.72.269-.341.394-.25-.012-.148.16-.246.305-.125.185-.407.155-.467.412.425-.089.78-.171 1.019-.578.04-.068.047-.298.088-.315.085-.035.178.006.257-.033a1.69 1.69 0 0 0 .409-.286l-.068.197c-.043.124-.129.327-.094.461.029.111.152.178.183.309.02.083-.158.185-.233.219-.054.025-.164.012-.223.016-.083.006-.065.08-.131.112-.48.234-1.155.123-1.66.369-.157.076-.302.173-.477.189-.139.013-.269.004-.389.076-.302.179-.431.336-.648.617-.377.49-.453.933-.509 1.522-.061.638-.738.996-1.177 1.394-.214.194-.349.406-.595.565s-.331.379-.546.566c-.371.323-1.206.531-.676 1.153.556.652-.745.595-.952.72.258.114.327.075.232.349-.054.157-.175.252-.307.355-.314.245-.569.208-.536.676-.192-.164-.252-.222-.502-.245-.032-.003-.082 0-.138.005l-.175.015c-.085.007-.156.009-.173-.006.032.029.092.034.133.044-.168.068-.264.052-.267.237-.002.123.035.204-.082.259-.212.098-.541.312-.782.327-.397.024-.41-.216-.729.116-.13.136-.496.453-.637.175.009-.068.048-.609-.086-.562-.195.069-.162.26-.133.407.054.269-.668.302-.874.372-.111.038-.257.034-.411.018l-.31-.038a1.71 1.71 0 0 0-.283-.016c-.093.005-.487.049-.506-.048-.04-.213-.084-.351-.183-.543-.141-.273-.693-.247-.628-.555.04-.187.189-.589-.149-.527-.114.021-.36-.005-.443.057-.089.067-.052.374-.212.481-.239.159-.379.214-.665.213-.489-.002-.202-.546-.089-.749l-.73-.031c-.184-.002-.039.35-.088.483-.175.478-.871.099-1.165-.014.239-.136.401-.284.599-.477-.322-.155-.368-.735-.449-1.04l-.069.703c-.011.108-.11.072-.139.154-.02.056.006.128-.013.188-.182.582-.508-.353-.621-.527-.272-.419-.491-.719-.985-.864-.461-.134-.612.164-.571.559-.218-.104-.447-.27-.692-.273-.308-.004-.375.293-.605.323-.102.013-.276-.233-.371-.203-.076.024-.082.257-.157.285-.139.05-.551-.336-.642-.409-.149-.119-.356-.174-.321-.399.04-.259.542-.348.116-.657l-.645-.478c-.075-.058.204-.566.117-.737-.097.161-.166.334-.324.437-.176.114-.172-.061-.342-.123-.247-.09-.67-.322-.926-.232-.333.117-.697.272-.742.669-.042.374.141.577-.371.543-.177-.012-.442-.011-.58.109-.166.144-.242.118-.47.115a7.62 7.62 0 0 1-1.207-.125c-.282-.047-.596-.095-.882-.099-.204-.002-.956-.133-.878.188-.261-.053-.441-.16-.713-.163-.28-.004-.363.05-.535-.216-.121-.187-.4-.438-.064-.529.191-.052.191-.37.374-.519a4.68 4.68 0 0 0 .474-.582c.185.003.119-.124.051-.252-.086-.163-.02-.186.026-.363.033-.124.323-.106.41-.115.136-.015.126-.078.209-.185.139-.179.217-.451.316-.657-.367.309-.497.613-.964.75a.25.25 0 0 0-.192.253c-.003.232-.05.219-.2.365-.095.093-.186.197-.293.276s-.149.317-.223.359c-.083.048-.197-.099-.31-.022l-.374.255c.07-.213.158-.434.184-.658.035-.294-.072-.431.193-.612.211-.144 1.191-.322 1.031-.628-.307.22-.531.327-.925.187.119-.342.197-.737.408-1.03-.247.112-.292.117-.4.347-.078.167-.089.36-.171.529-.103.215-.302.434-.339.657-.041.244-.359.365-.275.037-.197.137-.541.476-.684.234-.095-.16-.008-.565-.097-.783-.152-.375-.28-.448-.223-.89.031-.242.091-.655.382-.735.284-.077.54-.121.814.008.178.084.171-.026.27-.186.074-.12.177-.131.31-.18.283-.105.455-.076.718-.26.178-.124.556.016.742.069.03-.451.305-.566.689-.652-.355-.059-.743-.05-1.105-.077-.14-.011-.832.303-.605-.193.135-.293.739-.422 1.026-.539.338-.137.508-.188.591-.557l-.596.227c-.168.064-.117.144-.245.247-.233.188-.557.242-.839.298-.009-.163-.169-.553-.035-.684.182-.178.356-.288.576-.418.187-.111.367-.039.565-.113.232-.087.448-.143.691-.194l-.703-.031c.389-.248.775-.306.779-.805a5.08 5.08 0 0 1-.648.529c-.143.1-.507.382-.682.38-.271-.003-.432.153-.637.303-.103.076-.339.047-.466.058.003-.234-.093-.85.273-.767-.089-.477-.058-1.499.719-1.246.229.075.471.416.766.296.091-.037.237-.284.31-.365.065-.072.282-.024.376-.023-.02-.221-.198-.141-.357-.126s-.214.163-.31.293c-.225.308-.576-.29-.626-.447-.173.23-.444.042-.659-.03l.432-.954c.11-.23.128-.177.38-.132.099.018.276-.067.281-.2.004-.115-.256-.289-.303-.4-.084-.196-.11-.109.048-.341.172-.251.146-.677.491-.643-.006.454.013.729.219 1.128.093.179.163.272.141.471-.013.117-.338.053-.446.052.299.279.652.467.955.75.209.195.519.906.805.879-.264-.582-.444-1.06-1.076-1.28-.065-.022-.024-.279.031-.324.125-.102.254-.127.409-.174.317-.096.473-.017.699.194.111-.197-.103-.371-.209-.528-.096-.14-.266.112-.418.142-.277.054-.398.162-.554-.079-.109-.168-.177-.335-.245-.525s-.237-1.019-.064-1.185c.296-.284.648.719 1.004.585-.337-.116-.314-.662-.585-.734-.37-.097.053-.454.161-.548.123.18.692 1.21.847.869-.17-.087-.23-.195-.182-.377.017-.066.316-.047.408-.149-.362-.057-.535.03-.802-.244-.093-.095-.136-.716.012-.655.417.173 1.053.348 1.501.225-.17-.149-.287-.135-.506-.138-.182-.002-.259-.201-.426-.203-.403-.005-.492-.349-.125-.547.221-.12.102-.247.302-.369.099-.06-.024-.132.026-.204.042-.06.116-.114.169-.165.186-.182-.072-.252.258-.385.17-.068.181-.057.308-.233.291.269.594.71.294 1.104.388.063.388.251.279.576.027-.04.072-.075.124-.108l.162-.098c.079-.049.145-.1.158-.162.021-.098-.315-.468-.378-.561-.119-.177-.393-.864-.327-1.099.081-.289.673-.721.941-.501.281.231.194.253.153.551s-.056.304.174.494c-.036-.322-.132-.473.128-.675.277-.216-.148-.38-.245-.515-.254-.351.057-.417.342-.414.178.002.407.326.515.447.163-.407-.599-.663-.532-.937.062-.251.053-.326.272-.457.169-.102.28.074.428.185.141-.221-.15-.224-.149-.398 0-.059.307-.35.356-.392.071-.06.161-.105.238-.155.057-.037.157.018.203-.016.129-.096.17-.28.335-.392.095.404.077.432.469.568.377.131.384.139.507.522.176-.329-.212-.623-.44-.774-.353-.233-.271-.423-.266-.827.002-.132-.038-.336.006-.454.013-.036.138-.028.155-.064.028-.062.028-.156.04-.222.06-.337.215-.421.41-.653.087-.103.138-.258.189-.381.023-.056.313-.172.385-.224.256-.188-.041-.522.362-.516.333.004.616.045.621-.362.004-.345-.458-.217-.555-.474.259-.098.494-.155.653-.389.139-.203.307-.361.498-.516.209-.17.406-.321.522-.568.057-.12.407-.474.397-.533-.02-.122-.025-.264.07-.361l.185-.19c.049-.051-.008-.11.026-.157.124-.17.022-.175.266-.173h.287c.599-.015.971-.259 1.457-.595.129.347.324.497.686.357.286-.111.692-.096.875-.33.232-.297.386-.629.662-.882.391-.358.553.105.959.197.512.117.232-.209.052-.494-.174-.275.134-.547.3-.698.195-.179.335-.422.506-.625.018-.022.038-.048.058-.077l.134-.2c.095-.142.198-.285.292-.331.486-.236.817-.587 1.237-.852.209-.131.47-.39.737-.387.314.004.5-.018.739-.251.149-.145.266-.111.47-.108.091.001.19-.168.242-.239.058-.079.12-.285.224-.284.234.003.234.015.357-.181.327-.518.323-1.131.816-1.553.089-.076.254-.286.375-.298s.279.003.388-.045c.338-.149.473-.215.693-.508.134-.179.277-.59.46-.703a2.93 2.93 0 0 0 .628-.519c.038-.046-.026-.129.029-.179l.211-.189c.087-.078.2-.151.272-.242.168-.213.138-.518.306-.698.117-.126.196-.242.285-.39.056-.093.273-.069.369-.111.22-.097.506-.312.687-.476.157-.142.366-.523.607-.547.329-.033.588-.112.903-.22.253-.086.419-.412.599-.613.186-.207.517-.317.758-.448.2-.109.434-.384.592-.559.165-.183.203-.428.368-.66.159-.223.282-.582.456-.774.211-.233.397-.463.58-.718.156-.218.382-.366.539-.591.179-.255.3-.473.414-.762.057-.145.177-.241.283-.353.089-.094.121-.288.165-.407.09-.238.15-.478.207-.726.069-.301.239-.534.243-.848.002-.17.295-.309.365-.538.176-.577.491-.996.585-1.605.092-.593-.138-1.176.15-1.718.18-.339.246-.713.291-1.095l.05-.46.028-.23c.038-.27.264-.484.306-.766.046-.307.007-.558-.034-.868-.051-.376.15-.439.457-.424.324.015.469-.076.778-.132s.57.1.825-.111l.579-.473c.456-.392.856-.822 1.168-1.344.295-.495.431-1.082.748-1.565.206-.315.397-.527.673-.784.164-.153.11-.612.129-.828.026-.282.193-.549.213-.83.016-.235-.078-.48-.081-.717l-.019-1.787c-.053-.661-.078-1.218.124-1.854.085-.267.335-.495.508-.704.097-.117.256-.59.397-.609.12-.016.381.004.465-.088s.142-.291.219-.363c.182-.171.472-.274.67-.451.428-.383.921-.616 1.348-.999-.015.195-.093.587.191.52.236-.056.268-.317.27-.536.005-.424.301-.012.509-.258.017-.02.022-.335.004-.352-.038-.037-.271-.003-.33-.004.142-.761 1.541-.544 2.073-.64zm1.682-70.825c-.361.068-.399.234-.425.574-.01.131-.061.268-.091.397s.075.24-.051.321c-.104.067.067.609.075.783.014.272.087.529.224.759.175.294.313.51.56.745.193.184.395.309.55.538l.238.37c.062.101-.188.193-.249.131-.113-.115-.127-.25-.222-.361-.085-.1-.251-.168-.35-.268l.28.554c.119.212.234.223.482.226-.045.21-.035.302.183.401.182.082.37.181.565.232s.392.111.277.349a.72.72 0 0 1-.157.196c-.131.102-.161-.025-.142.185.019.217.031.408.27.411.096.001.139-.028.219-.085.036-.026.032-.106.068-.131s.146.013.177-.02c.155-.168-.01-.466-.078-.629-.081-.193-.152-.308-.15-.519.221.051.554-.031.73-.167s.17-.519.229-.746c.186.043.139.536.234.537.173.002.224-.024.329.111.069.088.132.175.068.274-.072.112-.185.035-.291.112-.063.046-.134.057-.208.059l-.152.001c-.262.009-.176.391-.147.544.108.575.554.725 1.079.755.295.017.402-.077.424-.354.019-.236.179-.356.24-.593.182.146.242.14.177.365a1.39 1.39 0 0 0 .376-.009c.041-.006.272.242.339.283.108.067.187-.185.324-.08.13.099.2.266.285.404.035.056.271.023.352.068.139.078.25.069.407.061.12-.006.293-.038.405-.003.164.051.214.168.395.17.109.001.329.001.412.071.114.097.112.314.11.445-.004.333.176.561.471.663.278.096.552-.059.826.022.151.045.557.384.573.545-.092.025-.183.034-.278.04-.121.009-.15.15-.205.251-.18-.065-.045-.167-.126-.265l-.153-.185c-.041-.049-.053.069-.095.012-.185-.253-.401-.092-.515.13.242-.147.541.199.607.387-.3-.077-.475-.019-.68.206.147-.057.661-.173.77.009l.08.126c.119.185.215.354-.015.503a2.13 2.13 0 0 1 .395.272c.063.058.002.357-.007.443.095.007.203.03.297.02.105-.011.192-.094.282-.112.24-.048.394.002.56.156.122-.191-.298-.4-.458-.402l-.357-.004c-.174-.002-.147-.033-.186-.201.145.038.332.051.121-.085-.074-.048-.139-.307-.181-.395.16.027.315.225.475.296.201.089.302.109.512.063-.067-.098-.225-.237-.062-.331.076-.044.343.034.429.055-.15-.34.114-.331.401-.342-.004-.067-.024-.149-.014-.215l.083-.015c.008-.045-.008-.108-.012-.153-.002-.021.335-.065.396-.139l.064.182c-.218.051-.306.044-.347.272-.031.175-.126.309.058.434-.284.031-.172.274-.085.45.132.272.267.391.553.497-.121.227-.376.073-.562-.007.065.126.117.266.212.372.149.165.129.243.207.442.076.191.227.26.36.399.089.093.269.024.38-.027.06.277.227.46.322.714.099.266-.063.455.102.717.056.09.155.078.259.08.154.002.199.081.255.234.09.249.059.535.056.793-.376-.141-.317.263-.321.52-.001.093.135.245.161.356.046.197-.076.214-.236.33.055-.02.509-.121.507-.001l-.006.494c-.004.36.157.542.365.816-.207.151-.303.121-.561.104-.055-.004-.042-.225-.077-.266-.05-.062-.211-.101-.285-.136a.73.73 0 0 1-.13.474c-.075.124-.173.266-.198.408-.072.404-.024.665.181 1.022.133.232.269.667.587.704.273.032.342-.006.461.24.077.158.092.34.165.499.309.666.731 1.28 1.31 1.741.147.117.291.137.476.183.24.06.02.29-.045.385-.072.105-.293.06-.382.171-.163.204-.045.247.101.456l-.018-.308c.112-.017.139.068.201.149.068.089.18.124.279.175.159.082.381.043.506.172-.166.06-.308.128-.484.126-.185-.002-.328.073-.505.083-.196.012-.384-.018-.339.259.035.214.223.236.393.291-.101.259-.232.49-.384.722-.022-.183-.086-1.054-.43-.886.05.252.058.532.129.777.028.098.151.337.114.433a1.18 1.18 0 0 0-.087.468c-.002.147-.003.264.038.405s.234.2.36.273c.013.008.273-.156.323-.176.153-.062.299-.074.464-.094-.044.117-.05.225-.169.271-.125.048-.284.014-.392.066-.152.073-.196.137-.295.275-.026.036-.103.009-.122.037-.033.047-.019.183-.025.242l.221-.019c.023.294.025.607.098.893.039.154.056.355.127.497.074.148.235.286.341.414.125.152-.131.275.133.313l.465.052c-.002.139.032.334-.17.269l-.515-.143.079.246c.031.097.239.089.307.158.169.173.123.363.088.572.122-.015.337.026.324-.118-.015-.172-.072-.191-.209-.299.233-.162.256-.389.317-.657.113.142.169.218.327.293.202.095.169.356.016.482.196-.005.188.076.192.222l.003.065.057-.141.057-.142.152.156c.077-.197.041-.281-.011-.488-.055-.217.386-.129.447-.116.124.025.245.06.365.101.048.016.004.177-.001.224-.006.059.06.096.063.154l.017.312c.112-.013.243-.009.349-.046.212-.074.209-.102.342.08.067.092.267-.132.324-.132.074 0 .306.134.359.189.14.143.459.37.509.57l.182.85a.54.54 0 0 1-.003.387c-.045.161-.008.274.025.44.051.257.052.54.234.75.115.132.471.331.652.29.143-.032.298-.045.426-.119.214-.124.302-.119.508.024.07-.146.108-.263.236-.36.148-.112.209-.011.363.081-.096-.169-.118-.34-.201-.5-.058-.111-.302-.425-.292-.536.036-.434.066-.765-.044-1.192-.053-.205-.081-.396-.199-.571l-.369-.547c-.108-.158-.24-.337-.237-.535.002-.165-.002-.143.161-.147l.37-.011c-.12-.048-.313-.069-.328-.224l.352.048c-.064-.033-.539-.271-.253-.267.232.003.333-.076.525-.2.097-.063.008-.417-.106-.455-.158-.053-.184.127-.221.231-.039.113-.138.117-.247.159.052-.197.095-.359.253-.493.204-.174-.068-.251-.202-.371-.15-.134-.068-.374-.029-.537.013-.052.129-.161.125-.175l-.102-.317c.233-.014.308.046.311-.196 0 .034-.306-.122-.342-.177-.194-.299-.567-.324-.795-.606-.121-.149-.15-.363-.148-.552.003-.241-.007-.326.247-.394.199-.053.297-.032.453.095a.48.48 0 0 1 .207.353l.018.086.032-.075.035-.076c.113.133.166.183.328.246-.034-.223.063-.175.247-.173.031 0 .202.257.269.301.169.11.098.176.055.369-.033.142-.032.227-.097.368.142.059.517.069.553.225.031.132.083.211.002.322-.085.116-.005.193.051.32l-.287.041c.081.231.143.081.307.158.055.026.24.229.239.288-.002.182-.118.8.246.598.155-.086.209-.169.29-.326.052-.1.264-.092.383-.124l.446-.124c.17-.049.197-.163.332-.025.063.064.24.189.261.267.055.202-.129.115-.241.185-.142.088-.268.156-.425.216-.098.038-.052.284-.116.36-.096.115-.253.088-.353.234-.073.107-.003.324-.074.399-.147.159-.211-.078-.179.229.023.219.073.222.26.344-.02-.303-.048-.545.142-.791l.37.357.004-.352c.151.023.275.014.381.123l.2.205c.036.037-.059.158-.059.207.002.116.133.283.179.394l.229.492c-.131.013-.2-.026-.196.112.004.112-.036.339.027.435.093.144.123.156.075.313l-.142.459c.094-.107.287-.454.443-.215.087.133.015.579.013.736l-.015 1.246c-.172-.133-.253-.259-.369-.445.018.331.05.543.318.767.137.115.047.148.066.316.014.123.08.258.116.376l.211.771c.061.256.012.454.13.697.219.451.667.768.849 1.24.046.12.167.256.031.312s-.238-.083-.332-.179l-.595-.658c-.001.106-.02.207.027.304.053.111.173.22.05.286-.185.1-.203.388-.13.591.109.302.149.35.406.536.246.179.442.407.692.587.17.122.483.092.689.094.244.003.465-.059.249-.317-.12-.143-.461-.024-.641-.106-.292-.134-.464-.45-.564-.734l.272-.08c.04-.012.135.22.212.24.205.054.291.328.499.403.17.061.395.086.495.242l.225.332c.109.139.309.204.441.321.363.324.817.481 1.269.642.202.072.305.101.517.092.253-.011.291.176.432.381.245.356.68.486 1.06.682l1.013.477c.381.134.81.187 1.204.278.165.038.361.218.506.306a2.45 2.45 0 0 0 .473.222c.102.037.492.111.545.207.086.157.172.442.331.531.267.148.23.181.241.489.011.314.436.125.469-.071.007-.042-.178-.155-.067-.209.09-.044.313.052.357-.074s-.05-.271.145-.223c.158.039.313.102.474.129.469.076.905-.054 1.367-.141.786-.147 1.368-.725 1.765-1.387.088-.146.246-.5.399-.573.047-.022.095.061.177.002.057-.042.102-.108.143-.165.073-.1.129-.193.179-.305.06-.135.079-.138.034-.255-.06-.156.25-.276.335-.364.097-.101.038-.326.121-.398.055-.048.274-.037.346-.048.24-.033.514-.065.742-.147.115-.041.334-.094.416-.183s.116-.302.159-.416c.383.219.798.002.843-.452.004-.045-.024-.22.024-.22l.314.002.646-.012c.209.002.407.024.614.05l.258.025c.091.009.175-.096.264-.105.171-.017.402.115.579.135a3.31 3.31 0 0 1 .63.143c-.132.068-.419.141-.379.348 0-.002.27.457.225.446.51.134.992.216 1.43.534.096.069.461.29.489.39.042.153-.256.561-.335.675l-.665.964c-.124.158-.272.273-.425.403-.093.078-.058.459-.048.584.009.113-.044.151-.114.242-.046.059-.016.21-.017.283-.002.186-.225.353-.38.421-.407.181-.031.83.068 1.121.017.05-.297.318-.349.323-.118.012-.177-.022-.179.103l-.005.369c-.002.194.235.082.151.308-.048.128-.15.27-.163.402-.015.142-.231.246-.146.392.109.187.17.233.361.34-.19.151-.242.171-.267.412-.015.139.015.38-.129.421-.197.056-.232.276-.003.296.092.008.143-.021.142.074-.001.053.027.222-.015.257l-.409.357c-.152.148-.105.52-.137.724-.053.336-.426.567-.719.709s-.443.587-.716.773c-.231.157-.367.158-.531.416-.131.206-.23.244-.383.042-.073-.097-.315-.183-.434-.189-.25-.012-.308.102-.406.292-.064.125-.185.352-.155.494.046.216.261.146.417.137-.117.108-.34.241-.408.384l-.145.3c-.039.081.017.194-.01.278-.022.068-.107.083-.123.163l-.061.31-.069.603c-.056.42-.147.86-.126 1.286.011.215-.001.377.222.478a2.11 2.11 0 0 0 .67.182c-.055.233-.14.264-.338.406-.122.087-.342.229-.364.378-.059.401-.294.723-.62.962-.094-.315-.29-.794-.251-1.126.019-.161.159-.35.207-.515.064-.221.098-.435.132-.663.015-.104-.295-.097-.399-.109-.26-.03-.488-.122-.74-.166-.447-.078-.88-.086-1.332-.092l-1.116-.011c-.378.013-.89-.04-1.152.252-.251.279-.644.338-.962.508-.286.152-.647.498-.957.536-.256.032-.382.048-.595.186-.14.091-.201.336-.274.483-.075.152-.089.353-.157.514-.059.144-.252.287-.377.381-.233.177-.514.524-.612.804-.116.333-.09.713-.084 1.07l.177-.042c.021.355.002.768.147 1.099.067.153.084.334.189.46.168.201.222.239.479.278.146.022.452-.035.557.052.182.149.023.361-.113.494-.278.271-.393.748-.458 1.112-.02.111-.062.205-.088.314-.029.118.013.248-.022.363-.054.182-.226.245-.329.412-.11.178-.089.382-.312.411-.162.021-.215.414-.251.529-.059.19-.153.361-.243.536s-.084.352-.1.538c-.015.172-.18.324-.182.477-.001.081.026.217-.003.291-.037.093-.171.154-.223.24-.11.178-.16.327-.299.499-.1.124-.296.202-.447.253-.164.056-.427.107-.551.237-.141.148-.194.528-.303.718-.083.143-.081.342-.151.497-.094.209-.163.414-.232.632-.056.18-.138.286-.097.474.042.195.076.396-.059.55-.116.133-.351.027-.51.07s-.329.188-.46.292c-.157.126-.341.217-.397.413s-.077.405-.282.47c-.37.118-.373.693-.702.824-.276.11-.286.128-.394.407-.065.167-.211.302-.302.457-.098.168-.202.32-.325.471-.182.225-.224.271-.246.558-.032.432-.281.618-.535.939-.125.158-.189.278-.192.474-.001.068-.143.078-.178.129-.052.074-.008.206-.061.284-.13.19-.233.381-.338.586-.12.235-.297.4-.352.658-.046.219-.051.478-.299.5-.155.013-.25.304-.359.425-.165.184-.371.186-.453.438-.074.226-.169.36-.325.539-.061.07-.148.076-.237.101-.065.019-.113.153-.148.209-.043.069-.18.045-.232.102-.067.073-.074.324-.12.429-.089.205-.284.248-.48.343-.166.081-.329.237-.492.335-.158.094-.334.116-.508.172-.161.052-.3.219-.405.349-.137.17-.149.252-.356.303s-.363.129-.554.233c-.318.174-.448.486-.727.718-.059.049-.129.047-.203.031l-.15-.04a.36.36 0 0 0-.145-.012c-.249.042-.358.151-.536.325-.185.181-.949.011-1.032-.253-.145-.459-.083-.931-.107-1.407-.017-.343-.453-.638-.723-.785-.193-.105-.304-.129-.526-.144-.101-.007-.259-.048-.346.019-.097.074-.169.22-.276.272-.09.044-.434.287-.507.262-.062-.021-.235-.045-.251-.112a.4.4 0 0 0-.133-.249c-.098-.101-.231-.418-.18-.564.047-.134.201-.242.203-.394l.004-.351c.002-.191-.057-.281-.232-.388-.041-.025-.186-.146-.216-.107-.061.08-.1.146-.189.19-.398.193-.576.419-.581.865-.001.107.001.202-.026.305-.033.124-.058.077-.177.086-.215.015-.334-.02-.483-.182-.291-.316-.399-.83-.178-1.197.187-.311.659-.336.858-.641l.312-.516c.032-.055.198-.087.254-.128.123-.089.167-.259.287-.362.001.127-.011.248-.027.374.047-.009.218-.013.223-.063.009-.105.052-.225-.011-.313-.159-.224-.193-.317.012-.517.129-.125.275-.209.43-.149.123.047.214-.029.258-.142.017-.044.132-.384.088-.429-.002-.001-.012.017-.01.018.088-.516.212-1.047.605-1.409.208-.192.487-.33.632-.579.128-.22.184-.486.302-.714.278-.539.416-1.129.731-1.651.159-.263.08-.714.148-1.025.057-.259.116-.63.431-.4.101-.164-.098-.198-.216-.227-.132-.031-.104-.105-.126-.237-.029-.17.048-.39.069-.562.06-.475.087-.815.005-1.284-.066-.377-.011-.749-.121-1.118l-.371-1.162c-.149-.347-.315-.67-.525-.986-.233-.35-.525-.557-.815-.855-.253-.258-.539-.656-.855-.818-.405-.208-.802-.24-1.251-.246-.164-.002-.325.035-.487.06.185-.149-.679-.465-.842-.497-.175-.033-.452-.03-.605-.116s-.236-.304-.38-.408l-1.036-.758c-.134-.099-.226-.314-.32-.451-.109-.159-.274-.286-.399-.434-.229-.27-.461-.648-.84-.739l-.531-.135c-.111-.039-.221-.058-.33-.071l-.328-.033-.165-.027c-.406-.086-.744-.249-1.118-.426l-.553-.278c-.194-.106-.314-.315-.452-.485-.295-.362-.683-.837-.723-1.317-.025-.299-.002-.603.001-.897.002-.2-.015-.667.15-.811.427-.374.875-.713 1.255-1.135.052-.058.212.097.306.005.103-.101.218-.19.328-.282s.187-.216.275-.325c.038-.047.214-.035.314-.031h.031l.018-.031c.083-.101.331-.239.392-.287l.341-.265c.161-.126.45-.179.644-.236-.037-.212.788-.103.849-.01-.001-.001-.03-.003-.033-.002.243.035.788.105.965-.099.232-.267.408-.576.678-.806.243-.207.562-.427.744-.686l.623-.885.247-2.033.046-1.261c-.006-.242-.011-.265.15-.444.126-.14.201-.258.291-.425.213-.399.271-.719.292-1.165.019-.399-.074-.776-.124-1.173-.021-.173-.172-.286.022-.358.082-.03.426-.177.475-.109.208.285.598.347.929.434-.255-.366.2-.335.283-.624.035-.121-.004-.276-.139-.343-.202-.1-.371.059-.46.221l-.03.061c-.114.263-.177.102-.174-.085.003-.224.076-.296.214-.46.099-.118.215-.165.352-.237.057-.03.059-.122.106-.161s.14-.06.199-.085c-.056-.104-.132-.164-.063-.265.063-.091.046-.176.048-.286-.25.01-.417.016-.645.116-.059.026-.068.261-.079.321-.031.158-.05.187-.167.301.002-.202.105-.811.005-.98-.092-.156-.256-.353-.215-.542.046-.211.078-.367.213-.532.235-.286.477-.332.808-.335h.129c.203.002.267-.001.382-.157l.301-.429c-.13.06-.295.107-.411.19-.163.115-.131.18-.35.166-.255-.016-.263-.013-.395-.234-.098-.162-.127-.333-.183-.513l-.266-.982c-.068-.278-.032-.579-.089-.859-.074-.367-.12-.604-.321-.913-.076-.117-.245-.29-.277-.427-.015-.066.015-.366.063-.409l.364-.317c.077-.068.234.095.352.111.141.02.21.072.295-.036.077-.098.274-.408.347-.366-.05-.084-.115-.283-.217-.293l-.462-.046.158-.306c-.139.115-.286.286-.445.369-.091.047-.214.065-.311.094-.14.042-.12.013-.193-.115l-.383-.662-.182-.336c-.402-.79-.767-1.605-.984-2.463.213.017.459.351.609.518.112.124.184.28.302.394.095.092.229.162.295.278s.121.213.154.344c.055.218.127.278.29.446.104.106-.044-.573-.07-.646-.058-.164.043-.286.166-.402l.126-.115.059-.059c.179-.192.293-.322.554-.331.163-.005.226.003.322-.122.126-.163.131-.159.34-.156.129.002.26.026.388.039.143.015.222-.065.344-.14l-.22-.014-.202-.013-.025.008c-.179.019-.957-.297-.518-.367-.15-.245-.1-.089-.325-.092-.21-.003-.351-.018-.443-.248-.071-.177.044-.304.129-.446.051-.085.42-.015.494-.009-.047-.306-.056-.266-.367-.285l-.609-.013c-.376-.005-.677.278-.93.525-.196.191-.755.566-1.041.389-.245-.151-.274-.157-.334-.431l-.144-.579c-.249-.805-.494-1.561-.913-2.295-.372-.652-.705-1.372-1.163-1.968-.146-.191-.608-.627-.633-.87-.034-.321-.115-.753.239-.929-.003.254.011.501.145.728.031-.175.131-.826.403-.512.158.182.182.441.301.653.057.102.152.171.151.291-.003.261-.008.121.174.198.321.136.37.355.367.665.046-.02.107-.004.155-.02-.001.053-.032.258.02.269.123.026.19.037.287.113l.522.399c-.061-.138-.235-.311-.245-.441-.017-.214-.281-.292.096-.288.063.001.067-.127-.01-.146-.054-.013-.32-.049-.312-.102.035-.224.301-.152.506-.168-.072-.034-.204-.065-.252-.128l-.129-.17c-.032-.042.075-.082.078-.124.02-.254-.149-.474-.146-.708.003-.248.189-.387.146-.667-.012-.078.084-.255.104-.342.022-.093-.172-.063-.037-.241-.193-.085-.325-.152-.482-.292.071.117.092.247.123.378.04.169-.166.128-.261.126.031.112.01.217-.004.33-.294-.066-.48-.301-.633-.536v.109c-.002.105-.019.23-.115.264-.181.063-.245-.158-.277-.267-.034-.119.005-.25.041-.363.045-.142.014-.258.072-.407.234.153.372.335.654.338.062.001.065-.089.115-.109s.104-.011.153-.025c.114-.033.067-.128.138-.182.055-.042.109.013.153-.03.103-.1.269-.009.353-.083.112-.099-.001-.195.169-.284.093-.049.369-.116.366-.234-.005-.163-.168-.234-.282-.315l-.056.264c-.023.11-.107.088-.191.151l-.069.057-.089.089c-.05.047-.098.071-.242.07l.05-.506-.097.254-.107.248-.043-.109-.043-.111c.009.053.069.227.02.254-.102.055-.169.072-.213.178-.032.077-.169.126-.238.168-.047.029-.136-.146-.185-.176s-.228-.098-.248-.149c-.011-.027.068-.29.092-.307.189-.14.272.219.484.072l-.077-.143c-.051-.101-.065-.17-.013-.322-.02.057.365-.075.405-.104.181-.133.157-.234.16-.443.002-.192.12-.19.247-.166l.108.022c-.074-.199-.041-.311-.256-.234.015-.005-.255-.303-.31-.346.015.367.013.695-.057 1.056-.111-.041-.247-.131-.364-.097-.233.068-.224.076-.383-.11l.242.003c-.024-.279-.058-.219-.334-.21-.201.007-.369-.024-.366-.249.002-.119.346-.275.247-.383-.028-.031-.245-.003-.292-.004s-.09.176-.108.219c-.029-.049-.08-.085-.109-.133-.161.224-.244.502-.058.756a.57.57 0 0 0 .386.287l.386.132c-.093.104-.303.379-.456.329-.275-.09-.348-.169-.558-.364-.176-.163-.334-.267-.461-.471-.037-.059-.13-.227-.191-.241-.081-.019-.276.103-.362.122-.061.014-.42-.363-.491-.421-.177-.145-.223-.345-.338-.541l-.636-1.186c-.285.087-.134.581-.054.77.137.321.347.525.597.755.203.187.361.429.544.637.165.188.572.51.355.763.299.004.382.093.575.319.172.201.247.262.01.459.158.082.362.141.415.335.013.047.02.514-.02.536-.4.222-.682.204-1.128.199-.308-.004-.311-.806-.346-1.027-.059-.368-.325-.761-.501-1.088-.38-.707-.878-1.345-1.348-1.992l-1.389-1.987-1.315-1.726-.784-1.045c-.214-.322-.405-.671-.665-.956-.042-.046-.153-.126-.152-.192.001-.105.179-.463.1-.535-.164-.149.843-.042.714-.222-.011-.016-.052-.516-.291-.532-.183-.012.123-.154-.048-.166-.059-.004-.447.116-.581.191s-.236-.204-.362-.12c-.042.028.036.265.029.331-.008.075-.097-.018-.082.065.025.136.111.401.109.398a3.38 3.38 0 0 0-.113-.138l-.164-.192-.114-.137c-.058-.077.061-.155.003-.231l-.505-.634c-.04-.051.193-.311.153-.362-.068-.088-.138-.006-.197-.101-.04-.064-.242.11-.282.046-.048-.079-.027-.125-.08-.199-.041-.058.199-.243.152-.295-.041-.045-.105-.07-.098-.133.012-.106-.267-.045-.342-.122-.134-.137-.233-.357-.376-.471s-.221-.267-.356-.389c-.068-.061-.467-.192-.268-.368.048-.042.17-.198.231-.205.067-.007.141.112.214.113.218.003.423.004.559-.213.081-.131.097-.364.15-.516.081-.233.074-.395.065-.645-.014-.394-.276-.782-.473-1.105l-1.273-1.952-.712-.981c-.048-.062-.127-.132-.161-.204-.027-.058-.005-.161-.05-.208l-.447-.475c-.288-.354-.581-.736-.959-.987-.127-.085-.091-.112-.264-.133-.067-.008-.146-.179-.185-.233-.05-.071-.055-.197-.117-.257s-.244-.085-.329-.114c.238-.154.239-.272.315-.547.299.099.607.218.923.253.214.024.39-.031.588-.104.103-.039.134-.352.204-.348l1.076.1c.055.006.231-.281.322-.325.156-.075.301.093.439.181z"/></svg>