<?xml version="1.0" encoding="UTF-8"?>
<svg width="154px" height="159px" viewBox="0 0 154 159" version="1.1" xmlns="http://www.w3.org/2000/svg" xmlns:xlink="http://www.w3.org/1999/xlink">
    <title>Group 5</title>
    <g id="Page-1" stroke="none" stroke-width="1" fill="none" fill-rule="evenodd">
        <g id="Group-5" transform="translate(0, 0.9174)" fill="#1D90FF" fill-rule="nonzero">
            <path d="M53.2390616,57.6821192 C52.0194522,59.9831802 51.6128901,61.126293 51.2775758,62.7393537 C51.2306259,62.9685576 51.1897166,63.1954644 51.1547837,63.4199947 L26.1355252,70.4702187 L76.9999945,84.4539727 L127.864464,70.4702187 L102.975633,63.4573503 C102.871648,61.7987203 102.434733,60.0402219 101.662716,58.2711801 L101.488,57.8856416 L137.784456,68.1137516 C138.693055,68.4022267 139.026261,68.9101198 139.067464,68.9767006 C139.068842,68.9788551 139.084347,68.9997597 139.113137,69.0383132 L139.188182,69.1386257 C139.295818,69.2823494 139.472729,69.5181644 139.708225,69.8320811 L139.945152,70.1479092 C141.109754,71.700353 143.290485,74.6074597 145.567903,77.6434861 L146.115868,78.3739801 C146.298829,78.6178848 146.481937,78.861987 146.664722,79.1056591 L147.160525,79.766616 C149.796828,83.2810853 152.275582,86.5855529 153.161631,87.7667612 L153.308751,87.9628887 C153.436505,88.1332 153.505112,88.2246616 153.505112,88.2246616 C153.981143,88.8605662 154.124192,89.6856712 153.888743,90.4434974 C153.652952,91.2016651 153.06741,91.8020519 152.314179,92.0571651 L139.593442,96.3654017 L139.593442,130.816268 C139.593442,131.819303 138.987709,132.72364 138.058233,133.106822 L77.948292,157.894466 C77.948292,157.894466 77.543101,158.082642 77,158.082642 C76.4568881,158.082642 76.2303371,157.968233 76.0516971,157.894466 L15.942098,133.106822 C15.0126228,132.72364 14.4065474,131.819645 14.4065474,130.816268 L14.4065474,96.3660847 L1.6858101,92.0578481 C0.932579277,91.8027349 0.34703728,91.2026896 0.111246259,90.4441804 C-0.124202539,89.6856712 0.0188462945,88.8605662 0.495219445,88.2246616 C0.495219445,88.2246616 0.957494555,87.6083314 1.71644114,86.5964466 L1.980184,86.2448043 C3.3058531,84.4773182 5.35382458,81.7467727 7.43155609,78.9764344 L7.86162905,78.402996 L8.29118829,77.8302391 C9.07740972,76.78192 9.8541694,75.7461979 10.5836727,74.7734589 L10.9766698,74.2494231 C11.7523822,73.2150555 12.4636777,72.2665455 13.0614884,71.4693081 L13.3915645,71.0291125 C14.289582,69.831476 14.8631583,69.066317 14.9017428,69.0143318 C15.3332421,68.4331126 16.0154886,68.1795203 16.179308,68.1252037 L16.2155334,68.1137516 L53.2390616,57.6821192 Z M74.5168311,94.0137158 L61.127734,110.481323 C60.6472542,111.073172 59.9333789,111.398637 59.1993125,111.398637 C58.932037,111.398637 58.6627082,111.356631 58.4012506,111.267495 L19.3742433,98.0480558 L19.3742433,129.158203 L74.5168311,151.896745 L74.5168311,94.0137158 Z M79.4835003,94.0143989 L79.4835003,151.896745 L134.626088,129.158203 L134.626088,98.0487389 L95.599423,111.268178 C95.3376231,111.357314 95.0682943,111.39932 94.8010188,111.39932 C94.0669524,111.39932 93.3530772,111.073172 92.8725973,110.482006 L79.4835003,94.0143989 Z M136.136314,73.3382782 L81.322944,88.4073732 L95.6404896,106.017696 L147.477212,88.4606498 L136.136314,73.3382782 Z M17.8640172,73.3382782 L6.52346158,88.4606498 L58.3598417,106.017013 L72.6773873,88.4066901 L48.2649745,81.6951986 L22.4508199,74.5991589 L17.8640172,73.3382782 Z M42.501709,56.1115723 C44.8266602,56.1115723 46.5818481,55.512207 47.7672729,54.3134766 C48.9526978,53.1147461 49.5454102,51.3380127 49.5454102,48.9832764 L49.545,44.8846416 L53.3536377,44.8839111 C55.692749,44.8839111 57.4511108,44.2845459 58.6287231,43.0858154 C59.8063354,41.887085 60.3951416,40.1103516 60.3951416,37.7556152 L60.3951416,19.9863281 C60.3951416,18.5756836 60.2317505,17.3800049 59.9049683,16.399292 C59.578186,15.4185791 58.9815674,14.4864502 58.1151123,13.6029053 L47.0101318,2.28259277 C46.1905518,1.4630127 45.2904053,0.877685547 44.3096924,0.526611328 C43.3289795,0.175537109 42.2207031,0 40.9848633,0 L32.5653076,0 C30.2388916,0 28.4833374,0.59942627 27.298645,1.79827881 C26.1139526,2.99713135 25.5216064,4.77392578 25.5216064,7.12866211 L25.521,11.2286416 L21.6921387,11.2276611 C19.3671875,11.2276611 17.6119995,11.8270874 16.4265747,13.0259399 C15.2411499,14.2247925 14.6484375,16.0015869 14.6484375,18.3563232 L14.6484375,48.9832764 C14.6484375,51.3380127 15.2411499,53.1147461 16.4265747,54.3134766 C17.6119995,55.512207 19.3671875,56.1115723 21.6921387,56.1115723 L42.501709,56.1115723 Z M49.5454102,31.8178711 C49.5454102,30.347168 49.4104614,29.1956177 49.140564,28.3632202 C48.8706665,27.5308228 48.2799072,26.651001 47.3682861,25.7237549 L35.2635498,13.4051514 C34.3927002,12.5059814 33.5336914,11.9182739 32.6865234,11.6420288 C31.9240723,11.3934082 30.9783032,11.2566669 29.8492163,11.2318048 L29.5,11.2286416 L29.5004883,7.30737305 C29.5004883,6.24023438 29.7799072,5.42224121 30.3387451,4.85339355 C30.897583,4.2845459 31.7347412,4.00012207 32.8502197,4.00012207 L42.354126,4.00012207 L42.354126,14.9388428 C42.354126,16.2794189 42.6924438,17.2809448 43.3690796,17.9434204 C44.0457153,18.605896 45.0401611,18.9371338 46.352417,18.9371338 L56.418457,18.9371338 L56.418457,37.5769043 C56.418457,38.644043 56.1387329,39.4620361 55.5792847,40.0308838 C55.0198364,40.5997314 54.182251,40.8841553 53.0665283,40.8841553 L49.545,40.8846416 L49.5454102,31.8178711 Z M55.3937988,15.5042725 L46.9006348,15.5042725 C46.1723633,15.5042725 45.8082275,15.1401367 45.8082275,14.4118652 L45.8082275,5.76855469 L55.3937988,15.5042725 Z M42.2145996,52.1118164 L21.9580078,52.1118164 C20.8566895,52.1118164 20.0297852,51.8273926 19.4772949,51.2585449 C18.9248047,50.6896973 18.6485596,49.8717041 18.6485596,48.8045654 L18.6485596,18.5137939 C18.6485596,17.4593506 18.9282837,16.6477051 19.4877319,16.0788574 C20.0471802,15.5100098 20.8776855,15.2255859 21.979248,15.2255859 L28.9980469,15.2255859 L28.9980469,27.6848145 C28.9980469,29.1936035 29.3718872,30.3143311 30.1195679,31.0469971 C30.8672485,31.7796631 31.9805908,32.1459961 33.4595947,32.1459961 L45.5665283,32.1459961 L45.5665283,48.8045654 C45.5665283,49.8717041 45.2832031,50.6896973 44.7165527,51.2585449 C44.1499023,51.8273926 43.315918,52.1118164 42.2145996,52.1118164 Z M44.9088135,28.5578613 L33.8862305,28.5578613 C33.4396973,28.5578613 33.1153564,28.4564209 32.913208,28.25354 C32.7110596,28.0506592 32.6099854,27.7266846 32.6099854,27.2816162 L32.6099854,16.0429688 L44.9088135,28.5578613 Z" id="Combined-Shape"></path>
            <path d="M96.2587066,53.0826416 C96.2754087,53.079339 96.3433829,53.1724009 96.4468774,53.3340869 L96.4901321,53.4023548 C96.692968,53.7254354 97.0040854,54.2587943 97.3316215,54.8395746 L97.4046403,54.9693516 C97.8927358,55.8388509 98.401933,56.7859535 98.6335368,57.2811236 C100.62533,61.5195 100.433812,65.7377893 98.0972849,68.3691984 C96.1054917,70.6390396 93.0986501,71.7036556 88.7128745,71.7036556 L87.314789,71.7036556 L87.2764852,73.2905358 C87.2573335,74.7970678 87.2381815,74.9175904 87.0275111,75.299245 C86.6827776,75.9219449 86.4146517,76.0826416 85.7634886,76.0826416 C85.3996033,76.0826416 85.1123254,76.0223804 84.9016548,75.9219449 C84.7292881,75.8215093 82.8524061,74.5560226 80.7265498,73.109752 C80.0671471,72.6584932 79.4933915,72.2623298 78.9991484,71.9171674 L78.8600946,71.8199339 C77.4226343,70.8134791 76.6955292,70.2625235 76.5131411,70.0565142 C75.8045225,69.172682 75.8236742,68.1884146 76.6089005,67.3246695 C76.8770264,67.0233631 78.2942639,65.9989216 80.8031573,64.2915188 C82.9098616,62.8653353 84.7484401,61.6400226 84.9208068,61.5395871 C85.1314772,61.4391518 85.437907,61.3788903 85.7826403,61.3788903 C86.4338034,61.3588033 86.7019296,61.5395871 87.0466629,62.1622869 C87.2573335,62.5439418 87.2573335,62.6644642 87.295637,64.1910832 L87.314789,65.7980505 L88.9618488,65.7578764 C90.0726565,65.7177023 90.7621233,65.6574408 91.1260087,65.5570055 C93.9221799,64.7535219 95.0138358,62.4033322 93.9030279,59.5107908 C93.8034384,59.2421978 93.5030433,58.6410607 93.1667149,58.0120532 L93.0885377,57.8665418 C92.996762,57.6965247 92.9033011,57.5261863 92.8113722,57.3614722 C92.3517275,56.5379012 91.9686904,55.8348531 91.9686904,55.794679 C91.9686904,55.7545046 92.9262832,55.1318047 94.0753948,54.4086696 C95.2245062,53.6855342 96.2204029,53.1030085 96.2587066,53.0826416 Z M67.5997239,43.9036797 C67.6300613,43.9446866 67.6586876,43.9831307 67.6856995,44.0201224 L67.7121767,44.0566712 C67.7597447,44.1229406 67.8019943,44.1855728 67.83952,44.2514108 L67.8595236,44.2876816 C68.116831,44.7705155 68.1360665,45.4828755 68.1375045,48.9596057 L68.1374806,51.0322365 L68.137456,51.091283 L68.1372887,51.3771724 C68.1353023,54.0407906 68.1214286,54.6105479 68.0245337,54.9273551 L68.0173836,54.9498419 C68.0125192,54.9645736 68.0074579,54.9788211 68.0021919,54.99279 L67.9928552,55.0167697 C67.9912643,55.0207332 67.989656,55.0246832 67.98803,55.028625 L67.9780605,55.0522154 L67.9676576,55.0758444 C67.9605758,55.0916631 67.9531989,55.1076664 67.9455147,55.1241729 C67.5613027,55.9691489 66.7736681,56.2835584 65.8515594,55.9691489 C65.582611,55.8905463 64.9294506,55.517185 64.3723432,55.1438237 C63.8344464,54.7704621 63.3541814,54.4757031 63.3157602,54.4757031 C63.2761747,54.485826 62.5789306,55.6588713 61.8648471,56.8907027 L61.7807982,57.0358285 L61.6758719,57.2173904 C61.2221043,58.0035137 60.7844601,58.7739466 60.528774,59.2429551 L60.4836762,59.3260502 C60.4192464,59.4453562 60.3695528,59.5401988 60.3381173,59.6045098 C59.7810099,60.7638954 59.5504827,62.0804858 59.7425887,63.0040638 C60.0499583,64.5171602 61.1065413,65.5389916 62.893127,66.0695578 C62.9027323,66.0724233 62.912396,66.075238 62.922141,66.0780026 L62.9516427,66.0861477 C63.4084447,66.2087835 64.0857851,66.2284001 67.2155119,66.2660637 L71,66.2857142 L71,72.0826416 L67.3713124,72.0826416 C67.2146725,72.0826416 67.0577001,72.0819171 66.9012315,72.0810565 L66.7137645,72.0798661 C65.0297015,72.0677553 63.4434178,72.0186186 63.0083906,71.9843885 C56.419155,71.2966177 53.0188789,67.1306902 54.2483573,61.2355098 C54.6517799,59.3294016 55.1704661,58.1700161 57.4181062,54.2791972 C58.2633726,52.7857513 58.9549542,51.5674143 58.9357436,51.5477635 C58.9165329,51.528113 58.244162,51.0957999 57.4565274,50.5652336 C55.746784,49.4058481 55.4394145,49.0521373 55.4394145,48.2268121 C55.4394145,47.8141495 55.4778357,47.6569446 55.6891523,47.3818361 C55.8236264,47.2049807 56.0925748,46.9495229 56.2846808,46.8316193 C56.3271363,46.8035189 56.4858197,46.727929 56.7321156,46.6168945 L56.8519074,46.5631749 C57.5680251,46.2435595 58.8584823,45.6920867 60.2043722,45.1271799 L60.4230286,45.0354901 L60.6604326,44.9361338 L60.8977749,44.8370071 C61.4312566,44.614428 61.9595216,44.3955913 62.4505241,44.1939861 L62.6127676,44.1274411 C63.6846037,43.6883091 64.5548439,43.3416726 64.8718188,43.2355593 C65.87077,42.8818485 67.0041953,43.1569569 67.5997239,43.9036797 Z M78.7410444,30.1531817 C80.3965015,30.4117598 82.0716666,31.2670565 83.5694616,32.5798376 C83.6009055,32.6075504 83.6321404,32.6353335 83.6631838,32.6632106 L83.7557569,32.7471477 L83.8472849,32.831791 C85.1066842,34.0082309 86.0962703,35.4282195 88.0628456,38.785712 C88.7526193,39.99904 89.3635621,40.9736805 89.4029777,40.9736805 C89.4423933,40.9736805 90.1321672,40.5360868 90.940188,40.0189306 C92.5759375,38.9448369 93.1080488,38.7459307 93.7584069,38.9448369 C94.2511027,39.1039619 94.5270121,39.3426494 94.783214,39.8598056 L95,40.2973993 L95,50.1233669 L94.7043825,50.7399763 C94.3693497,51.4162574 94.0146088,51.7345075 93.3642505,51.9533043 C93.264923,51.9891074 93.1726904,52.019182 93.0793795,52.0412942 L93.0325962,52.0516762 C92.3596639,52.1906791 91.5613786,51.9015887 87.6292733,50.3620545 C85.3234579,49.4669766 83.2738441,48.6315703 83.0767658,48.5321171 C82.4066997,48.1740861 81.9534198,47.5375859 81.9534198,46.9408673 C81.9534198,46.2645861 82.4855311,45.6678675 83.963618,44.6733363 L84.9293014,44.0169458 L83.4117989,41.470946 C82.0984735,39.2470402 81.5847111,38.4080848 81.0864719,37.8236343 L81.0418742,37.7719458 C81.0195752,37.7464116 80.9972603,37.72132 80.9748594,37.6965696 L80.9311403,37.6488094 C80.8945851,37.6093219 80.8576829,37.5705583 80.8201342,37.532086 L80.7747461,37.4860312 C80.6985174,37.4094138 80.6192212,37.3332687 80.5344563,37.254134 C78.6819207,35.5236498 76.3958131,35.5236498 74.5432775,37.2939153 C74.0111662,37.7911808 73.3213923,38.7260401 72.6119108,39.9194775 C72.5330793,40.0388212 72.217754,39.8796962 70.2469717,38.6862588 C69.0053787,37.9304152 67.9805718,37.2740246 68.0002796,37.2143528 C68.0199874,37.1546809 68.2761891,36.7170872 68.5718065,36.2397123 C70.8382064,32.6395095 73.4987627,30.610666 76.5731835,30.133291 C77.0658793,30.0537285 78.1892253,30.0736192 78.7410444,30.1531817 Z" id="recycle-icon"></path>
        </g>
    </g>
</svg>