<?xml version="1.0" encoding="UTF-8"?>
<svg width="236px" height="236px" viewBox="0 0 236 236" version="1.1" xmlns="http://www.w3.org/2000/svg" xmlns:xlink="http://www.w3.org/1999/xlink">
    <title>rec2</title>
    <g id="Page-1" stroke="none" stroke-width="1" fill="none" fill-rule="evenodd">
        <g id="rec2" transform="translate(0, 0)" fill="#008000" fill-rule="nonzero">
            <path d="M216.392814,121.253693 C216.480023,121.236805 216.834945,121.700097 217.375334,122.505022 L217.601186,122.844882 C218.660278,124.453281 220.284754,127.108513 221.99496,129.999824 L222.376222,130.645895 C224.924777,134.974542 227.583512,139.689524 228.792814,142.15464 C239.192814,163.25464 238.192814,184.25464 225.992814,197.35464 C215.592814,208.65464 199.892814,213.95464 176.992814,213.95464 L169.692814,213.95464 L169.492814,221.85464 C169.392814,229.35464 169.292814,229.95464 168.192814,231.85464 C166.392814,234.95464 164.992814,235.75464 161.592814,235.75464 C159.692814,235.75464 158.192814,235.45464 157.092814,234.95464 C156.192814,234.45464 146.392814,228.15464 135.292814,220.95464 C131.849791,218.708128 128.853969,216.7359 126.273316,215.017571 L125.547256,214.533511 C118.041665,209.523055 114.24514,206.780221 113.292814,205.75464 C109.592814,201.35464 109.692814,196.45464 113.792814,192.15464 C115.192814,190.65464 122.592814,185.55464 135.692814,177.05464 C146.692814,169.95464 156.292814,163.85464 157.192814,163.35464 C158.292814,162.85464 159.892814,162.55464 161.692814,162.55464 C165.092814,162.45464 166.492814,163.35464 168.292814,166.45464 C169.392814,168.35464 169.392814,168.95464 169.592814,176.55464 L169.692814,184.55464 L178.292814,184.35464 C184.092814,184.15464 187.692814,183.85464 189.592814,183.35464 C204.192814,179.35464 209.892814,167.65464 204.092814,153.25464 C203.572814,151.917497 202.004324,148.924844 200.24821,145.793443 L199.840014,145.06904 C199.360814,144.22264 198.872814,143.37464 198.392814,142.55464 C195.992814,138.45464 193.992814,134.95464 193.992814,134.75464 C193.992814,134.55464 198.992814,131.45464 204.992814,127.85464 C210.992814,124.25464 216.192814,121.35464 216.392814,121.253693 Z M70.7928139,70.6546398 C70.9507339,70.8633198 71.0997473,71.0589578 71.2403562,71.2472053 L71.3781823,71.4331984 C71.6257958,71.7704369 71.8457241,72.0891661 72.0410626,72.4242096 L72.1451909,72.6087878 L72.1854007,72.683616 L72.2635727,72.8357367 C73.4522334,75.2215439 73.5779461,78.9830482 73.5912415,94.8137195 L73.5919527,95.8519048 C73.5920484,96.027762 73.5921335,96.2050412 73.5922091,96.3837558 L73.5920849,106.931173 L73.5919566,107.231654 L73.5910859,108.686518 C73.5807455,122.241413 73.5085266,125.140852 73.0041441,126.753053 L72.9669247,126.867486 C72.9416031,126.942455 72.9152569,127.014959 72.8878449,127.086045 L72.8392429,127.208076 C72.8309619,127.228245 72.8225899,127.248347 72.8141259,127.268406 L72.7622299,127.388455 L72.7080779,127.508701 C72.6712139,127.5892 72.6328139,127.67064 72.5928139,127.75464 C70.5928139,132.05464 66.4928139,133.65464 61.6928139,132.05464 C60.2928139,131.65464 56.8928139,129.75464 53.9928139,127.85464 C51.1928139,125.95464 48.6928139,124.45464 48.4928139,124.45464 C48.2867533,124.506155 44.6572768,130.475668 40.940144,136.744338 L40.502631,137.48287 L39.9564413,138.40682 C37.5943725,142.407326 35.3162333,146.327984 33.9852694,148.714722 L33.7505149,149.137585 C33.415128,149.744722 33.1564503,150.227367 32.9928139,150.55464 C30.0928139,156.45464 28.8928139,163.15464 29.8928139,167.85464 C31.4928139,175.55464 36.9928139,180.75464 46.2928139,183.45464 C46.3428139,183.469223 46.3931178,183.483546 46.4438448,183.497615 L46.5974146,183.539065 C48.9752792,184.163147 52.5011473,184.262973 68.7928139,184.45464 L88.4928139,184.55464 L88.4928139,214.05464 L69.6038269,214.05464 C68.7884443,214.05464 67.9713309,214.050954 67.15684,214.046574 L66.1809882,214.040515 C57.4146662,213.978885 49.1573301,213.728833 46.8928139,213.55464 C12.5928139,210.05464 -5.10718605,188.85464 1.29281395,158.85464 C3.39281395,149.15464 6.09281395,143.25464 17.7928139,123.45464 C22.1928139,115.85464 25.7928139,109.65464 25.6928139,109.55464 C25.5928139,109.45464 22.0928139,107.25464 17.9928139,104.55464 C9.09281395,98.6546398 7.49281395,96.8546398 7.49281395,92.6546398 C7.49281395,90.5546398 7.69281395,89.7546398 8.79281395,88.3546398 C9.49281395,87.4546398 10.8928139,86.1546398 11.8928139,85.5546398 C12.1138139,85.4116398 12.9398339,85.0269698 14.2219173,84.4619261 L14.8454889,84.1885523 C18.5732105,82.5620607 25.2906336,79.7556694 32.2966093,76.8809131 L33.4348161,76.4143127 L34.6706133,75.9086981 L35.9060889,75.4042523 C38.6831064,74.2715685 41.4329687,73.1579299 43.9888623,72.1319809 L44.8334139,71.7933398 C50.4128139,69.5586398 54.9428139,67.7946398 56.5928139,67.2546398 C61.7928139,65.4546398 67.6928139,66.8546398 70.7928139,70.6546398 Z M116.5,79.6 C124.533333,79.6 131.05,82.3833333 136.05,87.95 C141.05,93.5166667 143.55,99.8666667 143.55,107 C143.55,110.8 142.716667,114.4 141.05,117.8 C139.383333,121.2 137.383333,123.933333 135.05,126 C130.116667,130.4 125.716667,133.366667 121.85,134.9 L119.35,135.9 L119.35,136.4 L137.65,136.4 C140.383333,136.4 142.333333,136.716667 143.5,137.35 C144.666667,137.983333 145.45,138.95 145.85,140.25 C146.25,141.55 146.45,143.25 146.45,145.35 C146.45,147.45 146.233333,149.133333 145.8,150.4 C145.366667,151.666667 144.65,152.533333 143.65,153 C142.183333,153.8 140.116667,154.2 137.45,154.2 L98.35,154.2 C95.95,154.2 93.8833333,153.3 92.15,151.5 C90.4166667,149.7 89.55,147.6 89.55,145.2 C89.55,141.6 90.8,138.283333 93.3,135.25 C95.8,132.216667 98.8166667,129.616667 102.35,127.45 C105.883333,125.283333 109.416667,123.15 112.95,121.05 C116.483333,118.95 119.5,116.566667 122,113.9 C124.5,111.233333 125.75,108.4 125.75,105.4 C125.75,104.8 125.516667,103.95 125.05,102.85 C124.583333,101.75 124.066667,100.85 123.5,100.15 C122.933333,99.45 122.05,98.8 120.85,98.2 C119.65,97.6 117.983333,97.3 115.85,97.3 C113.716667,97.3 111.866667,98.0833333 110.3,99.65 C108.733333,101.216667 107.85,102.766667 107.65,104.3 L107.25,106.6 L107.25,107.2 C107.25,108.666667 107.2,109.766667 107.1,110.5 C107,111.233333 106.683333,112.066667 106.15,113 C105.15,114.6 102.55,115.4 98.35,115.4 C93.6833333,115.4 90.9166667,114.133333 90.05,111.6 C89.7166667,110.533333 89.55,108.833333 89.55,106.5 C89.55,99.5666667 92.0333333,93.35 97,87.85 C101.966667,82.35 108.466667,79.6 116.5,79.6 Z M123.792814,0.354639782 C132.192814,1.65463978 140.692814,5.95463978 148.292814,12.5546398 C148.452365,12.6939656 148.610855,12.833645 148.768373,12.9737969 L149.2381,13.39579 L149.702526,13.8213338 C156.092877,19.7358795 161.114162,26.8748645 171.092814,43.7546398 C174.592814,49.8546398 177.692814,54.7546398 177.892814,54.7546398 C178.092814,54.7546398 181.592814,52.5546398 185.692814,49.9546398 C193.992814,44.5546398 196.692814,43.5546398 199.992814,44.5546398 C202.492814,45.3546398 203.892814,46.5546398 205.192814,49.1546398 L206.292814,51.3546398 L206.292814,100.75464 L204.792814,103.85464 C203.092814,107.25464 201.292814,108.85464 197.992814,109.95464 C197.488814,110.13464 197.020814,110.28584 196.547342,110.397008 L196.309958,110.449204 C192.895414,111.14804 188.844814,109.69464 168.892814,101.95464 C157.192814,97.4546398 146.792814,93.2546398 145.792814,92.7546398 C142.392814,90.9546398 140.092814,87.7546398 140.092814,84.7546398 C140.092814,81.3546398 142.792814,78.3546398 150.292814,73.3546398 L155.192814,70.0546398 L147.492814,57.2546398 C140.828835,46.0739648 138.22194,41.8561211 135.693811,38.9177997 L135.467516,38.6579357 C135.354368,38.5295628 135.24114,38.403415 135.127474,38.2789822 L134.905638,38.0388682 C134.720152,37.840345 134.532907,37.6454614 134.342379,37.4520417 L134.112074,37.2205015 C133.72528,36.8353081 133.322921,36.4524892 132.892814,36.0546398 C123.492814,27.3546398 111.892814,27.3546398 102.492814,36.2546398 C99.7928139,38.7546398 96.2928139,43.4546398 92.6928139,49.4546398 C92.2928139,50.0546398 90.6928139,49.2546398 80.6928139,43.2546398 C74.3928139,39.4546398 69.1928139,36.1546398 69.2928139,35.8546398 C69.3928139,35.5546398 70.6928139,33.3546398 72.1928139,30.9546398 C83.6928139,12.8546398 97.1928139,2.65463978 112.792814,0.254639782 C115.292814,-0.145360218 120.992814,-0.0453602184 123.792814,0.354639782 Z" id="Combined-Shape"></path>
        </g>
    </g>
</svg>