<?xml version="1.0" encoding="UTF-8"?>
<svg width="115px" height="99px" viewBox="0 0 115 99" version="1.1" xmlns="http://www.w3.org/2000/svg" xmlns:xlink="http://www.w3.org/1999/xlink">
    <title>Group 8</title>
    <g id="Page-1" stroke="none" stroke-width="1" fill="none" fill-rule="evenodd">
        <g id="Group-8" transform="translate(3, 0)">
            <path d="M50,26 L50,86 C50,91.5228475 38.8071187,96 25,96 C11.1928813,96 0,91.5228475 0,86 L0,26 C0,31.5228475 11.1928813,36 25,36 C38.6586551,36 49.7589906,31.6186127 49.9961283,26.1777894 L50,26 Z" id="Combined-Shape" stroke="#1D90FF" stroke-width="5"></path>
            <ellipse id="Oval" stroke="#1D90FF" stroke-width="5" cx="25" cy="27" rx="25" ry="10"></ellipse>
            <path d="M49.2123678,54.4999643 C49.7265356,55.2990249 50,56.1367382 50,57 C50,62.5228475 38.8071187,67 25,67 C11.1928813,67 0,62.5228475 0,57 C0,56.1367382 0.273464405,55.2990249 0.787632227,54.4999643 C3.56293069,58.8130856 13.3510357,62 25,62 C36.5801641,62 46.3213849,58.8506191 49.1624612,54.5763376 Z" id="Combined-Shape" stroke="#1D90FF" stroke-width="5"></path>
            <g id="Group-7" transform="translate(61, 0)" stroke="#1D90FF" stroke-width="5">
                <path d="M38.3290514,2.5 C38.6021922,2.5 38.8494748,2.6107122 39.0284722,2.7897096 C39.2074696,2.968707 39.3181818,3.21598961 39.3181818,3.48913043 L38.9063829,4.87844602 L47.4576234,19.6012003 L47.499803,22.8889631 L47.5,94 C47.5,94.4142136 47.3321068,94.7892136 47.0606602,95.0606602 C46.7892136,95.3321068 46.4142136,95.5 46,95.5 L4,95.5 C3.58578644,95.5 3.21078644,95.3321068 2.93933983,95.0606602 C2.66789322,94.7892136 2.5,94.4142136 2.5,94 L2.5,19.5899634 L11.0948948,4.88224547 L10.732651,3.80512537 C10.6818182,3.21598961 10.7925304,2.968707 10.9715278,2.7897096 C11.1505252,2.6107122 11.3978078,2.5 11.6709486,2.5 Z" id="Combined-Shape"></path>
                <path d="M1,31.8091646 C6.12277159,30.8917339 10.4104556,30.7262903 13.863052,31.3128338 C17.3156485,31.8993774 21.1153285,33.4387409 25.2620921,35.9309244 C30.4742094,39.2710536 34.5611139,40.5548565 37.5228055,39.782333 C40.484497,39.0098094 43.9768952,35.7490318 48,30" id="Path-2"></path>
            </g>
            <path d="M102.038143,73 C102.051365,72.9972718 102.105178,73.074149 102.187111,73.2077157 L102.221355,73.2641109 C102.381933,73.5310036 102.628234,73.9716044 102.887534,74.4513794 L102.94534,74.5585865 C103.331749,75.2768685 103.734864,76.0592577 103.918217,76.4683113 C105.495053,79.9695787 105.343434,83.4542525 103.493684,85.6280252 C101.916848,87.5031114 99.5364313,88.3825768 96.0643589,88.3825768 L94.9575413,88.3825768 L94.9272175,89.6934778 C94.9120557,90.9380042 94.8968937,91.0375664 94.730113,91.3528463 C94.4571989,91.8672505 94.2449326,92 93.7294285,92 C93.4413526,92 93.2139243,91.950219 93.0471434,91.8672505 C92.9106864,91.784282 91.4248215,90.7388799 89.7418519,89.5441347 C89.2198248,89.1713557 88.7656016,88.8440903 88.3743259,88.5589561 L88.2642416,88.4786327 C87.1262521,87.6472136 86.5506273,87.1920764 86.4062367,87.0218947 C85.845247,86.2917725 85.8604087,85.4786821 86.4820463,84.7651535 C86.6943126,84.5162482 87.8162922,83.6699704 89.8024995,82.2595072 C91.4703071,81.0813556 92.9258484,80.0691408 93.0623054,79.9861723 C93.2290861,79.9032041 93.4716764,79.8534229 93.7445902,79.8534229 C94.2600944,79.8368292 94.4723609,79.9861723 94.7452748,80.5005766 C94.9120557,80.8158567 94.9120557,80.9154186 94.9423793,82.1765387 L94.9575413,83.5040334 L96.2614637,83.4708461 C97.140853,83.4376588 97.686681,83.3878776 97.9747568,83.3049093 C100.188392,82.641162 101.05262,80.6997009 100.17323,78.3102102 C100.094389,78.0883291 99.856576,77.5917375 99.590316,77.0721226 L99.5284257,76.9519175 C99.4557699,76.8114687 99.3817801,76.6707543 99.309003,76.5346861 C98.9451176,75.8543449 98.6418799,75.273566 98.6418799,75.2403787 C98.6418799,75.2071912 99.3999742,74.6927869 100.309688,74.0954144 C101.219401,73.4980417 102.007819,73.0168248 102.038143,73 Z M78.1997726,65.6794798 C78.2247564,65.7134166 78.248331,65.7452323 78.270576,65.7758462 L78.2923808,65.8060935 C78.3315545,65.8609371 78.3663482,65.9127706 78.3972517,65.9672573 L78.4137253,65.9972744 C78.6256255,66.3968611 78.6414665,66.9864005 78.6426508,69.8636944 L78.6426311,71.5789751 L78.6426108,71.6278411 L78.6424731,71.8644392 C78.6408372,74.068813 78.6294118,74.5403362 78.549616,74.8025215 L78.5437277,74.8211312 C78.5397217,74.833323 78.5355536,74.845114 78.5312169,74.8566746 L78.5235278,74.8765198 C78.5222177,74.8797999 78.5208932,74.8830689 78.5195542,74.8863311 L78.511344,74.9058542 L78.5027768,74.9254092 C78.4969448,74.9385005 78.4908697,74.9517447 78.4845415,74.9654052 C78.1681316,75.6646957 77.5194914,75.9248967 76.7601077,75.6646957 C76.5386208,75.5996453 76.000724,75.2906566 75.5419297,74.9816679 C75.0989559,74.672679 74.7034435,74.4287405 74.6718025,74.4287405 C74.6392027,74.4371181 74.0650016,75.4079143 73.4769329,76.4273609 L73.4077162,76.5474651 L73.3213063,76.6977232 C72.9476153,77.3483079 72.5872024,77.9859075 72.3766374,78.3740525 L72.3394981,78.4428209 C72.2864382,78.5415569 72.2455141,78.6200473 72.219626,78.6732703 C71.7608317,79.6327617 71.5709858,80.7223538 71.7291907,81.4866943 C71.9823186,82.7389119 72.8524458,83.5845655 74.3237517,84.0236548 C74.3316619,84.0260263 74.3396202,84.0283556 74.3476455,84.0306435 L74.371941,84.0373844 C74.7481309,84.1388761 75.3059407,84.1551105 77.8833628,84.1862804 L81,84.2025429 L81,89 L78.011669,89 C77.8826715,89 77.7534001,88.9994005 77.6245436,88.9986882 L77.470159,88.997703 C76.0832836,88.9876803 74.7769323,88.9470155 74.4186746,88.9186871 C68.9922453,88.3494974 66.192018,84.9018334 67.2045296,80.0230633 C67.5367599,78.4455945 67.9639132,77.486103 69.814911,74.2661149 C70.5110127,73.0301598 71.0805505,72.0218808 71.06473,72.0056181 C71.0489095,71.9893556 70.4951922,71.6315792 69.846552,71.19249 C68.438528,70.2329985 68.1854002,69.9402723 68.1854002,69.2572445 C68.1854002,68.9157306 68.2170411,68.78563 68.3910666,68.557954 C68.50181,68.4115909 68.7232969,68.2001776 68.8815019,68.1026022 C68.9164652,68.0793468 69.0471456,68.0167895 69.2499775,67.9248989 L69.3486296,67.8804413 C69.9383736,67.615932 71.0011031,67.1595408 72.109483,66.6920317 L72.289553,66.6161505 L72.4850622,66.5339246 L72.6805205,66.4518887 C73.1198584,66.2676853 73.5549002,66.0865791 73.9592552,65.9197334 L74.0928674,65.8646617 C74.975556,65.5012421 75.6922244,65.2143704 75.9532625,65.1265526 C76.7759282,64.8338264 77.7093373,65.0615023 78.1997726,65.6794798 Z M87.7519621,54.060921 C89.100853,54.2842384 90.4658024,55.0229038 91.6862279,56.1566693 C91.711849,56.1806031 91.7372996,56.2045976 91.7625942,56.2286732 L91.8380241,56.3011643 L91.9126025,56.3742654 C92.9387798,57.3902817 93.7451092,58.6166355 95.3475039,61.516288 C95.9095417,62.5641622 96.4073469,63.4058972 96.4394633,63.4058972 C96.4715797,63.4058972 97.0336178,63.0279754 97.692005,62.5813405 C99.024838,61.6537142 99.4584102,61.4819315 99.9883316,61.6537142 C100.389787,61.7911403 100.614602,61.9972795 100.82336,62.4439144 L101,62.8218362 L101,71.3078991 L100.759126,71.8404254 C100.486137,72.4244864 100.197089,72.6993387 99.667167,72.8882996 C99.5862335,72.9192205 99.5110811,72.945194 99.43505,72.9642909 L99.3969303,72.9732572 C98.8486151,73.0933051 98.1981604,72.8436361 94.9942227,71.5140384 C93.1154101,70.7410166 91.4453544,70.0195293 91.2847722,69.9336379 C90.7387923,69.6244293 90.3694532,69.0747246 90.3694532,68.5593768 C90.3694532,67.9753157 90.8030254,67.4599678 92.0073925,66.6010545 L92.7942456,66.0341718 L91.5577621,63.8353538 C90.487645,61.9147078 90.0690239,61.1901555 89.6630511,60.6854028 L89.6267123,60.6407627 C89.6085428,60.6187105 89.5903602,60.5970405 89.5721076,60.5756651 L89.5364847,60.5344176 C89.5066989,60.5003148 89.4766305,60.4668372 89.4460353,60.433611 L89.4090524,60.3938364 C89.3469401,60.3276669 89.2823283,60.2619052 89.2132607,60.1935616 C87.7037873,58.6990526 85.8410329,58.6990526 84.3315595,60.2279182 C83.8979873,60.6573748 83.3359492,61.4647532 82.7578532,62.4954492 C82.6936202,62.5985187 82.4366885,62.4610926 80.8308658,61.4303967 C79.8191974,60.7776226 78.9841696,60.2107399 79.0002278,60.1592051 C79.016286,60.1076703 79.225043,59.7297485 79.4659164,59.3174701 C81.3126126,56.2082041 83.4804733,54.4560211 85.985557,54.0437427 C86.3870127,53.9750296 87.3023317,53.9922079 87.7519621,54.060921 Z" id="recycle-icon" fill="#1D90FF" fill-rule="nonzero"></path>
        </g>
    </g>
</svg>